<?xml version="1.0" standalone="no"?>
<!DOCTYPE svg PUBLIC "-//W3C//DTD SVG 20010904//EN"
 "http://www.w3.org/TR/2001/REC-SVG-20010904/DTD/svg10.dtd">
<svg version="1.0" xmlns="http://www.w3.org/2000/svg"
 width="1000.000000pt" height="1000.000000pt" viewBox="0 0 1000.000000 1000.000000"
 preserveAspectRatio="xMidYMid meet">
<metadata>
Created by potrace 1.14, written by Peter Selinger 2001-2017
</metadata>
<g transform="translate(0.000000,1000.000000) scale(0.100000,-0.100000)"
fill="#000000" stroke="none">
<path d="M2037 9509 c7 -7 15 -10 18 -7 3 3 -2 9 -12 12 -14 6 -15 5 -6 -5z"/>
<path d="M2450 9458 c0 -2 14 -16 32 -33 25 -24 29 -25 19 -8 -9 18 -51 51
-51 41z"/>
<path d="M1530 9436 c0 -2 9 -6 20 -9 11 -3 18 -1 14 4 -5 9 -34 13 -34 5z"/>
<path d="M2582 9364 c10 -10 20 -16 22 -13 3 3 -5 11 -17 18 -21 13 -21 12 -5
-5z"/>
<path d="M1247 9243 c-4 -3 -7 -11 -7 -17 0 -6 5 -5 12 2 6 6 9 14 7 17 -3 3
-9 2 -12 -2z"/>
<path d="M1175 9169 c-4 -6 -5 -12 -2 -15 2 -3 7 2 10 11 7 17 1 20 -8 4z"/>
<path d="M2557 8803 c-4 -3 -7 -19 -7 -35 0 -21 6 -31 23 -37 46 -18 76 28 41
63 -16 16 -46 21 -57 9z m23 -29 c0 -8 -5 -12 -10 -9 -6 4 -8 11 -5 16 9 14
15 11 15 -7z"/>
<path d="M1946 8714 c-22 -21 -20 -47 4 -69 29 -26 70 -7 70 33 0 49 -42 69
-74 36z m31 -30 c-9 -9 -28 6 -21 18 4 6 10 6 17 -1 6 -6 8 -13 4 -17z"/>
<path d="M7175 8622 c-182 -14 -589 -152 -716 -243 -44 -31 -30 -33 32 -5 30
14 112 39 182 57 70 17 126 34 123 36 -3 3 -33 -2 -68 -10 -159 -39 -161 -31
-5 27 201 75 412 116 602 116 46 0 75 4 70 9 -11 10 -155 18 -220 13z"/>
<path d="M894 8606 c-3 -8 -4 -23 -2 -33 3 -11 6 -6 9 15 6 34 2 42 -7 18z"/>
<path d="M7788 8583 c7 -3 16 -2 19 1 4 3 -2 6 -13 5 -11 0 -14 -3 -6 -6z"/>
<path d="M901 8543 c-1 -6 -4 -20 -7 -30 -5 -17 -5 -17 6 0 6 10 9 23 6 30 -3
9 -5 9 -5 0z"/>
<path d="M3060 8510 c-9 -6 -10 -10 -3 -10 6 0 15 5 18 10 8 12 4 12 -15 0z"/>
<path d="M3000 8256 c0 -8 -10 -22 -22 -30 -12 -9 -19 -18 -16 -22 9 -8 48 33
48 51 0 8 -2 15 -5 15 -3 0 -5 -6 -5 -14z"/>
<path d="M2910 8127 c0 -38 -25 -67 -57 -67 -28 0 -72 -24 -89 -49 -9 -12 -21
-21 -28 -21 -7 0 -25 -13 -41 -30 -16 -16 -23 -30 -17 -30 7 0 17 9 24 20 16
26 40 25 56 -1 7 -12 16 -18 19 -15 3 3 0 12 -7 21 -10 12 -9 20 4 40 17 27
40 39 88 49 15 4 34 17 43 29 20 31 31 87 16 87 -6 0 -11 -15 -11 -33z"/>
<path d="M8031 8137 c2 -1 13 -9 24 -17 19 -14 19 -14 6 3 -7 9 -18 17 -24 17
-6 0 -8 -1 -6 -3z"/>
<path d="M965 8058 c-44 -34 -137 -119 -207 -190 -234 -235 -407 -544 -445
-792 -9 -61 2 -41 26 48 72 262 269 585 473 773 105 98 230 193 251 193 8 0
17 -7 21 -15 3 -8 10 -15 16 -15 7 0 7 5 -2 15 -7 8 -19 21 -26 30 -7 8 -16
15 -20 14 -4 0 -43 -28 -87 -61z"/>
<path d="M8175 7998 c43 -46 102 -118 132 -160 58 -83 74 -98 47 -45 -37 71
-222 287 -247 287 -5 0 26 -37 68 -82z"/>
<path d="M1135 8021 c7 -45 31 -71 67 -71 32 0 78 -21 97 -44 8 -9 23 -16 35
-16 12 0 29 -9 39 -20 9 -11 29 -20 43 -20 14 0 37 -9 51 -20 17 -13 33 -18
49 -14 13 4 30 1 38 -5 7 -6 29 -11 47 -10 19 0 49 -3 67 -7 24 -5 38 -2 52
11 10 9 23 14 29 11 5 -4 52 -8 103 -11 90 -5 158 6 158 26 0 12 -2 12 -38 -7
-24 -11 -40 -13 -65 -6 -19 5 -40 6 -48 2 -7 -5 -21 -4 -32 2 -10 5 -29 7 -41
4 -11 -3 -27 -1 -35 4 -9 5 -24 1 -43 -13 -29 -21 -30 -21 -61 -4 -20 12 -33
15 -35 8 -5 -16 -38 -13 -52 4 -9 11 -23 14 -45 9 -22 -4 -35 -1 -44 10 -8 9
-26 16 -42 16 -16 0 -38 9 -49 20 -11 11 -29 20 -39 20 -11 0 -26 9 -35 21
-21 30 -58 47 -92 42 -33 -5 -54 13 -73 62 l-11 30 5 -34z"/>
<path d="M6114 8024 c-18 -14 -18 -15 4 -4 12 6 22 13 22 15 0 8 -5 6 -26 -11z"/>
<path d="M5983 7939 c-59 -41 -54 -48 5 -8 58 40 57 39 46 39 -5 -1 -28 -14
-51 -31z"/>
<path d="M6842 7887 c-18 -34 -26 -53 -17 -42 20 24 58 96 53 100 -2 2 -18
-24 -36 -58z"/>
<path d="M2609 7904 c-8 -10 -22 -14 -40 -10 -18 3 -32 0 -40 -10 -9 -11 -23
-14 -45 -11 -22 4 -37 1 -45 -9 -14 -17 -50 -19 -66 -3 -7 7 -29 6 -76 -6 -37
-9 -71 -14 -77 -10 -5 3 -17 -1 -26 -9 -18 -19 -55 -21 -72 -4 -6 6 -15 9 -19
5 -12 -12 14 -30 44 -30 40 1 116 14 128 23 20 15 83 20 108 9 19 -9 31 -8 55
5 17 9 38 13 46 10 9 -3 27 1 41 10 13 9 35 16 49 16 21 0 56 22 56 36 0 8 -8
4 -21 -12z"/>
<path d="M5873 7859 c-29 -22 -53 -42 -53 -45 0 -7 88 56 102 73 16 20 7 15
-49 -28z"/>
<path d="M2025 7810 c3 -5 11 -10 16 -10 6 0 7 5 4 10 -3 6 -11 10 -16 10 -6
0 -7 -4 -4 -10z"/>
<path d="M6776 7764 c-53 -101 -148 -235 -219 -307 -92 -95 -188 -210 -270
-326 -37 -52 -67 -88 -67 -82 0 25 99 258 148 346 51 94 131 219 204 317 42
58 48 89 9 46 -53 -56 -225 -335 -237 -384 -3 -13 -10 -24 -14 -24 -4 0 -18
-26 -31 -57 -12 -32 -28 -67 -35 -78 -7 -11 -26 -60 -44 -109 -17 -50 -35 -95
-40 -101 -19 -23 -49 -172 -54 -270 -5 -95 -4 -96 5 -30 5 39 16 94 25 123 13
47 21 57 65 84 27 17 47 33 44 36 -2 3 -23 -7 -45 -22 -22 -14 -40 -22 -40
-16 0 30 78 154 183 294 57 75 263 286 279 286 9 0 4 -30 -22 -150 -11 -47
-25 -125 -32 -175 -6 -49 -16 -93 -21 -96 -5 -4 -6 -13 -1 -20 4 -8 9 -63 10
-124 1 -62 9 -143 19 -185 9 -41 21 -106 25 -145 4 -38 24 -115 43 -170 64
-184 91 -225 37 -54 -17 51 -28 99 -25 106 2 8 -4 30 -14 51 -25 49 -61 260
-68 398 -7 130 -6 131 92 138 84 6 79 16 -8 16 -91 0 -86 -12 -53 150 35 166
80 317 138 458 28 67 49 125 47 127 -3 2 -17 -21 -33 -51z"/>
<path d="M5743 7756 c-77 -65 -259 -236 -250 -236 8 0 170 133 230 189 35 32
83 91 75 91 -2 0 -27 -20 -55 -44z"/>
<path d="M6312 7760 c-7 -11 -8 -20 -3 -20 9 0 24 30 18 36 -1 2 -8 -6 -15
-16z"/>
<path d="M8735 7770 c3 -5 8 -10 11 -10 2 0 4 5 4 10 0 6 -5 10 -11 10 -5 0
-7 -4 -4 -10z"/>
<path d="M8430 7749 c0 -5 5 -7 10 -4 6 3 10 8 10 11 0 2 -4 4 -10 4 -5 0 -10
-5 -10 -11z"/>
<path d="M5720 7678 c-45 -60 -123 -192 -161 -273 -84 -180 -181 -535 -213
-780 -12 -96 -12 -123 0 -209 9 -54 12 -101 9 -105 -16 -16 -85 105 -123 215
-46 133 -67 343 -50 494 10 85 -4 52 -37 -88 -17 -70 -25 -133 -25 -195 0 -51
0 -104 0 -118 0 -62 51 -243 94 -334 92 -194 96 -210 99 -360 1 -93 -2 -147
-10 -161 -10 -18 -60 -84 -163 -216 -12 -16 -17 -28 -11 -28 5 0 18 12 28 27
10 15 37 46 61 70 23 23 42 45 42 48 0 2 23 26 51 52 69 65 72 68 139 153 33
41 63 75 66 75 8 0 39 -84 55 -147 6 -29 20 -66 29 -83 9 -16 33 -60 53 -97
20 -37 42 -76 49 -87 11 -18 8 -25 -24 -58 -50 -53 -73 -98 -43 -87 11 5 10
-7 -6 -63 -44 -150 -50 -182 -56 -268 -10 -158 30 -269 133 -371 l63 -62 -30
-28 c-27 -26 -37 -29 -97 -29 -54 1 -79 7 -132 32 -36 18 -77 44 -90 58 -23
25 -25 34 -25 128 0 56 3 118 7 137 6 29 6 32 -4 15 -18 -30 -40 -183 -29
-203 5 -9 12 -37 16 -62 4 -25 16 -62 27 -84 28 -55 7 -37 -48 42 -58 83 -120
255 -130 360 -4 39 -11 72 -15 72 -35 0 54 -345 97 -381 8 -6 14 -17 14 -24 0
-7 28 -43 62 -80 44 -48 79 -75 118 -92 51 -23 54 -26 35 -39 -33 -24 -86 -36
-185 -41 -52 -3 -99 -9 -104 -13 -5 -5 2 -6 15 -4 19 5 21 4 9 -5 -13 -9 -12
-11 5 -11 11 0 31 -3 45 -5 21 -5 22 -4 5 3 -15 7 -7 10 35 16 125 16 276 82
287 126 2 8 25 25 51 37 77 36 212 184 212 233 0 34 18 49 26 23 3 -10 14 -42
26 -70 l20 -53 -33 -41 c-17 -22 -48 -51 -68 -63 -20 -13 -51 -37 -69 -54 -86
-80 -236 -143 -383 -161 l-74 -9 72 1 c40 1 75 -2 79 -6 4 -4 -6 -22 -23 -40
-44 -47 -111 -153 -123 -195 -34 -116 -16 -232 43 -275 53 -39 64 -42 30 -7
-30 29 -33 38 -33 94 0 137 108 266 244 291 38 8 38 7 33 -21 -3 -16 -9 -47
-12 -69 -4 -24 -21 -57 -44 -85 -61 -73 -89 -122 -102 -175 -20 -86 -22 -89
-140 -155 -63 -35 -136 -80 -164 -100 -79 -59 -78 -59 -141 28 -31 42 -62 84
-68 92 -10 13 -9 13 7 1 40 -31 10 14 -95 146 -121 150 -241 283 -258 283 -5
0 -17 12 -27 26 -22 34 -99 107 -188 178 -38 31 -91 74 -117 97 -47 40 -62 42
-33 3 34 -45 6 -86 -46 -65 -25 10 -98 81 -118 116 -10 17 -11 13 -6 -22 6
-35 3 -43 -14 -52 -32 -18 -50 -13 -80 20 -28 30 -29 31 -24 6 3 -17 17 -31
41 -43 34 -16 37 -16 68 1 33 18 33 18 82 -14 27 -17 55 -31 62 -31 42 0 316
-251 441 -406 48 -59 56 -74 52 -101 -3 -17 0 -39 6 -50 10 -16 11 -15 5 7 -5
21 -4 23 7 12 8 -7 14 -30 14 -52 0 -22 4 -40 9 -40 4 0 6 -12 3 -28 -3 -15 1
-56 8 -92 8 -36 15 -83 16 -105 1 -38 2 -39 8 -10 6 25 8 18 12 -33 3 -51 1
-67 -13 -79 -27 -24 -23 -70 8 -98 15 -14 22 -25 15 -25 -6 0 -12 -19 -13 -47
l-1 -48 -7 45 -7 45 -3 -50 c-1 -27 -4 -108 -6 -180 -2 -71 -6 -136 -9 -144
-13 -35 -16 -285 -5 -368 9 -65 10 -88 1 -91 -6 -2 -10 -13 -10 -25 1 -13 3
-16 5 -7 3 8 16 20 29 26 23 11 25 10 31 -22 3 -19 3 -46 0 -61 l-7 -28 21 30
c11 17 20 36 20 43 0 6 5 12 10 12 13 0 13 -71 0 -104 -5 -15 -6 -26 0 -26 5
0 14 16 21 35 19 52 44 43 42 -15 l-2 -45 15 34 c11 25 18 31 27 22 8 -8 8
-22 0 -53 l-11 -42 19 24 c10 14 19 33 19 43 0 14 5 17 23 11 31 -9 32 -11 13
-29 -9 -9 -16 -26 -16 -38 1 -21 1 -21 11 -3 6 10 20 27 31 38 18 18 23 19 47
7 14 -7 28 -14 30 -16 2 -1 -7 -12 -20 -24 -24 -20 -24 -20 8 1 21 14 45 20
65 18 l33 -3 32 -150 c18 -82 45 -201 60 -263 23 -98 25 -115 13 -124 -13 -8
-12 -9 1 -5 13 4 20 -5 29 -39 7 -25 10 -48 6 -51 -11 -11 -144 57 -251 128
-274 182 -606 541 -861 929 -68 104 -169 282 -178 316 -6 18 -3 21 19 16 15
-2 25 0 25 7 0 7 -5 9 -12 5 -6 -4 -8 -3 -5 3 4 6 -33 93 -82 194 -206 422
-297 716 -308 991 -5 120 -3 144 16 205 12 37 28 77 36 87 14 18 16 18 59 -18
52 -42 80 -54 113 -48 33 6 29 19 -6 19 -50 0 -107 46 -141 113 -17 33 -34 77
-39 98 -7 28 -9 31 -10 12 -1 -19 -9 -29 -32 -37 -39 -15 -49 -10 -50 25 0 24
-1 25 -9 7 -5 -11 -9 -35 -9 -52 -1 -21 -13 -49 -35 -77 -19 -25 -44 -75 -57
-113 -20 -60 -23 -87 -24 -243 0 -206 9 -259 91 -520 51 -162 149 -408 181
-455 21 -31 16 -43 -29 -66 -24 -12 -38 -24 -31 -26 7 -2 21 0 32 6 45 24 57
15 112 -86 86 -161 255 -438 336 -551 379 -527 797 -883 1124 -956 l53 -11 13
-60 c21 -101 18 -120 -21 -144 -19 -12 -40 -29 -47 -38 -13 -17 -12 -17 11 -2
61 38 69 43 74 38 3 -2 12 -92 20 -199 9 -107 25 -235 37 -285 12 -49 22 -126
22 -170 1 -71 -3 -90 -36 -169 -50 -121 -47 -126 10 -17 26 50 51 91 55 91 3
0 9 -15 13 -32 10 -53 78 -268 82 -264 3 2 -11 62 -30 133 -52 190 -73 283
-101 433 -31 171 -37 226 -40 375 -2 133 -16 215 -75 445 -124 491 -142 604
-148 962 -5 261 -5 269 23 407 15 78 33 150 40 159 11 16 15 15 43 -6 17 -12
37 -22 45 -22 8 0 39 20 69 45 31 25 60 45 66 45 20 0 22 -42 6 -108 -29 -119
-33 -127 -68 -140 -40 -14 -63 -52 -71 -117 -8 -59 17 -110 59 -121 l25 -6 1
-152 c0 -83 4 -191 9 -241 l8 -90 -30 -28 c-29 -27 -30 -31 -26 -99 3 -64 7
-73 35 -98 17 -15 36 -29 43 -32 11 -3 38 -138 91 -454 l23 -142 -33 -37 c-31
-36 -33 -41 -29 -101 3 -49 9 -69 28 -89 13 -14 30 -25 37 -25 25 0 35 -54 47
-245 13 -229 10 -335 -9 -335 -25 0 -54 -42 -61 -87 -8 -53 8 -112 36 -138 22
-20 24 -52 14 -166 l-7 -65 -89 -17 c-92 -18 -230 -66 -264 -92 -17 -14 -14
-15 46 -11 69 5 367 79 383 95 6 6 14 68 19 138 4 70 12 144 18 164 14 52 12
94 -7 137 -13 30 -17 76 -19 232 -7 444 -12 567 -24 590 -7 13 -23 82 -35 154
-60 340 -99 542 -109 549 -7 6 -5 7 6 4 35 -12 31 121 -5 161 -30 34 -53 544
-26 593 11 21 14 81 7 159 -5 53 7 139 21 153 7 7 14 1 22 -16 7 -15 16 -24
20 -21 13 8 11 -18 -5 -62 -22 -65 -49 -304 -39 -344 9 -32 10 -29 17 45 9
103 50 295 73 346 16 34 32 47 121 95 57 31 105 54 106 52 20 -28 128 -157
142 -169 11 -9 35 -19 54 -23 l35 -6 2 -97 c4 -188 60 -456 144 -689 34 -92
85 -178 109 -181 8 -1 29 17 45 39 39 55 245 237 268 238 9 0 44 -25 77 -55
33 -30 62 -55 65 -55 20 0 67 35 94 69 46 58 166 128 293 172 60 21 116 43
124 50 51 42 -34 214 -185 372 -44 47 -53 60 -41 67 8 5 24 15 35 24 19 14 25
10 117 -82 l98 -96 54 53 c30 29 58 51 64 47 5 -3 13 -17 16 -32 19 -73 160
-242 263 -314 l22 -15 -20 -60 c-59 -185 -57 -197 10 -50 31 70 44 89 58 87
10 -2 43 -5 73 -8 l55 -4 -65 17 c-69 19 -73 25 -56 83 4 16 -1 11 -14 -13
l-21 -38 -32 18 c-89 50 -249 247 -278 344 -22 75 -40 284 -33 402 l7 117 -55
0 c-29 0 -78 7 -108 16 -30 8 -66 18 -80 21 -14 3 -27 9 -30 13 -3 3 -31 23
-63 44 -167 111 -193 305 -66 515 21 35 39 74 39 86 0 25 46 167 67 210 70
138 189 257 334 334 l84 45 150 -2 c156 -3 216 5 325 40 88 29 60 34 -47 9
-135 -31 -234 -36 -328 -16 -86 17 -185 57 -185 74 0 14 35 14 59 1 10 -5 54
-19 97 -30 89 -24 139 -22 284 11 89 20 210 66 210 79 0 4 -30 -2 -67 -15
-121 -42 -364 -81 -349 -56 4 6 18 11 31 11 12 0 69 18 126 41 90 36 172 81
302 167 25 17 61 28 102 33 154 19 336 167 393 322 31 82 56 505 43 708 -6 85
-12 186 -15 224 -2 39 -11 107 -20 153 -9 45 -18 111 -20 146 -3 42 -14 81
-30 113 -14 27 -27 71 -29 100 -4 52 4 85 17 65 3 -6 15 -10 26 -9 23 1 19 5
-33 37 l-39 23 7 -49 c4 -27 13 -78 19 -114 26 -134 4 -399 -45 -552 -16 -49
-29 -97 -29 -106 -1 -36 -115 -261 -132 -262 -4 0 4 32 18 72 18 48 23 73 15
76 -6 2 -11 25 -12 50 0 37 -6 21 -24 -73 -41 -214 -82 -293 -240 -462 -37
-40 -63 -73 -57 -73 19 0 179 178 227 252 48 74 72 98 61 61 -20 -74 -22 -71
16 -35 27 25 42 32 76 32 56 0 85 -15 120 -64 42 -60 62 -128 62 -215 0 -97
-30 -161 -115 -247 -146 -148 -355 -187 -466 -87 l-38 35 -43 -35 c-43 -35
-138 -97 -280 -183 -71 -43 -111 -74 -94 -74 4 0 16 5 27 10 17 10 19 7 19
-24 0 -19 -5 -38 -11 -41 -24 -15 -81 -5 -143 24 -64 31 -98 64 -130 125 -14
27 -46 45 -46 26 0 -14 39 -100 45 -100 4 0 3 5 0 10 -11 18 12 10 30 -10 10
-12 34 -30 53 -42 29 -18 32 -22 18 -30 -11 -6 -22 -6 -31 2 -11 9 -12 7 -8
-8 3 -12 29 -32 63 -48 33 -16 59 -32 59 -35 1 -3 -36 -26 -82 -52 -133 -75
-583 -215 -608 -190 -14 14 3 95 31 140 16 26 27 32 72 38 109 14 406 90 395
101 -2 3 -87 -14 -188 -37 -148 -33 -210 -42 -316 -46 l-132 -6 -58 33 c-68
38 -292 201 -377 274 -106 90 -213 223 -261 321 -40 82 -45 100 -55 205 -15
158 -21 190 -34 190 -9 0 -10 -15 -3 -62 6 -35 10 -155 10 -268 1 -172 -2
-214 -18 -259 l-18 -55 -17 35 c-33 64 -43 136 -38 261 4 84 9 123 18 128 11
7 8 18 -14 52 -16 24 -38 53 -49 65 l-20 23 26 37 c28 40 57 104 57 125 0 18
-13 0 -50 -67 -17 -33 -34 -64 -37 -68 -3 -5 -16 16 -30 45 -28 59 -41 150
-47 325 -2 61 -7 121 -11 132 -8 25 -27 28 -24 4 1 -10 0 -65 0 -123 -2 -70
-5 -98 -11 -84 -17 43 -50 314 -51 420 0 60 -5 118 -10 129 -6 13 -7 -58 -5
-195 5 -203 19 -329 45 -385 5 -11 19 -52 31 -92 12 -39 38 -102 57 -140 26
-50 30 -63 15 -50 -11 10 -26 32 -32 48 -7 16 -16 29 -21 29 -9 0 -101 178
-114 220 -4 14 -20 52 -35 85 -29 62 -45 132 -81 345 -16 94 -22 171 -22 315
-1 218 -3 208 94 635 15 69 38 128 86 221 65 127 80 180 33 117z m-275 -1599
c9 -16 13 -29 10 -29 -15 0 -85 175 -85 214 0 12 14 -19 30 -67 17 -48 37
-101 45 -118z m3263 166 c2 -2 6 -57 8 -122 l4 -118 -23 75 c-13 42 -31 90
-40 109 -21 42 -8 76 26 65 12 -3 24 -8 25 -9z m-31 -180 c25 -81 28 -104 28
-227 0 -75 -4 -140 -7 -144 -4 -4 -25 12 -45 35 -52 58 -119 79 -175 56 -13
-5 -18 -2 -18 11 0 22 56 144 66 144 4 0 4 -27 1 -60 -3 -33 -1 -60 4 -60 5 0
9 35 9 79 0 70 4 87 39 162 22 46 43 97 47 114 l7 30 8 -25 c4 -14 20 -65 36
-115z m-2939 -350 c63 -88 108 -136 150 -161 27 -16 32 -23 28 -44 -4 -14 -9
-85 -13 -158 l-6 -132 -19 31 c-10 17 -43 83 -73 147 l-54 116 20 27 c26 37
24 47 -5 20 l-23 -22 -21 48 c-26 62 -88 258 -96 303 -5 27 1 20 28 -35 18
-38 56 -101 84 -140z m363 -441 c69 -115 146 -193 363 -369 54 -44 110 -89
124 -101 l25 -21 -20 -34 c-26 -43 -37 -79 -25 -79 6 0 20 25 33 55 13 31 28
54 33 52 6 -2 14 -22 18 -45 4 -23 12 -50 18 -59 10 -16 10 -16 6 2 -3 11 -8
33 -12 49 l-7 30 34 -22 c68 -42 95 -52 137 -52 37 0 42 -3 42 -22 0 -13 -4
-28 -8 -34 -8 -13 -111 -49 -129 -46 -7 2 -9 -5 -6 -17 5 -19 6 -19 46 -1 23
10 58 21 79 25 34 6 36 5 43 -23 9 -43 -9 -72 -44 -72 -37 0 -45 -11 -70 -95
-20 -70 -63 -145 -81 -145 -14 0 -13 17 14 218 3 17 1 32 -5 32 -5 0 -9 -13
-9 -28 0 -19 -11 -38 -31 -58 -17 -16 -44 -51 -60 -79 -16 -27 -29 -45 -29
-40 0 12 91 175 121 218 11 15 15 27 10 27 -6 0 -16 -10 -22 -22 -34 -65 -173
-248 -188 -248 -10 0 -51 12 -91 26 -41 14 -105 28 -142 31 -38 3 -71 9 -73
13 -2 4 29 24 69 44 55 27 98 60 167 127 52 50 65 65 29 34 l-64 -58 -54 59
c-30 32 -78 91 -109 131 l-54 71 10 58 c14 74 15 314 1 314 -5 0 -10 -18 -10
-39 0 -22 -16 -80 -36 -131 l-37 -91 -29 43 c-68 100 -67 94 -55 296 6 100 11
182 12 182 1 0 31 -48 66 -106z m-290 -19 c5 -37 21 -107 35 -157 14 -49 26
-104 25 -121 -1 -39 -66 -244 -73 -231 -18 30 -19 598 -1 580 2 -2 8 -34 14
-71z m-128 -140 c-7 -155 6 -221 63 -340 31 -65 42 -105 29 -105 -38 0 -119
83 -147 151 -18 42 -19 55 -9 125 15 112 57 304 67 304 1 0 0 -61 -3 -135z
m2491 -15 c27 0 18 -16 -33 -63 -56 -50 -155 -111 -215 -133 -68 -25 -129 -44
-132 -41 -2 2 15 37 36 79 38 71 45 79 111 117 39 23 74 41 77 41 4 0 22 16
40 34 l33 33 33 -33 c19 -19 41 -34 50 -34z m-380 -179 c-21 -28 -42 -51 -46
-51 -4 0 -8 15 -8 34 0 29 6 37 43 59 23 14 43 22 45 17 2 -5 -14 -32 -34 -59z
m-1619 -37 c-6 -36 -19 -44 -29 -19 -6 16 -5 20 15 70 12 29 13 29 17 6 2 -13
1 -39 -3 -57z m1245 -249 c0 -2 -20 -19 -44 -38 -97 -74 -192 -217 -232 -352
-10 -33 -21 -64 -25 -69 -5 -5 -33 2 -67 17 -32 15 -83 33 -113 40 l-54 14
-27 99 c-35 127 -35 134 0 134 67 0 415 95 517 141 45 21 45 21 45 14z m-1463
-121 c-9 -10 -117 -33 -116 -26 0 4 19 22 41 40 l41 33 21 -20 c11 -11 17 -23
13 -27z m873 -88 c0 -3 -4 -8 -10 -11 -5 -3 -10 -1 -10 4 0 6 5 11 10 11 6 0
10 -2 10 -4z m-485 -633 c3 -21 8 -47 10 -58 5 -23 -65 -165 -81 -165 -6 0
-19 9 -29 20 -24 27 -44 25 -161 -9 -97 -29 -113 -29 -114 4 0 23 120 126 200
172 151 87 166 90 175 36z m-1528 -105 c-3 -8 -6 -5 -6 6 -1 11 2 17 5 13 3
-3 4 -12 1 -19z m10 -50 c-3 -7 -5 -2 -5 12 0 14 2 19 5 13 2 -7 2 -19 0 -25z
m10 -50 c-3 -7 -5 -2 -5 12 0 14 2 19 5 13 2 -7 2 -19 0 -25z m1393 -152 c0
-46 2 -46 -256 -46 -134 0 -244 4 -244 9 0 17 32 35 73 42 23 3 129 7 235 8
160 1 192 -1 192 -13z m903 -117 c171 -43 255 -68 305 -90 38 -18 42 -23 42
-55 0 -24 -4 -34 -12 -32 -57 16 -289 92 -313 102 -16 7 -68 21 -115 31 -47
10 -86 19 -88 21 -8 6 32 54 45 54 8 0 69 -14 136 -31z m-2296 -201 c-3 -8 -6
-5 -6 6 -1 11 2 17 5 13 3 -3 4 -12 1 -19z m653 -163 c-13 -14 -26 -22 -29
-19 -3 3 5 14 18 25 33 27 39 24 11 -6z m23 -750 c-18 -25 -40 -35 -27 -12 14
24 27 37 36 37 5 0 1 -11 -9 -25z m130 -859 c-10 -13 -20 -20 -21 -15 -5 12
17 39 30 39 5 0 1 -11 -9 -24z m50 -811 c-17 -23 -33 -32 -33 -18 0 10 32 43
42 43 5 0 1 -11 -9 -25z m87 -145 c0 -5 -5 -10 -11 -10 -5 0 -7 5 -4 10 3 6 8
10 11 10 2 0 4 -4 4 -10z"/>
<path d="M6245 7660 c-38 -61 -120 -235 -151 -322 -25 -71 -65 -220 -74 -272
-4 -27 -3 -87 2 -134 10 -88 4 -143 -38 -395 -11 -67 -13 -128 -8 -245 8 -203
21 -267 20 -102 -2 223 34 496 72 562 14 24 15 35 3 85 -24 103 -25 209 -1
293 11 41 34 125 51 185 16 61 38 128 48 150 10 22 31 69 46 105 15 36 33 72
39 80 14 17 28 50 21 50 -3 0 -16 -18 -30 -40z"/>
<path d="M8440 7683 c0 -16 -4 -21 -16 -16 -13 5 -14 2 -6 -13 38 -70 89 -245
77 -264 -3 -5 -17 -10 -30 -10 -13 0 -27 -5 -30 -11 -4 -6 -17 -14 -29 -19
-21 -9 -21 -9 2 -9 14 -1 26 -10 31 -23 8 -20 4 -25 -28 -39 l-36 -16 81 4
c78 3 82 2 88 -19 11 -42 7 -47 -41 -51 l-48 -3 51 -2 c53 -2 64 -11 64 -52 0
-12 -13 -21 -47 -30 -27 -7 -53 -17 -60 -22 -6 -5 -47 -16 -90 -23 -159 -29
-184 -35 -178 -46 4 -5 -1 -6 -9 -3 -19 7 -19 6 -5 -35 9 -25 16 -31 40 -31
17 0 42 6 57 13 15 8 63 21 107 30 75 15 99 17 183 21 31 1 32 2 32 44 0 23
-4 50 -9 60 -5 9 -22 71 -36 137 -15 66 -32 128 -37 138 -5 10 -13 39 -18 65
-27 157 -58 273 -60 225z m-10 -644 c0 -11 -4 -17 -10 -14 -5 3 -10 13 -10 21
0 8 5 14 10 14 6 0 10 -9 10 -21z"/>
<path d="M5759 7663 c-13 -16 -12 -17 4 -4 9 7 17 15 17 17 0 8 -8 3 -21 -13z"/>
<path d="M8800 7675 c1 -6 10 -26 21 -45 15 -26 18 -29 13 -10 -7 27 -34 71
-34 55z"/>
<path d="M8627 7635 c9 -19 18 -33 21 -31 4 5 -26 66 -33 66 -3 0 3 -16 12
-35z"/>
<path d="M5966 7617 c-20 -24 -42 -61 -51 -83 -8 -22 -10 -31 -2 -20 6 11 24
33 38 50 26 31 63 96 55 96 -3 0 -21 -19 -40 -43z"/>
<path d="M1175 7600 c-4 -17 -5 -34 -2 -36 2 -3 7 10 11 27 8 42 0 50 -9 9z"/>
<path d="M7571 7564 c0 -11 3 -14 6 -6 3 7 2 16 -1 19 -3 4 -6 -2 -5 -13z"/>
<path d="M8043 7555 c8 -16 31 -79 52 -140 21 -60 42 -115 47 -121 4 -6 5 -25
2 -42 -6 -28 -3 -33 21 -42 21 -8 32 -7 44 3 9 8 43 20 76 28 43 10 53 15 35
17 -52 8 -65 37 -24 53 43 16 23 19 -50 8 -37 -6 -69 -9 -70 -7 -2 1 -28 55
-58 118 -31 63 -63 124 -72 135 -16 19 -16 18 -3 -10z"/>
<path d="M5449 7483 c-13 -16 -12 -17 4 -4 9 7 17 15 17 17 0 8 -8 3 -21 -13z"/>
<path d="M3010 7468 c12 -28 87 -302 93 -343 3 -16 3 7 1 53 -3 45 -3 82 0 82
3 0 33 -54 66 -119 49 -100 80 -148 80 -128 0 54 -213 477 -240 477 -6 0 -6
-9 0 -22z"/>
<path d="M9460 7489 c0 -4 7 -22 15 -40 8 -19 14 -27 14 -19 0 14 -28 72 -29
59z"/>
<path d="M8900 7465 c0 -5 5 -17 10 -25 5 -8 10 -10 10 -5 0 6 -5 17 -10 25
-5 8 -10 11 -10 5z"/>
<path d="M8637 7431 c-8 -37 -2 -50 13 -35 5 5 6 22 2 39 l-8 30 -7 -34z"/>
<path d="M3596 7423 c10 -16 36 -56 57 -87 21 -31 83 -138 139 -238 l102 -181
-12 -156 c-7 -86 -21 -212 -32 -281 -23 -137 -23 -187 -1 -135 33 76 70 310
71 443 0 34 4 62 9 62 5 0 48 -70 97 -155 48 -85 90 -153 91 -151 6 6 -76 186
-137 301 l-58 110 -5 115 c-7 120 -33 294 -48 320 -6 10 -8 4 -4 -20 9 -65 27
-341 23 -346 -3 -2 -29 35 -58 83 -57 93 -226 329 -244 340 -5 4 -1 -7 10 -24z"/>
<path d="M8892 7397 l28 -23 -27 -27 -27 -27 29 -30 29 -30 -39 -40 c-22 -22
-34 -40 -28 -40 15 0 73 61 73 77 0 7 -9 22 -20 33 -25 25 -25 32 -1 54 23 21
25 17 41 -56 8 -36 18 -58 27 -58 18 0 17 11 -13 88 -22 56 -32 70 -63 85
l-36 17 27 -23z"/>
<path d="M5353 7373 c-36 -46 -53 -78 -24 -43 34 40 63 80 58 80 -3 0 -18 -17
-34 -37z"/>
<path d="M7568 7394 c-5 -4 -8 -53 -8 -108 0 -90 -6 -170 -25 -329 -4 -33 -2
-47 5 -42 5 3 10 15 10 25 0 10 6 25 14 33 8 8 11 18 7 23 -4 5 -3 34 2 64
l10 55 20 -64 c15 -48 17 -65 7 -71 -9 -5 -8 -9 3 -13 9 -3 22 -36 32 -81 9
-42 19 -76 22 -76 9 0 -7 153 -17 165 -4 5 -16 48 -25 95 -10 46 -22 96 -27
110 -6 14 -13 69 -17 123 -3 55 -9 95 -13 91z"/>
<path d="M5907 7343 c-22 -43 -95 -306 -112 -408 -27 -152 -47 -580 -31 -652
4 -18 12 -33 18 -33 6 0 8 6 5 13 -5 12 28 206 36 214 3 2 14 -45 27 -104 12
-59 37 -157 55 -218 51 -172 56 -198 45 -236 -6 -19 -10 -44 -10 -56 0 -27 20
-31 21 -5 0 9 7 -5 14 -31 13 -49 21 -64 29 -56 2 2 -2 37 -10 78 -8 40 -11
78 -7 84 3 5 16 -10 29 -34 13 -24 23 -40 24 -35 0 4 -12 31 -26 60 -43 85
-63 145 -94 281 -45 196 -52 263 -51 470 1 249 6 352 20 454 7 46 14 100 16
120 3 20 9 54 14 76 12 49 7 56 -12 18z"/>
<path d="M2237 7263 c-25 -88 -58 -245 -54 -250 3 -2 13 26 22 62 10 36 21 68
25 70 4 2 10 -40 13 -93 4 -54 10 -119 13 -144 6 -45 6 -46 -30 -63 -47 -22
-46 -28 4 -20 37 6 40 5 41 -17 1 -18 3 -16 9 9 4 17 4 69 -1 115 -4 46 -8
152 -8 236 -1 83 -5 152 -10 152 -4 0 -16 -26 -24 -57z"/>
<path d="M3324 7295 c15 -60 74 -216 78 -205 2 7 32 -32 66 -86 34 -54 62 -96
62 -92 0 28 -149 321 -193 379 -16 21 -17 21 -13 4z"/>
<path d="M7342 7275 c0 -16 2 -22 5 -12 2 9 2 23 0 30 -3 6 -5 -1 -5 -18z"/>
<path d="M1102 7260 c0 -14 2 -19 5 -12 2 6 2 18 0 25 -3 6 -5 1 -5 -13z"/>
<path d="M7321 7058 c-13 -131 -55 -325 -91 -423 -12 -33 -51 -127 -87 -208
-36 -81 -63 -150 -61 -153 19 -18 248 563 248 627 0 17 3 20 11 12 7 -7 10
-72 7 -197 -1 -102 0 -186 5 -186 8 0 9 51 8 372 0 169 -3 234 -13 253 -13 23
-15 15 -27 -97z"/>
<path d="M8785 7164 c-50 -11 -50 -11 -22 -23 16 -6 36 -11 45 -11 17 0 54
-20 38 -20 -4 0 8 -18 28 -40 20 -22 36 -45 36 -50 0 -6 6 -9 13 -7 7 1 13
-11 14 -33 l1 -35 -8 30 -8 30 -1 -27 c-1 -22 -6 -28 -24 -28 -13 0 -32 -6
-43 -14 -16 -12 -17 -18 -8 -45 12 -30 11 -30 -25 -34 -29 -3 -26 -4 15 -5 59
-2 78 17 41 43 l-21 15 27 0 c15 0 27 4 27 9 0 4 -11 7 -25 6 -14 -2 -23 1
-19 6 3 5 17 7 32 4 55 -10 68 40 28 103 -13 20 -33 46 -45 56 -25 23 -29 61
-5 52 9 -3 12 -2 9 5 -4 6 -13 8 -21 5 -7 -3 -17 0 -21 7 -6 10 -19 10 -58 1z
m101 -86 l29 -33 -32 29 c-31 28 -38 36 -30 36 2 0 16 -15 33 -32z"/>
<path d="M8980 7164 c0 -11 5 -25 11 -31 7 -7 3 -10 -16 -8 -22 3 -24 1 -14
-11 6 -8 16 -14 22 -14 6 0 26 -15 45 -32 l33 -33 -15 30 c-9 17 -16 35 -16
41 0 5 -11 25 -25 44 -20 28 -25 30 -25 14z"/>
<path d="M7917 7086 c-4 -27 -8 -79 -8 -115 -2 -79 -11 -131 -22 -114 -7 12
-48 32 -151 77 -91 40 -80 31 33 -29 133 -70 134 -71 127 -114 -5 -35 -4 -35
7 -8 6 15 16 27 22 27 23 0 72 -57 79 -93 4 -20 14 -51 22 -69 l15 -33 -6 40
c-4 22 -9 50 -12 63 -3 12 -1 22 4 22 11 0 146 -114 177 -149 18 -20 18 -27 7
-120 -6 -54 -23 -139 -36 -187 -13 -49 -22 -91 -20 -92 2 -2 15 31 28 75 17
52 28 72 32 61 4 -9 5 -79 3 -156 -2 -77 0 -138 3 -136 4 2 9 50 13 106 10
140 10 153 7 233 -5 106 -2 165 7 165 5 0 30 -29 57 -65 26 -36 50 -65 52 -65
3 0 3 14 -1 31 -3 17 -28 56 -56 86 l-50 55 0 154 c0 85 -4 154 -8 154 -5 0
-15 -11 -22 -25 -10 -18 -11 -51 -7 -122 3 -54 9 -106 13 -116 11 -31 -14 -18
-78 39 -35 31 -80 68 -100 83 -34 24 -39 34 -58 116 -11 50 -30 122 -40 160
-11 39 -21 79 -23 90 -2 11 -6 -2 -10 -29z m45 -222 c10 -31 17 -58 16 -60 -2
-2 -16 7 -31 19 -23 20 -26 27 -20 65 3 23 8 40 11 37 3 -2 14 -30 24 -61z"/>
<path d="M1992 7029 c-24 -92 -24 -108 -1 -61 12 26 19 57 17 79 -3 36 -3 35
-16 -18z"/>
<path d="M1072 7030 c0 -19 2 -27 5 -17 2 9 2 25 0 35 -3 9 -5 1 -5 -18z"/>
<path d="M301 7004 c0 -11 3 -14 6 -6 3 7 2 16 -1 19 -3 4 -6 -2 -5 -13z"/>
<path d="M9281 6981 c-19 -12 -9 -66 40 -220 64 -198 179 -402 298 -533 34
-36 61 -71 61 -76 0 -5 21 -24 48 -40 26 -17 62 -47 80 -66 37 -40 208 -161
177 -126 -11 13 -45 41 -76 64 -31 23 -87 70 -126 106 -71 65 -71 65 -82 135
-5 39 -15 176 -21 305 -11 250 -15 299 -26 309 -4 3 -3 -46 1 -109 4 -63 9
-194 11 -290 2 -96 6 -190 9 -207 3 -18 2 -33 -2 -33 -9 0 -116 143 -161 215
-37 61 -92 175 -92 193 0 7 -7 26 -15 42 -8 16 -22 53 -30 82 -8 29 -22 73
-31 98 -9 25 -24 71 -33 102 -12 44 -19 55 -30 49z"/>
<path d="M1517 6935 c-36 -53 -118 -263 -172 -439 -23 -77 -47 -141 -51 -141
-5 0 -33 60 -62 134 -51 127 -77 213 -102 344 -17 87 -34 73 -27 -22 10 -124
66 -320 136 -474 17 -38 31 -77 31 -88 0 -10 -11 -53 -25 -96 -29 -88 -65
-324 -65 -422 0 -74 8 -77 16 -5 9 84 109 454 123 454 4 0 12 -10 18 -22 36
-79 282 -357 291 -330 2 6 -37 63 -86 126 -109 139 -202 287 -202 320 0 49
184 654 203 667 5 4 7 13 5 20 -3 8 -15 -2 -31 -26z"/>
<path d="M6976 6808 c-5 -86 -5 -170 -1 -185 7 -27 8 -27 17 -7 7 14 7 79 1
185 l-9 164 -8 -157z"/>
<path d="M9100 6939 c0 -27 -14 -36 -79 -54 -16 -5 -20 -10 -12 -18 12 -12 74
3 105 26 17 13 17 16 3 43 l-16 29 -1 -26z"/>
<path d="M3120 6940 c0 -5 5 -10 11 -10 5 0 7 5 4 10 -3 6 -8 10 -11 10 -2 0
-4 -4 -4 -10z"/>
<path d="M3255 6920 c-17 -6 -15 -8 10 -13 35 -6 40 -4 23 10 -7 6 -22 7 -33
3z"/>
<path d="M6727 6914 c-12 -21 -20 -364 -9 -417 6 -29 18 -89 27 -134 19 -97
44 -187 51 -180 3 3 -4 40 -15 83 -37 148 -64 424 -41 424 6 0 10 -12 10 -27
0 -52 39 -189 80 -283 55 -129 68 -136 19 -11 -22 56 -46 133 -54 169 -7 37
-20 102 -29 145 -9 43 -16 106 -17 140 0 64 -11 108 -22 91z"/>
<path d="M7525 6869 c-28 -123 -35 -157 -34 -174 0 -20 0 -20 9 0 13 33 42
186 36 192 -3 3 -7 -5 -11 -18z"/>
<path d="M3410 6870 c0 -6 7 -13 15 -17 24 -9 27 1 5 15 -13 8 -20 8 -20 2z"/>
<path d="M8745 6870 c-4 -6 11 -7 42 -3 63 8 67 13 10 13 -25 0 -49 -4 -52
-10z"/>
<path d="M9021 6834 c0 -11 3 -14 6 -6 3 7 2 16 -1 19 -3 4 -6 -2 -5 -13z"/>
<path d="M3495 6832 c42 -36 97 -73 102 -68 10 10 -21 37 -69 58 -23 10 -38
15 -33 10z"/>
<path d="M2144 6810 c-12 -5 -25 -14 -29 -20 -6 -10 50 13 64 26 7 7 -13 3
-35 -6z"/>
<path d="M258 6728 c-4 -9 -9 -106 -12 -215 l-5 -198 15 195 c14 200 15 250 2
218z"/>
<path d="M1942 6709 c-29 -17 -57 -39 -62 -50 -6 -10 -9 -19 -6 -19 12 0 130
78 134 88 6 18 -9 14 -66 -19z"/>
<path d="M8565 6708 c-3 -18 -12 -87 -20 -153 -8 -66 -22 -158 -29 -205 -8
-47 -18 -104 -22 -128 -4 -23 -11 -45 -15 -48 -5 -3 -9 -13 -9 -22 1 -13 4
-11 14 7 12 22 14 23 23 6 21 -37 44 126 68 488 6 87 1 116 -10 55z"/>
<path d="M3032 6690 c-4 -82 -32 -253 -53 -328 -22 -80 -19 -108 6 -49 8 21
18 37 21 37 4 0 3 -28 0 -62 -5 -46 -4 -60 4 -52 16 16 31 221 28 369 -2 72
-5 110 -6 85z"/>
<path d="M2472 6555 c0 -181 15 -272 18 -110 1 107 0 107 38 15 24 -57 11 19
-22 135 l-35 120 1 -160z"/>
<path d="M3715 6605 c2 -44 8 -100 13 -125 l9 -45 1 55 c0 30 -5 87 -13 125
l-14 70 4 -80z"/>
<path d="M7685 6630 c3 -30 8 -94 12 -141 l6 -86 -79 -5 c-44 -2 -88 -10 -99
-17 -18 -11 -16 -12 14 -7 18 3 66 6 106 6 72 0 73 0 73 28 2 53 -20 247 -30
262 -6 10 -7 -3 -3 -40z"/>
<path d="M1716 6653 c-3 -10 -10 -52 -16 -93 -6 -41 -18 -110 -26 -153 -9 -42
-13 -85 -11 -95 3 -11 5 -9 6 8 1 14 8 36 15 50 l14 25 7 -40 c10 -59 26 -118
30 -113 2 2 0 55 -5 117 -4 63 -5 158 -3 213 6 92 1 121 -11 81z"/>
<path d="M7481 6654 c0 -11 3 -14 6 -6 3 7 2 16 -1 19 -3 4 -6 -2 -5 -13z"/>
<path d="M8750 6633 c0 -26 37 -60 50 -47 7 7 0 20 -20 39 -27 26 -30 27 -30
8z"/>
<path d="M6408 6613 c12 -2 32 -2 45 0 12 2 2 4 -23 4 -25 0 -35 -2 -22 -4z"/>
<path d="M8905 6609 c-4 -6 -5 -12 -2 -15 2 -3 7 2 10 11 7 17 1 20 -8 4z"/>
<path d="M6118 6573 c5 -21 7 -23 10 -9 2 10 0 22 -6 28 -6 6 -7 0 -4 -19z"/>
<path d="M6280 6549 c-106 -48 -190 -130 -231 -225 -26 -63 -24 -84 17 -161
47 -90 71 -116 49 -54 -45 129 18 281 139 337 28 13 59 24 69 24 15 0 15 -2
-4 -21 -77 -77 -112 -308 -61 -404 16 -28 17 -29 20 -7 2 12 8 22 14 22 6 0 4
8 -5 18 -18 20 -23 72 -7 72 6 0 10 -7 10 -15 0 -8 7 -15 15 -15 8 0 15 -7 15
-15 0 -19 9 -19 31 1 15 14 19 13 45 -11 41 -38 68 -41 109 -14 19 13 35 27
35 31 0 7 26 -11 57 -41 17 -16 14 -24 -31 -95 -48 -75 -83 -92 -153 -76 -41
9 -59 19 -79 46 -30 39 -53 47 -28 9 9 -13 13 -33 9 -44 -5 -17 1 -21 47 -29
114 -22 138 -23 138 -7 0 8 4 15 9 15 29 0 117 110 109 137 -1 5 4 19 12 33
16 27 21 161 7 194 -7 17 -9 18 -25 2 -38 -34 -95 -4 -90 47 3 35 -14 44 -92
46 -33 1 -53 9 -75 28 l-29 26 29 24 c57 49 166 13 221 -75 22 -34 30 -40 41
-31 11 9 17 8 28 -7 14 -18 15 -17 9 10 -5 21 -4 27 5 22 21 -13 11 6 -34 70
-98 136 -227 186 -345 133z m190 -249 c0 -27 -19 -35 -38 -17 -12 13 -13 19
-3 31 16 19 41 10 41 -14z"/>
<path d="M6125 6530 c3 -5 8 -10 11 -10 2 0 4 5 4 10 0 6 -5 10 -11 10 -5 0
-7 -4 -4 -10z"/>
<path d="M8050 6510 c0 -11 4 -20 9 -20 5 0 7 9 4 20 -3 11 -7 20 -9 20 -2 0
-4 -9 -4 -20z"/>
<path d="M7426 6484 c-4 -14 -5 -28 -3 -31 3 -2 8 8 11 23 4 14 5 28 3 31 -3
2 -8 -8 -11 -23z"/>
<path d="M3357 6468 c-87 -18 -180 -85 -209 -150 -22 -48 -32 -103 -24 -124 5
-13 11 -10 29 17 29 44 54 49 63 13 9 -36 -6 -58 -43 -62 -27 -3 -31 -7 -36
-44 -6 -46 11 -158 24 -158 4 0 6 -7 3 -15 -4 -8 -1 -15 6 -15 6 0 9 -4 6 -8
-2 -4 4 -19 15 -32 l19 -25 0 23 c0 12 -6 38 -14 57 -14 33 -14 36 7 50 15 11
35 13 72 9 44 -5 53 -3 78 19 20 19 27 36 27 62 0 28 4 35 19 35 24 0 39 -19
47 -59 7 -31 6 -32 -22 -26 -23 4 -25 4 -9 -4 11 -5 29 -12 39 -15 15 -5 17
-9 8 -18 -14 -14 -16 -58 -2 -58 10 0 14 12 29 107 17 108 -13 244 -70 316
-28 35 -29 37 -9 37 52 0 151 -76 187 -143 10 -20 18 -59 19 -105 2 -39 6 -73
11 -75 14 -4 42 87 42 139 1 65 -37 127 -111 182 -88 65 -139 84 -201 70z m20
-96 c7 -4 10 -17 6 -30 -4 -19 -12 -22 -50 -22 -33 0 -57 -8 -89 -30 -24 -16
-44 -26 -44 -22 0 5 14 27 31 50 37 50 110 77 146 54z m-87 -152 c0 -5 -5 -10
-11 -10 -5 0 -7 5 -4 10 3 6 8 10 11 10 2 0 4 -4 4 -10z m23 -111 c14 -22 2
-49 -22 -49 -26 0 -34 15 -27 46 7 28 32 29 49 3z m-89 -76 c-5 -5 -12 -12
-16 -18 -4 -6 -8 -2 -8 8 0 9 7 17 17 17 9 0 12 -3 7 -7z"/>
<path d="M540 6468 c0 -3 -11 -50 -25 -104 -35 -135 -98 -310 -154 -424 l-46
-95 -6 85 c-6 80 -48 334 -55 327 -2 -1 2 -61 8 -132 19 -208 17 -372 -5 -420
l-19 -40 29 27 c50 48 202 445 263 687 12 46 19 86 16 89 -4 3 -6 3 -6 0z"/>
<path d="M3731 6414 c0 -11 3 -14 6 -6 3 7 2 16 -1 19 -3 4 -6 -2 -5 -13z"/>
<path d="M7767 6393 c-14 -14 -5 -21 53 -42 68 -25 199 -109 230 -148 21 -26
35 -27 25 -2 -8 22 -168 131 -232 159 -32 13 -61 28 -64 32 -3 5 -8 5 -12 1z"/>
<path d="M9320 6349 c7 -13 44 -76 83 -139 182 -298 244 -435 292 -641 15 -68
15 -61 -6 106 -10 72 -5 218 7 250 3 7 -13 26 -35 41 -22 16 -41 34 -41 40 0
6 -35 44 -77 85 -43 41 -109 118 -147 172 -67 95 -100 133 -76 86z"/>
<path d="M7521 6310 c-25 -14 -47 -34 -49 -44 -3 -14 0 -17 12 -13 12 5 16 0
16 -23 0 -17 2 -30 5 -30 3 0 27 11 53 24 53 27 115 42 131 31 7 -4 -11 -26
-42 -55 -76 -69 -117 -151 -124 -245 -3 -42 -2 -75 3 -75 30 1 53 15 56 34 2
16 9 20 28 18 14 -1 30 4 36 13 10 14 15 11 30 -21 40 -81 116 -101 166 -46
15 18 28 39 28 48 0 13 2 14 14 1 28 -27 56 -82 56 -109 0 -34 -18 -52 -93
-90 -52 -26 -69 -30 -112 -25 -77 8 -120 30 -150 76 -32 51 -52 54 -27 4 11
-21 17 -43 15 -49 -4 -13 50 -35 139 -58 l58 -14 68 34 c100 50 155 114 181
210 16 58 8 75 -31 63 -43 -12 -82 8 -86 44 -2 16 2 35 8 42 10 12 4 18 -36
36 -27 12 -80 26 -119 33 -123 20 -137 51 -42 90 l46 19 65 -32 c86 -42 119
-71 152 -132 31 -57 46 -63 38 -16 l-5 32 24 -29 c27 -31 32 -28 42 27 5 26 3
44 -8 61 -21 31 -136 108 -218 144 -106 48 -106 48 -123 10 l-15 -33 5 35 5
35 -76 0 c-63 0 -86 -5 -124 -25z m304 -250 c0 -8 -8 -16 -17 -18 -13 -2 -18
3 -18 18 0 15 5 20 18 18 9 -2 17 -10 17 -18z m-248 -127 c-16 -16 -17 -16
-17 3 0 11 3 24 7 27 4 4 11 3 17 -3 7 -7 5 -16 -7 -27z m198 -21 c-3 -3 -11
0 -18 7 -9 10 -8 11 6 5 10 -3 15 -9 12 -12z"/>
<path d="M9299 6298 c-6 -121 11 -241 56 -402 51 -181 77 -252 139 -378 114
-233 273 -432 399 -498 34 -18 72 -42 85 -53 l22 -20 0 90 0 90 -59 17 c-104
29 -131 66 -191 255 -24 73 -36 99 -40 86 -6 -16 -12 -11 -35 30 -16 28 -45
75 -66 105 -41 63 -98 173 -141 275 -35 82 -126 333 -140 388 -12 41 -27 49
-29 15z"/>
<path d="M4233 6275 c0 -22 2 -30 4 -17 2 12 2 30 0 40 -3 9 -5 -1 -4 -23z"/>
<path d="M2045 6280 c-8 -13 5 -13 25 0 13 8 13 10 -2 10 -9 0 -20 -4 -23 -10z"/>
<path d="M2125 6253 c-27 -2 -54 -8 -59 -14 -6 -5 -19 -9 -29 -9 -38 0 -144
-60 -217 -123 -54 -46 -83 -80 -103 -120 -16 -31 -32 -59 -36 -62 -5 -2 -14
51 -20 118 -7 67 -15 124 -18 127 -2 3 -3 -69 -1 -160 3 -165 3 -165 47 -292
25 -71 46 -126 49 -124 2 3 -3 26 -12 52 -22 64 -20 71 9 44 14 -13 27 -21 30
-19 2 3 -3 25 -11 49 -11 32 -14 65 -11 111 6 77 33 152 46 130 7 -11 13 -7
25 15 43 75 55 91 92 111 43 25 137 48 160 39 11 -4 12 -10 2 -31 -6 -14 -14
-25 -17 -26 -3 0 -28 -2 -55 -5 -52 -3 -157 -50 -164 -71 -2 -7 7 -17 20 -22
39 -15 53 -38 40 -66 -18 -38 -55 -52 -87 -31 -25 16 -25 16 -25 -11 0 -46 17
-91 55 -149 39 -59 77 -91 143 -119 38 -16 51 -17 97 -8 29 6 75 21 103 33 39
17 51 27 54 48 3 15 7 32 9 39 2 6 0 11 -6 12 -5 0 -13 -11 -17 -25 -10 -37
-25 -51 -66 -65 -20 -6 -51 -18 -68 -26 -61 -28 -164 26 -176 92 -6 32 36 67
70 58 35 -9 89 6 114 32 23 25 56 25 86 2 7 -5 15 -8 17 -5 5 5 -25 22 -57 32
-14 4 -18 17 -18 56 0 46 2 50 23 46 12 -3 28 -5 35 -5 18 -1 50 -58 57 -103
13 -77 35 -32 31 62 -6 117 -82 228 -182 266 -24 9 -41 20 -39 25 3 4 30 11
61 15 62 7 158 -13 213 -47 40 -24 41 -24 41 6 0 17 6 25 18 25 9 0 -7 15 -36
33 -95 57 -117 67 -142 65 -14 -1 -47 -3 -75 -5z m-135 -308 c0 -8 -4 -15 -9
-15 -13 0 -22 16 -14 24 11 11 23 6 23 -9z m54 -81 c7 -19 -10 -44 -31 -44
-17 0 -27 24 -19 45 7 20 42 19 50 -1z m-109 -84 c18 -20 18 -21 -3 -27 -12
-3 -22 -9 -22 -14 0 -5 -4 -9 -10 -9 -11 0 -13 30 -4 54 8 21 17 20 39 -4z"/>
<path d="M7054 6236 c-3 -9 -12 -16 -19 -16 -8 0 -11 -8 -8 -21 5 -19 7 -19
26 11 11 17 17 34 13 37 -3 3 -8 -2 -12 -11z"/>
<path d="M9117 5933 c-6 -332 -7 -339 -73 -570 -40 -140 -112 -336 -126 -341
-4 -2 -8 -10 -8 -18 0 -19 -105 -129 -151 -159 -20 -13 -74 -33 -120 -44 -46
-12 -129 -34 -184 -51 -54 -16 -101 -28 -102 -26 -2 2 29 18 69 36 40 17 100
48 133 68 82 49 223 194 274 280 66 113 50 107 -34 -13 -91 -131 -196 -225
-320 -287 -60 -30 -106 -42 -245 -63 -171 -26 -253 -59 -547 -217 -134 -72
-191 -126 -268 -253 -80 -130 -98 -193 -99 -340 -1 -117 0 -122 32 -185 33
-64 136 -177 157 -171 6 1 5 -3 -1 -9 -9 -9 -32 -2 -96 29 -66 31 -98 54 -145
105 -69 73 -93 126 -120 262 -19 97 -23 97 -69 -2 -71 -152 -45 -288 77 -398
l51 -46 37 22 c20 11 48 33 64 47 l27 25 23 -23 22 -22 -25 -22 c-14 -12 -37
-29 -50 -38 -14 -9 -22 -20 -19 -23 7 -8 170 -36 206 -36 17 0 22 7 25 33 l3
32 92 -3 c53 -3 99 0 110 7 16 9 14 10 -12 11 -44 0 -149 43 -153 62 -4 22
139 268 231 396 119 168 282 340 416 441 l53 39 137 -1 c98 -1 141 2 151 11
36 31 132 92 145 92 20 0 128 148 151 206 10 27 47 105 82 173 34 68 56 118
47 111 -8 -7 -15 -9 -15 -5 0 9 40 66 56 80 23 21 64 144 84 255 27 153 49
243 62 255 7 7 9 -14 4 -70 -4 -44 -9 -150 -12 -235 l-6 -155 43 -65 c24 -36
52 -71 62 -78 10 -8 48 -40 85 -72 91 -78 221 -170 240 -170 9 0 29 -12 44
-27 18 -18 28 -22 28 -12 0 23 -10 32 -115 116 -56 44 -132 115 -170 158 -39
42 -92 100 -118 129 -46 49 -48 53 -43 96 17 135 18 441 2 595 -35 343 -43
385 -64 385 -5 0 -12 -137 -15 -307z m-1227 -1432 c17 -33 12 -39 -47 -51 -52
-11 -123 -39 -98 -39 6 0 46 9 90 20 44 11 91 23 105 26 19 5 -3 -23 -85 -108
-159 -166 -239 -283 -372 -546 -53 -104 -85 -146 -69 -90 21 73 28 139 16 166
-10 24 -9 35 5 62 33 62 106 170 147 217 66 74 78 94 20 33 -29 -31 -73 -85
-99 -121 -56 -79 -93 -120 -108 -120 -6 0 -22 14 -34 31 -27 36 -24 78 9 151
33 73 94 127 232 203 48 27 85 51 83 54 -3 3 -55 -21 -115 -52 -61 -32 -110
-52 -110 -46 0 20 133 145 180 169 52 27 161 58 207 59 22 1 36 -5 43 -18z
m135 -1 l30 -8 -32 -1 c-17 0 -37 -3 -45 -6 -7 -3 -22 1 -33 9 -19 15 -18 15
15 14 19 0 49 -4 65 -8z m204 -26 c3 -3 -2 -10 -12 -16 -11 -5 -49 -36 -87
-69 -220 -189 -394 -412 -551 -707 -53 -98 -52 -98 -104 -57 -19 15 -18 17 28
111 70 140 143 257 243 390 106 140 308 350 344 357 29 6 131 -1 139 -9z
m-652 -930 c-3 -3 -12 -4 -19 -1 -8 3 -5 6 6 6 11 1 17 -2 13 -5z"/>
<path d="M7704 4298 l-29 -33 33 29 c17 17 32 31 32 33 0 8 -8 1 -36 -29z"/>
<path d="M3772 6152 c-13 -31 -26 -70 -28 -87 l-5 -30 14 24 c14 23 15 23 24
5 6 -10 16 -40 23 -66 7 -26 16 -45 21 -42 14 8 11 60 -7 121 -10 34 -14 70
-10 94 9 56 -5 48 -32 -19z"/>
<path d="M6939 6173 c12 -23 26 -45 32 -48 13 -8 -12 41 -36 70 -11 14 -10 7
4 -22z"/>
<path d="M7046 6150 c11 -42 96 -190 110 -190 2 0 -12 26 -32 58 -21 31 -48
80 -61 107 -13 28 -20 39 -17 25z"/>
<path d="M8277 6111 c-9 -32 -19 -78 -22 -102 -5 -38 -3 -35 14 21 21 70 35
140 29 140 -3 0 -12 -26 -21 -59z"/>
<path d="M1795 6140 c-10 -11 -13 -20 -8 -20 13 0 38 29 31 35 -3 3 -13 -4
-23 -15z"/>
<path d="M8120 6136 c0 -3 14 -20 31 -38 29 -31 26 -14 -4 25 -13 16 -27 23
-27 13z"/>
<path d="M6810 6123 c0 -6 9 -21 21 -34 l20 -24 -17 30 c-24 39 -24 40 -24 28z"/>
<path d="M1740 6085 c-8 -9 -8 -15 -2 -15 12 0 26 19 19 26 -2 2 -10 -2 -17
-11z"/>
<path d="M8094 6075 c-4 -11 -14 -28 -22 -37 -11 -14 -12 -23 -4 -45 31 -78
33 -110 13 -170 -11 -32 -18 -59 -16 -61 8 -8 76 96 86 131 9 34 6 49 -19 120
-24 64 -32 78 -38 62z"/>
<path d="M4216 6005 c-16 -83 -38 -152 -68 -210 -19 -36 -25 -55 -15 -46 9 7
28 37 43 67 14 30 27 54 29 54 1 0 39 -45 84 -100 45 -55 84 -100 87 -100 6 0
-21 42 -67 105 -57 77 -71 113 -78 195 -7 71 -8 73 -15 35z"/>
<path d="M7050 6033 c0 -5 12 -20 28 -34 l27 -24 -25 30 c-14 17 -26 32 -27
34 -2 2 -3 0 -3 -6z"/>
<path d="M1094 5905 c3 -71 10 -152 18 -179 11 -43 11 -50 -2 -54 -33 -11 -88
-79 -100 -122 -18 -67 -8 -204 19 -265 24 -54 77 -114 127 -146 27 -16 33 -27
38 -72 4 -28 16 -88 26 -133 l19 -81 -34 -109 c-53 -168 -47 -200 9 -47 21 56
37 87 45 85 10 -2 12 5 7 23 -24 96 -45 225 -51 312 -4 57 -11 100 -16 97 -5
-3 -9 -18 -9 -35 0 -16 -4 -29 -9 -29 -25 0 -100 84 -127 142 -24 54 -28 76
-29 153 0 100 18 152 68 189 37 28 45 16 57 -85 5 -46 17 -122 25 -169 8 -47
17 -98 19 -115 2 -16 3 29 1 100 -2 98 -9 154 -28 230 -15 55 -33 167 -43 249
-22 200 -36 228 -30 61z"/>
<path d="M3737 6000 c-7 -30 -15 -107 -23 -220 -4 -67 -3 -82 6 -73 8 7 16 67
22 153 9 137 7 192 -5 140z"/>
<path d="M8198 5941 c-2 -23 -1 -41 3 -41 10 0 18 64 9 73 -4 5 -9 -10 -12
-32z"/>
<path d="M3972 5945 c0 -16 2 -22 5 -12 2 9 2 23 0 30 -3 6 -5 -1 -5 -18z"/>
<path d="M7160 5940 c0 -5 10 -15 23 -21 22 -12 22 -12 3 10 -21 23 -26 26
-26 11z"/>
<path d="M8226 5895 c-10 -25 -24 -52 -33 -60 -13 -14 -57 -145 -47 -145 8 0
72 138 88 189 20 67 15 77 -8 16z"/>
<path d="M3837 5913 c-7 -11 -2 -51 23 -197 18 -102 10 -172 -28 -247 -34 -68
-77 -127 -87 -118 -3 3 0 32 6 65 10 54 6 164 -8 222 -12 51 -18 14 -18 -115
0 -109 -4 -149 -19 -191 -49 -141 -333 -439 -522 -548 -27 -15 -76 -46 -109
-68 l-60 -41 -105 0 c-58 0 -161 3 -230 7 -140 9 -137 -5 3 -17 47 -4 91 -13
96 -19 6 -7 7 -43 2 -91 -8 -88 1 -169 22 -194 7 -9 26 -37 40 -63 29 -51 48
-69 40 -39 -6 24 34 104 50 98 14 -4 52 -99 60 -148 8 -54 -4 -66 -41 -40 -20
14 -32 17 -34 9 -5 -13 -84 30 -113 62 -25 28 -35 16 -35 -43 0 -29 -3 -83 -7
-121 l-6 -68 -44 -19 c-25 -10 -50 -19 -57 -19 -7 0 -42 18 -77 41 l-64 41 42
-44 43 -44 -48 -47 c-26 -26 -52 -47 -57 -47 -6 0 -20 17 -33 38 -38 62 -137
166 -150 158 -8 -5 -4 -14 14 -31 14 -13 29 -25 33 -27 10 -4 121 -145 121
-154 0 -10 -63 -79 -72 -79 -9 0 -108 155 -108 170 0 5 -16 30 -35 54 -19 24
-32 47 -30 52 6 9 -50 26 -114 33 -24 3 -80 23 -124 45 l-80 40 45 -47 c65
-68 149 -182 202 -276 51 -90 64 -78 15 14 -30 57 -30 58 -13 85 l18 28 20
-28 c12 -15 35 -41 51 -59 17 -17 49 -60 71 -96 34 -54 42 -76 46 -130 7 -82
25 -118 78 -155 38 -27 66 -67 91 -132 11 -30 14 -30 -119 10 -73 22 -84 23
-89 9 -4 -8 6 -65 20 -126 59 -242 69 -496 26 -631 -23 -72 -89 -201 -120
-234 -31 -33 -80 -51 -137 -51 -48 0 -256 53 -278 71 -8 7 -32 -25 -78 -106
-36 -63 -66 -118 -66 -121 0 -2 -40 -80 -90 -172 -50 -93 -90 -172 -90 -177 0
-9 40 60 159 272 76 137 84 145 112 110 11 -15 38 -45 60 -68 51 -53 74 -87
201 -299 111 -184 148 -252 148 -270 0 -6 -17 -37 -38 -68 -54 -81 -66 -133
-59 -253 3 -55 4 -99 2 -97 -18 18 -98 177 -136 272 -38 93 -48 111 -43 76 9
-58 60 -191 129 -337 45 -95 54 -123 49 -149 -8 -43 -82 -157 -97 -150 -131
56 -183 77 -231 92 -52 16 -60 23 -92 75 -61 102 -111 220 -161 384 -41 137
-48 171 -47 240 l1 80 -18 -40 c-10 -22 -24 -39 -30 -37 -8 2 -9 -6 -5 -24 16
-62 18 -86 12 -136 -4 -29 -11 -60 -16 -68 -15 -24 -68 11 -162 107 -46 47
-104 95 -130 109 -63 32 -70 30 -22 -5 49 -36 99 -89 92 -97 -3 -3 -22 -1 -42
4 -20 6 -36 9 -36 6 0 -2 49 -29 109 -59 61 -30 125 -68 144 -85 32 -28 35
-29 50 -12 8 9 18 31 22 47 4 17 9 36 11 44 3 8 25 -46 50 -119 45 -133 109
-271 158 -343 14 -21 26 -41 26 -44 0 -11 -77 5 -120 26 -24 11 -45 19 -48 17
-13 -14 111 -194 217 -316 145 -167 158 -178 287 -240 127 -61 160 -90 197
-171 24 -51 46 -151 53 -241 4 -43 11 -78 16 -78 6 0 7 31 3 78 -17 181 -54
280 -132 353 -27 26 -59 52 -71 58 -29 15 -28 22 14 112 l36 76 61 7 c117 12
424 -5 637 -35 237 -34 400 -55 483 -62 l58 -6 -3 107 c-3 99 -4 107 -23 107
-11 1 -49 10 -85 22 -147 47 -444 82 -780 90 l-226 6 93 183 c51 101 93 189
93 196 1 7 20 28 43 46 23 18 65 51 92 73 28 22 77 58 110 81 33 23 65 47 70
53 6 7 76 67 157 134 155 129 200 173 108 107 -30 -22 -84 -60 -120 -85 -36
-25 -108 -79 -160 -121 -125 -100 -268 -210 -272 -210 -2 0 -2 35 0 78 4 97
-9 150 -145 594 l-36 117 23 158 c17 116 33 186 61 263 21 58 41 117 44 132 4
15 12 29 18 31 7 3 47 30 90 61 43 31 87 56 98 56 19 0 127 -35 136 -44 3 -2
-12 -42 -32 -88 -59 -132 -107 -259 -102 -265 3 -2 38 -10 78 -17 71 -12 109
-10 274 14 39 6 100 12 137 14 l66 4 5 -37 c15 -107 10 -102 137 -139 63 -19
135 -39 159 -47 56 -17 69 -11 77 31 4 21 10 31 18 27 6 -4 -24 26 -66 66 -42
39 -80 81 -83 92 -4 10 -9 17 -13 15 -15 -9 -12 123 4 194 41 190 40 205 -15
219 -20 6 -54 12 -76 15 -33 5 -35 4 -15 -4 19 -7 13 -8 -25 -4 -27 3 -51 10
-53 14 -2 5 -10 6 -18 3 -8 -3 -14 0 -14 7 0 7 -6 10 -13 7 -7 -3 -19 4 -26
15 -7 11 -18 17 -27 14 -10 -4 -12 -2 -8 6 5 8 2 9 -9 5 -9 -3 -16 -3 -14 1 1
5 -39 43 -90 85 -146 123 -176 177 -133 242 23 34 26 50 8 39 -9 -5 -9 -3 1 9
7 9 16 15 20 12 10 -5 103 89 96 97 -3 3 3 11 12 19 16 13 17 12 4 -3 -20 -26
-5 -22 46 13 25 18 66 38 92 46 42 13 155 20 190 11 8 -2 24 16 38 43 23 43
23 49 10 75 -41 79 -60 170 -66 314 -3 80 -3 147 1 150 4 3 10 25 14 48 5 35
3 47 -13 65 -71 79 -189 297 -229 424 l-13 43 118 80 c64 43 138 98 164 120
50 45 46 45 104 -8 39 -36 39 -18 0 24 l-34 38 75 85 c41 47 102 125 135 174
34 48 64 87 68 87 7 0 39 -63 52 -100 3 -8 6 -2 6 14 1 16 -8 44 -20 62 -21
35 -19 54 7 54 8 0 13 4 10 8 -2 4 11 28 31 52 20 25 46 68 59 96 l24 51 -20
164 c-22 174 -32 220 -43 202z m-729 -1337 c18 -93 71 -268 106 -348 6 -13 4
-18 -9 -18 -13 0 -7 -9 19 -29 23 -18 44 -28 59 -25 12 2 16 1 8 -2 -8 -4 -26
-20 -39 -35 -13 -16 -30 -29 -37 -29 -7 0 -27 30 -44 68 -55 115 -65 135 -91
167 -14 18 -41 64 -59 103 -30 62 -41 75 -78 93 -56 27 -69 17 -15 -10 46 -23
66 -49 111 -141 18 -35 37 -71 44 -79 30 -36 -17 -1 -77 58 -40 38 -71 61 -80
58 -8 -3 -21 -28 -31 -56 -9 -28 -20 -53 -24 -56 -5 -2 -21 19 -37 48 -33 61
-41 147 -21 242 l12 60 94 3 c75 2 100 7 120 22 14 11 31 20 37 20 6 0 20 -50
32 -114z m171 -279 c28 -42 56 -77 61 -77 16 0 11 -40 -6 -47 -47 -18 -108 78
-173 273 -45 133 -37 144 18 28 26 -55 71 -135 100 -177z m38 -329 c-3 -8 -6
-5 -6 6 -1 11 2 17 5 13 3 -3 4 -12 1 -19z m0 -50 c-3 -7 -5 -2 -5 12 0 14 2
19 5 13 2 -7 2 -19 0 -25z m20 -334 c-3 -3 -12 -4 -19 -1 -8 3 -5 6 6 6 11 1
17 -2 13 -5z m-337 -127 c0 -2 -16 -19 -37 -38 l-36 -34 28 38 c23 30 45 48
45 34z m-377 -59 c18 -12 34 -23 36 -25 7 -5 -31 -43 -44 -43 -6 0 -17 17 -23
39 -19 61 -17 62 31 29z m230 -133 c-3 -9 -8 -14 -10 -11 -3 3 -2 9 2 15 9 16
15 13 8 -4z m31 -189 c-7 -18 -31 -22 -264 -42 -102 -9 -188 -18 -192 -21 -5
-2 -8 3 -8 11 0 20 11 22 230 45 240 24 241 24 234 7z m543 -278 c-3 -7 -5 -2
-5 12 0 14 2 19 5 13 2 -7 2 -19 0 -25z m-1523 -487 c59 -120 297 -585 302
-590 2 -2 7 -2 10 2 5 5 40 186 61 317 l9 55 13 -55 c7 -30 27 -98 44 -150 16
-52 48 -165 71 -250 38 -144 40 -160 32 -226 -7 -63 -12 -73 -33 -83 -22 -10
-28 -8 -47 11 -12 13 -27 35 -34 51 -17 40 -31 34 -21 -10 20 -89 14 -108 -53
-173 -35 -33 -58 -60 -52 -60 5 0 39 20 74 45 35 25 68 45 74 45 5 0 18 7 28
17 10 9 20 14 23 12 2 -3 -38 -85 -89 -184 -89 -170 -96 -180 -127 -187 -19
-4 -58 -12 -88 -18 -29 -6 -55 -9 -58 -6 -3 3 9 27 26 54 17 27 31 52 31 56 0
4 12 37 26 73 l26 66 -16 74 c-19 85 -20 162 -5 217 12 44 86 129 106 122 7
-3 13 -4 13 -3 0 8 -38 96 -48 112 -7 11 -54 90 -106 175 -51 85 -123 205
-160 265 -120 194 -119 192 -113 251 10 99 22 95 81 -25z m-113 -1533 l92 -52
-29 -23 c-16 -13 -34 -23 -41 -23 -6 0 -26 19 -44 43 -18 23 -46 57 -63 75
-16 17 -25 32 -18 32 7 0 53 -23 103 -52z m296 -145 c-13 -27 -27 -60 -31 -75
-7 -31 -19 -34 -55 -14 -13 7 -32 11 -42 9 -11 -3 -34 11 -64 38 l-46 42 33
14 c46 20 103 31 171 32 l57 1 -23 -47z"/>
<path d="M3417 5876 c-43 -65 -129 -85 -173 -41 -34 35 -38 31 -12 -10 24 -36
32 -38 113 -35 55 2 81 10 65 20 -10 6 -8 15 9 39 13 17 21 36 19 43 -2 6 -12
-1 -21 -16z"/>
<path d="M7210 5896 c0 -2 8 -10 18 -17 15 -13 16 -12 3 4 -13 16 -21 21 -21
13z"/>
<path d="M9750 5896 c0 -3 9 -10 20 -16 11 -6 20 -8 20 -6 0 3 -9 10 -20 16
-11 6 -20 8 -20 6z"/>
<path d="M520 5612 c-47 -91 -95 -181 -108 -200 -69 -103 -71 -110 -77 -342
-3 -118 -10 -253 -16 -300 -15 -129 -77 -461 -100 -536 -11 -36 -18 -68 -15
-72 11 -10 81 75 98 119 l18 44 -31 -35 c-28 -32 -30 -33 -25 -10 39 184 79
512 96 784 l10 169 65 131 c35 72 67 145 71 161 4 17 29 79 56 139 27 59 48
110 46 111 -2 2 -41 -72 -88 -163z"/>
<path d="M4194 5730 c3 -8 30 -76 60 -150 42 -103 55 -127 56 -102 0 18 -4 40
-10 50 -5 9 -23 52 -41 95 -17 42 -40 87 -51 100 -11 12 -17 15 -14 7z"/>
<path d="M6835 5680 c-3 -5 -1 -10 4 -10 6 0 11 5 11 10 0 6 -2 10 -4 10 -3 0
-8 -4 -11 -10z"/>
<path d="M248 5653 c-9 -10 -50 -94 -92 -188 -89 -200 -70 -185 39 31 72 144
91 200 53 157z"/>
<path d="M8450 5638 c-19 -13 -36 -30 -38 -38 -3 -8 10 -2 28 14 30 25 40 28
87 24 38 -3 61 -12 79 -29 26 -23 26 -23 15 -2 -29 56 -112 71 -171 31z"/>
<path d="M5293 5567 c-11 -18 -30 -50 -41 -72 -11 -22 -32 -51 -47 -65 -44
-41 -138 -180 -121 -180 2 0 18 24 37 53 18 28 48 65 66 81 46 39 58 26 44
-50 -6 -32 -10 -74 -10 -93 1 -24 4 -13 10 29 9 75 43 203 71 274 23 58 20 66
-9 23z"/>
<path d="M8055 5538 c-16 -24 -51 -67 -78 -95 -28 -29 -45 -53 -40 -53 18 0
104 104 147 178 18 30 -4 8 -29 -30z"/>
<path d="M3991 5531 c-17 -21 -31 -43 -31 -47 0 -10 44 40 60 69 18 30 3 19
-29 -22z"/>
<path d="M8334 5504 c-19 -15 -19 -16 1 -9 97 31 136 -1 155 -130 l8 -50 1 53
c1 56 -15 107 -43 135 -22 22 -95 23 -122 1z"/>
<path d="M5038 5411 c-25 -39 -55 -99 -68 -133 -12 -35 -29 -78 -37 -97 -20
-45 -29 -231 -15 -298 6 -28 27 -77 46 -109 49 -83 73 -110 37 -41 -17 31 -28
64 -25 72 4 9 0 15 -8 15 -31 0 -51 131 -39 245 9 78 63 257 89 297 9 14 30
44 45 68 16 23 26 44 24 46 -3 3 -25 -27 -49 -65z"/>
<path d="M4312 5425 c0 -11 3 -29 8 -40 11 -25 11 1 0 35 -6 20 -8 21 -8 5z"/>
<path d="M8060 5413 c-19 -14 -66 -41 -105 -59 -38 -19 -59 -32 -45 -28 35 9
151 72 175 95 27 26 17 23 -25 -8z"/>
<path d="M8572 5387 c-44 -62 -115 -121 -154 -128 l-33 -6 34 -2 c18 0 48 8
66 19 34 21 92 87 114 128 22 41 6 34 -27 -11z"/>
<path d="M6786 5401 c-87 -13 -107 -73 -65 -188 23 -63 113 -163 146 -163 12
0 7 6 -14 18 -41 22 -77 67 -108 133 -26 56 -32 103 -15 114 6 4 8 11 5 16 -4
5 -3 18 0 29 6 18 15 20 93 19 l87 -2 -64 -8 c-35 -4 -66 -11 -69 -14 -12 -12
6 -14 43 -4 24 7 60 8 94 3 31 -5 67 -7 80 -6 25 3 131 -44 131 -58 0 -5 3
-17 7 -27 5 -14 1 -13 -23 7 l-28 25 27 -37 c34 -46 34 -55 0 -106 -40 -58
-74 -81 -145 -97 -52 -11 -57 -14 -27 -14 100 -2 191 69 219 170 12 44 -2 91
-33 112 -31 20 -204 76 -252 81 -22 2 -62 1 -89 -3z"/>
<path d="M7499 5331 c-36 -29 -19 -33 21 -5 20 14 28 24 18 24 -9 0 -26 -9
-39 -19z"/>
<path d="M4130 5280 c0 -11 4 -20 9 -20 5 0 7 9 4 20 -3 11 -7 20 -9 20 -2 0
-4 -9 -4 -20z"/>
<path d="M8194 5276 c-51 -22 -48 -35 4 -20 28 9 67 13 97 10 49 -6 50 -6 20
9 -38 18 -81 18 -121 1z"/>
<path d="M55 5259 c-4 -6 -5 -12 -2 -15 2 -3 7 2 10 11 7 17 1 20 -8 4z"/>
<path d="M2895 5240 c-44 -7 -94 -30 -119 -56 -13 -12 -14 -19 -5 -30 16 -20
28 -17 22 5 -7 28 95 77 133 64 38 -13 40 -28 8 -58 -18 -17 -22 -25 -12 -25
18 0 48 32 48 51 0 8 5 20 12 27 6 6 10 13 7 15 -11 10 -58 13 -94 7z"/>
<path d="M7431 5204 c0 -11 3 -14 6 -6 3 7 2 16 -1 19 -3 4 -6 -2 -5 -13z"/>
<path d="M5026 5159 c-13 -30 -26 -70 -30 -89 -5 -27 -2 -24 13 16 10 27 26
65 35 83 10 18 15 35 12 38 -3 4 -16 -18 -30 -48z"/>
<path d="M7421 5164 c0 -11 3 -14 6 -6 3 7 2 16 -1 19 -3 4 -6 -2 -5 -13z"/>
<path d="M3744 5123 c-35 -69 -169 -272 -181 -273 -6 0 -9 -9 -6 -20 3 -11 -7
-42 -24 -72 -31 -57 -58 -136 -49 -146 3 -3 6 1 6 8 0 28 95 218 145 290 56
81 140 238 132 246 -2 3 -13 -12 -23 -33z"/>
<path d="M5205 5138 c-4 -10 -4 -26 0 -35 8 -17 8 -17 12 0 3 9 3 25 0 35 -4
16 -4 16 -12 0z"/>
<path d="M5462 5115 c-17 -37 -14 -45 4 -12 9 16 14 31 11 33 -2 2 -9 -7 -15
-21z"/>
<path d="M9640 5093 c0 -4 16 -20 35 -36 51 -41 245 -278 290 -354 11 -18 23
-33 27 -33 4 0 8 31 8 68 l0 69 -57 54 c-50 47 -253 210 -290 233 -7 4 -13 4
-13 -1z"/>
<path d="M1714 5037 c31 -70 126 -216 162 -247 l28 -25 -30 40 c-47 63 -119
175 -148 233 -34 67 -43 67 -12 -1z"/>
<path d="M1065 5023 c-10 -27 -31 -74 -47 -106 -34 -68 -70 -157 -63 -157 7 0
94 187 116 249 24 67 18 79 -6 14z"/>
<path d="M3865 5035 c5 -16 9 -41 9 -55 1 -14 7 -34 13 -45 11 -18 12 -18 13
-2 0 29 -22 111 -33 122 -6 7 -7 0 -2 -20z"/>
<path d="M4208 4980 c-4 -31 -24 -96 -47 -150 -22 -51 -39 -95 -37 -97 7 -8
66 92 66 111 0 12 10 49 22 83 16 47 19 68 11 85 -8 19 -11 15 -15 -32z"/>
<path d="M4976 5015 c-3 -8 -1 -15 4 -15 6 0 10 7 10 15 0 8 -2 15 -4 15 -2 0
-6 -7 -10 -15z"/>
<path d="M1320 5000 c0 -53 23 -227 46 -337 13 -67 24 -131 24 -141 0 -21 58
-107 67 -99 3 3 -5 32 -17 64 -46 121 -68 210 -72 301 -7 112 3 110 64 -12 41
-82 186 -304 213 -326 26 -22 17 -33 -22 -25 -29 5 -35 4 -27 -5 13 -13 94
-27 94 -16 0 11 -49 85 -117 174 -85 114 -130 192 -188 330 -45 107 -65 136
-65 92z"/>
<path d="M4960 4903 c0 -42 2 -74 4 -72 9 10 14 149 5 149 -5 0 -9 -34 -9 -77z"/>
<path d="M3781 4899 c-6 -18 -9 -34 -7 -36 2 -2 9 10 16 27 7 17 10 33 8 36
-3 3 -11 -9 -17 -27z"/>
<path d="M2000 4872 c0 -4 32 -41 71 -82 65 -68 71 -66 10 3 -33 36 -17 35 89
-3 45 -17 90 -30 99 -28 9 2 -25 19 -74 37 -50 19 -111 45 -137 58 -52 25 -58
27 -58 15z"/>
<path d="M3911 4844 c0 -11 3 -14 6 -6 3 7 2 16 -1 19 -3 4 -6 -2 -5 -13z"/>
<path d="M3725 4790 c-8 -16 -15 -35 -14 -42 0 -7 5 -4 10 7 15 31 48 48 104
56 l50 6 -67 2 c-65 1 -68 0 -83 -29z"/>
<path d="M3880 4810 c0 -5 8 -10 18 -10 21 -1 52 -23 52 -39 0 -6 5 -11 11
-11 5 0 8 4 5 9 -10 16 21 32 51 25 57 -14 78 -46 99 -154 l12 -65 1 58 c1 57
1 57 32 57 48 0 66 -16 85 -72 9 -29 19 -48 21 -42 2 6 -4 33 -14 60 -17 45
-22 49 -71 64 -54 16 -65 25 -104 73 -20 24 -33 28 -90 34 -38 3 -68 10 -68
14 0 5 -9 9 -20 9 -11 0 -20 -4 -20 -10z"/>
<path d="M9150 4766 c0 -3 9 -10 20 -16 11 -6 20 -8 20 -6 0 3 -9 10 -20 16
-11 6 -20 8 -20 6z"/>
<path d="M8941 4744 c0 -11 3 -14 6 -6 3 7 2 16 -1 19 -3 4 -6 -2 -5 -13z"/>
<path d="M1930 4737 c0 -17 43 -124 60 -146 11 -16 20 -32 20 -36 0 -3 14 -26
30 -50 17 -24 30 -50 30 -58 0 -17 61 -69 135 -116 51 -32 88 -44 45 -14 -14
10 -38 30 -55 45 -16 15 -33 28 -37 28 -8 0 -101 118 -138 176 -23 37 -27 51
-19 71 13 35 13 37 -31 72 -22 17 -40 30 -40 28z"/>
<path d="M4614 4674 c-8 -20 -13 -39 -10 -42 3 -3 6 -3 6 0 0 3 7 22 15 42 8
20 13 36 10 36 -3 0 -13 -16 -21 -36z"/>
<path d="M2185 4680 c10 -11 20 -20 23 -20 3 0 -3 9 -13 20 -10 11 -20 20 -23
20 -3 0 3 -9 13 -20z"/>
<path d="M9274 4686 c11 -9 24 -16 30 -16 12 0 7 5 -24 19 -24 11 -24 11 -6
-3z"/>
<path d="M9651 4684 c0 -11 3 -14 6 -6 3 7 2 16 -1 19 -3 4 -6 -2 -5 -13z"/>
<path d="M834 4558 c-43 -73 -110 -180 -149 -237 -115 -169 -117 -174 -106
-167 15 10 140 186 192 271 98 162 155 265 145 265 -2 0 -38 -60 -82 -132z"/>
<path d="M9720 4681 c0 -5 7 -15 16 -22 11 -9 14 -23 11 -46 l-6 -33 50 0 c60
0 76 -8 152 -73 58 -50 59 -50 55 -22 -2 15 -12 33 -23 39 -11 6 -56 38 -100
71 -121 91 -155 110 -155 86z m70 -67 c0 -2 -7 -4 -15 -4 -8 0 -15 4 -15 10 0
5 7 7 15 4 8 -4 15 -8 15 -10z"/>
<path d="M9349 4654 c64 -27 166 -54 246 -63 44 -5 81 -9 82 -8 1 1 -2 18 -7
37 -6 26 -8 29 -9 11 -1 -24 -2 -24 -79 -17 -43 3 -117 17 -163 31 -95 28
-120 31 -70 9z"/>
<path d="M7747 4603 c-37 -20 -66 -38 -63 -40 6 -6 123 54 131 67 9 14 8 14
-68 -27z"/>
<path d="M2324 4579 c43 -23 143 -59 166 -58 25 0 -30 27 -100 49 -99 31 -108
33 -66 9z"/>
<path d="M3450 4546 c-15 -39 -12 -46 6 -13 9 16 13 31 10 34 -3 3 -10 -6 -16
-21z"/>
<path d="M8990 4567 c0 -4 14 -36 31 -70 47 -93 155 -196 242 -230 37 -15 80
-28 95 -28 l27 -1 -30 -8 c-16 -4 -68 -8 -115 -9 -99 -1 -205 24 -288 69 -30
16 -49 23 -43 16 6 -7 46 -29 88 -49 130 -61 250 -69 413 -30 87 21 99 35 25
27 -66 -7 -153 17 -230 61 -61 36 -141 123 -180 195 -19 36 -35 61 -35 57z"/>
<path d="M2510 4516 c0 -2 7 -6 15 -10 8 -3 15 -1 15 4 0 6 -7 10 -15 10 -8 0
-15 -2 -15 -4z"/>
<path d="M3401 4393 c-13 -45 -21 -87 -19 -94 3 -8 15 24 27 69 12 46 21 88
19 94 -3 7 -15 -25 -27 -69z"/>
<path d="M1076 4352 c-37 -99 -41 -113 -22 -82 17 28 60 149 55 155 -2 2 -17
-31 -33 -73z"/>
<path d="M1710 4412 c0 -11 19 -27 43 -35 24 -9 21 -4 -13 21 -16 13 -30 19
-30 14z"/>
<path d="M5200 4410 c8 -5 24 -10 34 -10 26 0 18 6 -19 14 -22 5 -26 4 -15 -4z"/>
<path d="M8630 4406 c0 -2 8 -10 18 -17 15 -13 16 -12 3 4 -13 16 -21 21 -21
13z"/>
<path d="M1780 4366 c0 -3 17 -17 37 -30 30 -21 34 -26 19 -32 -15 -6 -14 -10
11 -36 42 -44 164 -123 227 -147 30 -11 89 -23 131 -25 42 -3 80 -8 85 -11 26
-16 5 16 -40 60 -27 26 -47 52 -44 56 3 5 -5 11 -18 13 -164 34 -303 84 -380
138 -16 11 -28 17 -28 14z"/>
<path d="M1635 4312 c-5 -5 -61 -28 -123 -52 -69 -27 -128 -57 -152 -78 -61
-52 -188 -227 -230 -317 -60 -127 -56 -150 6 -35 150 282 228 369 359 401 28
7 60 20 73 30 30 23 116 43 149 34 15 -3 48 -21 73 -39 25 -18 56 -39 70 -46
20 -10 17 -4 -15 30 -22 23 -54 48 -71 56 -41 18 -127 28 -139 16z"/>
<path d="M3371 4264 c0 -11 3 -14 6 -6 3 7 2 16 -1 19 -3 4 -6 -2 -5 -13z"/>
<path d="M2433 4203 c9 -2 23 -2 30 0 6 3 -1 5 -18 5 -16 0 -22 -2 -12 -5z"/>
<path d="M2260 4196 c0 -9 30 -14 35 -6 4 6 -3 10 -14 10 -12 0 -21 -2 -21 -4z"/>
<path d="M986 4137 c-39 -88 -39 -109 0 -29 19 41 33 76 30 79 -3 3 -16 -19
-30 -50z"/>
<path d="M1823 4148 c18 -6 26 -15 23 -24 -7 -18 8 -18 24 1 18 22 3 35 -38
34 l-37 -1 28 -10z"/>
<path d="M543 4118 c-22 -26 -37 -48 -30 -48 3 0 17 16 31 35 30 39 30 46 -1
13z"/>
<path d="M183 4108 c-11 -13 -43 -63 -71 -113 -28 -49 -64 -103 -81 -119 -18
-17 -31 -40 -31 -54 l0 -24 23 29 c28 34 76 105 130 193 22 36 46 75 55 88 8
12 10 22 5 22 -5 0 -19 -10 -30 -22z"/>
<path d="M7970 4053 c0 -6 -3 -19 -7 -29 -5 -13 -3 -15 7 -9 9 5 23 -3 42 -26
l30 -34 -17 31 c-25 44 -55 81 -55 67z"/>
<path d="M776 3737 c-85 -157 -269 -412 -422 -582 -242 -270 -354 -400 -354
-412 0 -8 39 27 86 77 48 50 89 88 92 85 3 -2 -2 -22 -11 -42 -31 -77 -107
-281 -137 -368 -30 -90 -40 -148 -20 -113 6 9 28 66 50 128 43 121 181 427
235 525 19 33 66 98 106 145 183 217 430 583 417 620 -1 5 -21 -23 -42 -63z"/>
<path d="M3519 3753 c-13 -16 -12 -17 4 -4 9 7 17 15 17 17 0 8 -8 3 -21 -13z"/>
<path d="M189 3723 l-24 -28 28 24 c25 23 32 31 24 31 -2 0 -14 -12 -28 -27z"/>
<path d="M2081 3700 c0 -14 4 -32 9 -40 8 -12 10 -12 9 5 0 11 -4 29 -9 40 -8
18 -9 18 -9 -5z"/>
<path d="M3446 3684 c-5 -14 -4 -15 9 -4 17 14 19 20 6 20 -5 0 -12 -7 -15
-16z"/>
<path d="M1037 3648 c-10 -17 -16 -32 -14 -35 6 -6 39 47 35 57 -2 5 -11 -4
-21 -22z"/>
<path d="M984 3554 c-45 -76 -130 -282 -108 -261 9 9 143 307 138 307 -2 0
-15 -21 -30 -46z"/>
<path d="M738 3001 c-54 -108 -108 -223 -119 -255 -13 -36 -39 -78 -64 -105
-99 -108 -218 -260 -242 -311 -14 -30 -28 -77 -30 -105 l-3 -50 15 55 c32 115
69 170 256 377 42 46 69 86 73 106 3 18 54 130 112 250 58 120 104 221 102
226 -2 4 -47 -80 -100 -188z"/>
<path d="M9281 3124 c0 -11 3 -14 6 -6 3 7 2 16 -1 19 -3 4 -6 -2 -5 -13z"/>
<path d="M2092 3100 c0 -14 2 -19 5 -12 2 6 2 18 0 25 -3 6 -5 1 -5 -13z"/>
<path d="M9295 3060 c3 -25 8 -60 11 -77 7 -39 -8 -43 -57 -17 -65 33 -35 4
53 -53 128 -82 128 -83 81 -30 -24 26 -43 50 -43 54 -1 5 -12 44 -26 88 -20
64 -24 71 -19 35z"/>
<path d="M2016 2826 c-20 -18 -36 -40 -36 -47 0 -8 -14 -47 -31 -88 -17 -40
-28 -75 -26 -77 4 -5 87 131 87 143 0 2 14 24 30 48 17 24 30 46 30 49 0 14
-21 3 -54 -28z"/>
<path d="M7920 2851 c0 -12 59 -55 66 -48 2 2 -11 16 -31 31 -19 15 -35 23
-35 17z"/>
<path d="M8026 2743 c9 -21 36 -95 60 -165 46 -132 48 -151 17 -211 -8 -16
-13 -31 -10 -33 7 -8 76 142 78 171 2 29 -21 74 -91 180 -14 22 -31 52 -38 68
-6 15 -16 27 -22 27 -6 0 -4 -15 6 -37z"/>
<path d="M7896 2714 c-4 -14 -5 -28 -3 -31 3 -2 8 8 11 23 4 14 5 28 3 31 -3
2 -8 -8 -11 -23z"/>
<path d="M5626 2547 c5 -81 35 -244 54 -287 l10 -25 -4 25 c-14 72 -56 309
-60 335 -2 17 -2 -5 0 -48z"/>
<path d="M9753 2602 c-36 -5 -27 -17 22 -28 25 -6 45 -8 45 -5 -1 14 -47 36
-67 33z"/>
<path d="M9830 2557 c0 -3 15 -10 32 -16 18 -6 28 -7 23 -2 -12 10 -55 25 -55
18z"/>
<path d="M8040 2510 c0 -12 8 -12 35 0 18 8 17 9 -7 9 -16 1 -28 -3 -28 -9z"/>
<path d="M9261 2473 c-73 -39 -131 -81 -131 -94 0 -15 26 -10 52 10 13 11 43
24 66 31 24 6 46 19 49 28 3 9 13 25 21 35 26 29 10 27 -57 -10z"/>
<path d="M3604 2302 c11 -18 149 -109 193 -127 29 -12 51 -33 86 -85 49 -73
53 -80 38 -80 -5 0 -12 10 -15 23 l-7 22 -11 -22 c-6 -13 -8 -44 -3 -78 11
-91 72 -141 136 -111 11 5 19 -1 27 -18 6 -14 7 -26 3 -28 -4 -2 0 -61 9 -133
9 -71 20 -157 24 -191 l7 -61 -31 5 c-24 3 -37 -3 -66 -32 -35 -35 -36 -39
-31 -86 7 -56 39 -125 62 -134 9 -3 34 -6 56 -6 34 0 39 -3 39 -23 0 -73 23
-301 35 -352 8 -33 16 -79 19 -103 l4 -43 -33 7 c-72 13 -114 -49 -95 -141 14
-69 46 -100 95 -92 l35 6 0 -70 0 -69 -32 0 c-52 0 -100 -17 -139 -50 l-37
-30 1 -100 c0 -98 0 -100 23 -100 22 0 23 3 26 91 3 88 4 93 31 113 28 20 76
25 157 14 l24 -3 -2 220 c-1 121 -4 274 -6 340 -6 135 -41 537 -56 629 -5 34
-14 108 -20 166 -6 58 -14 114 -17 125 -4 14 11 5 45 -27 67 -62 77 -62 15 0
-26 27 -72 82 -102 123 -52 72 -191 311 -191 329 0 5 8 10 18 12 11 3 -3 13
-38 28 -83 36 -242 119 -264 138 -11 9 -16 11 -12 4z m409 -948 c-9 -15 -19
-21 -21 -15 -4 13 16 41 29 41 5 0 2 -12 -8 -26z m67 -765 c-7 -11 -14 -18
-17 -15 -8 8 5 36 17 36 7 0 7 -6 0 -21z"/>
<path d="M7722 2243 c-11 -20 -27 -91 -20 -83 7 8 37 100 33 100 -2 0 -8 -8
-13 -17z"/>
<path d="M272 2150 c0 -14 2 -19 5 -12 2 6 2 18 0 25 -3 6 -5 1 -5 -13z"/>
<path d="M5721 2130 c0 -8 4 -33 9 -55 22 -93 59 -342 74 -500 33 -352 36
-407 42 -703 4 -166 9 -300 12 -297 8 8 3 385 -8 575 -5 96 -12 239 -15 318
-6 158 -22 283 -61 472 -25 122 -53 220 -53 190z"/>
<path d="M245 2038 c-10 -24 -28 -65 -40 -93 -12 -27 -32 -81 -45 -120 -13
-38 -38 -100 -56 -136 -18 -36 -40 -92 -49 -125 -10 -32 -26 -85 -36 -116 -10
-32 -19 -65 -19 -75 1 -21 42 71 62 135 14 48 28 55 29 15 1 -16 7 6 14 47 14
80 47 182 112 345 50 126 73 229 28 123z"/>
<path d="M7040 1980 c0 -19 33 -73 76 -126 35 -43 43 -61 22 -48 -7 4 -5 -2 6
-14 10 -12 21 -21 25 -20 3 1 69 -61 146 -136 179 -176 296 -270 414 -332 51
-27 102 -60 112 -73 15 -18 19 -20 19 -7 0 10 -31 36 -77 65 -43 27 -89 58
-102 68 l-25 20 36 102 c19 56 32 98 28 94 -7 -8 -60 -126 -74 -166 -5 -17
-10 -15 -47 15 -23 18 -50 40 -61 48 -16 13 -17 21 -9 42 15 39 17 116 3 130
-9 9 -12 1 -12 -36 0 -66 -11 -84 -50 -78 -24 3 -63 38 -176 155 -80 83 -166
183 -191 221 -56 86 -63 94 -63 76z"/>
<path d="M7626 1975 c-9 -26 -7 -32 5 -12 6 10 9 21 6 23 -2 3 -7 -2 -11 -11z"/>
<path d="M8775 1890 c14 -28 14 -30 -1 -30 -15 0 -15 -3 4 -22 11 -13 30 -45
41 -71 29 -68 104 -161 159 -198 l47 -32 -46 49 c-73 78 -103 122 -158 232
-28 56 -54 102 -56 102 -3 0 1 -13 10 -30z"/>
<path d="M1901 1624 c0 -11 3 -14 6 -6 3 7 2 16 -1 19 -3 4 -6 -2 -5 -13z"/>
<path d="M1911 1584 c0 -11 3 -14 6 -6 3 7 2 16 -1 19 -3 4 -6 -2 -5 -13z"/>
<path d="M4256 1591 c-9 -14 14 -525 29 -646 9 -67 18 -174 20 -240 5 -118 20
-259 50 -465 8 -58 18 -135 21 -172 5 -60 8 -68 26 -68 18 0 20 4 15 38 -4 20
-11 77 -17 127 -5 50 -17 137 -25 193 -9 57 -18 147 -20 200 -3 54 -7 120 -9
147 -4 37 2 23 23 -55 29 -108 60 -199 104 -305 14 -33 38 -96 53 -140 53
-148 35 -52 -22 120 -51 157 -134 452 -134 479 0 7 32 19 72 29 41 9 97 32
129 52 31 19 62 35 69 35 6 0 18 -16 26 -36 18 -44 29 -40 13 5 -15 42 -9 52
45 79 25 13 46 27 46 32 0 4 20 20 44 34 25 15 48 31 52 38 8 12 -3 7 -46 -22
-34 -24 -95 -59 -216 -125 -102 -55 -228 -96 -243 -79 -7 8 -27 85 -67 249 -4
17 -6 134 -5 261 2 199 0 232 -13 237 -9 4 -18 3 -20 -2z"/>
<path d="M4496 1432 c5 -4 31 -26 59 -48 27 -21 80 -68 117 -103 38 -35 68
-58 68 -51 0 25 -217 210 -246 210 -5 0 -4 -4 2 -8z"/>
<path d="M7530 1390 c0 -25 34 -160 40 -160 9 0 2 80 -11 133 -9 33 -29 53
-29 27z"/>
<path d="M1434 1338 c8 -18 24 -73 36 -123 23 -92 39 -135 40 -105 0 25 -49
198 -65 230 -21 40 -27 38 -11 -2z"/>
<path d="M96 1285 c8 -37 14 -45 14 -19 0 10 -5 26 -10 34 -8 11 -9 7 -4 -15z"/>
<path d="M8630 1293 c-78 -5 -262 -34 -355 -55 -117 -26 -261 -94 -334 -157
-66 -58 -80 -54 -82 19 l-1 45 -13 -40 c-6 -22 -15 -58 -19 -79 -7 -36 -6 -38
8 -26 9 7 17 11 19 9 21 -37 28 -52 25 -54 -2 -2 -58 -7 -125 -11 -89 -5 -126
-4 -137 5 -10 9 -16 9 -21 1 -4 -6 -14 -9 -22 -6 -8 3 -12 2 -9 -3 3 -5 -20
-12 -52 -15 -211 -25 -397 -73 -567 -145 -131 -57 -268 -139 -273 -165 -4 -21
45 -186 55 -186 4 0 44 18 88 40 45 21 117 53 160 71 86 34 305 99 334 99 10
0 34 6 52 14 73 29 248 52 483 63 93 4 132 0 280 -27 l171 -33 55 -46 c110
-92 377 -328 499 -441 198 -184 179 -171 263 -168 l72 3 44 78 44 79 44 -43
c25 -24 56 -61 71 -81 l26 -38 74 0 74 0 -48 63 c-26 34 -79 97 -117 141 -56
64 -67 82 -59 95 12 18 9 18 157 -4 132 -19 371 -30 449 -21 l57 7 0 42 c0 23
-4 47 -8 54 -5 8 -67 14 -202 17 -200 6 -362 24 -381 43 -7 7 -1 32 21 84 18
41 45 110 62 154 16 44 40 99 53 123 l24 43 -47 87 -47 87 -65 17 c-71 20
-238 38 -341 38 -73 0 -79 5 -79 63 -1 22 -16 53 -51 100 l-49 67 -108 -2
c-59 -1 -127 -3 -152 -5z m248 -160 l-3 -58 -125 -7 c-241 -14 -511 -64 -694
-127 -54 -19 -61 -20 -83 -6 -29 19 -29 32 0 56 137 118 439 194 775 198 l133
1 -3 -57z m-8 -222 c0 -52 -39 -284 -50 -295 -11 -11 -286 86 -460 161 -69 30
-137 59 -152 65 -26 9 -39 28 -20 28 4 0 50 9 102 19 145 29 375 56 508 59
l72 2 0 -39z m360 29 c119 -13 192 -27 215 -43 16 -12 14 -17 -15 -68 -18 -29
-47 -88 -65 -129 -67 -154 -105 -230 -113 -230 -13 0 -209 57 -260 76 -37 14
-43 20 -38 38 6 23 32 215 42 309 l5 57 67 0 c37 0 110 -5 162 -10z m-769
-362 c63 -42 289 -259 289 -278 0 -20 -17 -8 -126 88 -61 53 -143 124 -182
157 -39 33 -72 63 -72 68 0 16 30 5 91 -35z m293 -73 c24 -10 36 -22 36 -35 0
-11 -6 -20 -13 -20 -14 0 -67 50 -67 63 0 10 2 9 44 -8z m276 -141 c36 -23 81
-56 100 -72 l35 -30 -50 -96 c-65 -124 -81 -146 -95 -126 -5 8 -10 26 -10 40
-1 34 -31 99 -85 180 -44 66 -45 69 -31 101 7 19 16 42 19 52 8 21 14 18 117
-49z"/>
<path d="M5313 1232 c-55 -36 -68 -51 -18 -22 37 21 75 51 65 49 -3 0 -24 -12
-47 -27z"/>
<path d="M7862 1175 c0 -16 2 -22 5 -12 2 9 2 23 0 30 -3 6 -5 -1 -5 -18z"/>
<path d="M4845 1123 c47 -34 99 -53 145 -53 40 0 109 19 130 35 8 7 29 20 45
29 32 18 25 17 -75 -21 -73 -28 -116 -27 -190 5 -82 36 -100 37 -55 5z"/>
<path d="M5104 1060 c3 -14 18 -86 33 -160 23 -116 27 -159 26 -305 0 -202 15
-186 24 24 l6 134 29 -64 c17 -35 45 -104 63 -154 19 -49 34 -82 34 -73 1 9
-3 27 -8 40 -5 13 -19 55 -31 93 -12 39 -44 120 -71 181 -27 61 -49 120 -49
131 0 29 -40 156 -52 168 -7 7 -9 2 -4 -15z"/>
<path d="M7592 990 c0 -14 2 -19 5 -12 2 6 2 18 0 25 -3 6 -5 1 -5 -13z"/>
<path d="M7488 943 c12 -2 30 -2 40 0 9 3 -1 5 -23 4 -22 0 -30 -2 -17 -4z"/>
<path d="M9650 866 c0 -2 8 -10 18 -17 15 -13 16 -12 3 4 -13 16 -21 21 -21
13z"/>
<path d="M9760 776 c0 -3 9 -10 20 -16 11 -6 20 -8 20 -6 0 3 -9 10 -20 16
-11 6 -20 8 -20 6z"/>
<path d="M4714 730 c17 -88 27 -242 21 -310 -9 -97 10 -84 25 18 14 86 9 152
-15 242 -20 72 -42 108 -31 50z"/>
<path d="M9862 702 c18 -20 39 -52 46 -70 7 -17 17 -46 23 -62 18 -46 23 -28
9 30 -18 73 -47 130 -64 124 -8 -3 -17 -1 -21 5 -3 6 -11 11 -17 11 -6 0 5
-17 24 -38z"/>
<path d="M7170 570 c-8 -5 -10 -10 -5 -10 6 0 17 5 25 10 8 5 11 10 5 10 -5 0
-17 -5 -25 -10z"/>
<path d="M9951 514 c0 -11 3 -14 6 -6 3 7 2 16 -1 19 -3 4 -6 -2 -5 -13z"/>
<path d="M7015 483 c-33 -19 -64 -39 -70 -45 -14 -14 106 52 125 69 21 19 12
15 -55 -24z"/>
<path d="M435 325 c-44 -19 -96 -42 -115 -52 -42 -22 -180 -124 -180 -133 0
-3 16 -21 35 -40 l34 -33 38 34 c87 78 104 84 251 84 72 0 132 1 132 3 0 4
-101 155 -109 163 -3 4 -42 -8 -86 -26z"/>
<path d="M31 39 l-33 -39 70 0 c90 0 107 16 58 54 -19 14 -41 26 -48 25 -7 0
-28 -18 -47 -40z"/>
<path d="M727 32 c10 -18 22 -32 26 -32 11 0 -8 34 -28 50 -13 11 -13 8 2 -18z"/>
<path d="M2340 10 c-20 -6 -14 -8 28 -9 33 -1 51 3 47 9 -7 12 -39 12 -75 0z"/>
<path d="M8198 3 c50 -2 134 -2 185 0 50 1 9 3 -93 3 -102 0 -143 -2 -92 -3z"/>
</g>
</svg>
