<?xml version="1.0" encoding="utf-8"?>
<svg width="179" height="208.7151" viewBox="0 4.742 179 185.949" xmlns="http://www.w3.org/2000/svg">
  <defs>
    <style>
      .a, .c {
        fill: #f19ec2;
      }

      .a, .c, .e, .f, .g, .h, .i, .j {
        fill-rule: evenodd;
      }

      .a {
        opacity: 0.8;
      }

      .b {
        fill: #955e4b;
      }

      .c {
        opacity: 0.5;
      }

      .d {
        fill: none;
        stroke: #955e4b;
        stroke-linecap: round;
        stroke-linejoin: round;
        stroke-width: 0.9818px;
        stroke-dasharray: 0 1.5105;
      }

      .e {
        fill: #8f82bc;
      }

      .f {
        fill: #89c997;
      }

      .g {
        fill: #ec6d7b;
      }

      .h {
        fill: #7ecef4;
      }

      .i {
        fill: #facd89;
      }

      .j {
        fill: #88abda;
      }
    </style>
  </defs>
  <title>ご注文はうさぎですか？BLOOM</title>
  <g transform="matrix(1, 0, 0, 1, 0.285449, 6)">
    <g>
      <path class="b" d="M80.4836,154.669H76.7721v-.4967a2.09,2.09,0,0,0,.7012-.0893.4974.4974,0,0,0,.31-.2669,1.3871,1.3871,0,0,0,.0726-.5065v-4.5963a.92.92,0,0,0-.1968-.6694,1.3556,1.3556,0,0,0-.8872-.1943v-.4967h3.7115v.4967a2.0287,2.0287,0,0,0-.7013.0922.5076.5076,0,0,0-.31.267,1.3649,1.3649,0,0,0-.0731.5045V153.31a1.3841,1.3841,0,0,0,.07.4908.5122.5122,0,0,0,.2993.2748,1.9532,1.9532,0,0,0,.7151.0971Z"/>
      <path class="b" d="M85.5859,153.3852a1.1884,1.1884,0,0,1-.2783.793,1.71,1.71,0,0,1-.7607.4986,3.3584,3.3584,0,0,1-1.1139.17,4.4745,4.4745,0,0,1-.8574-.0834,2.7937,2.7937,0,0,1-.7557-.2513l-.21.3023h-.421l-.054-1.4025h.4534a1.2964,1.2964,0,0,0,.5448.65,2.2005,2.2005,0,0,0,1.2352.2886,3.6165,3.6165,0,0,0,.4426-.0294,1.1345,1.1345,0,0,0,.4559-.164.4548.4548,0,0,0,.2184-.4161.3688.3688,0,0,0-.2238-.3533,4.9979,4.9979,0,0,0-.8391-.267q-.7443-.1884-1.2191-.3583a2.207,2.207,0,0,1-.8038-.4887,1.0891,1.0891,0,0,1-.3293-.82,1.1437,1.1437,0,0,1,.5855-1.009,2.8225,2.8225,0,0,1,1.535-.3719,3.7265,3.7265,0,0,1,.9491.0971,3.8,3.8,0,0,1,.5992.21l.13-.2749H85.3v1.2514h-.4422a.822.822,0,0,0-.27-.4043,1.4423,1.4423,0,0,0-.5585-.2837,2.9276,2.9276,0,0,0-.8063-.1,3.5564,3.5564,0,0,0-.7528.0815q-.3747.081-.3749.3828a.2957.2957,0,0,0,.0731.2051.668.668,0,0,0,.2508.1511,5.8385,5.8385,0,0,0,.6257.1836c.2983.0755.4765.1207.5339.1344a5.7093,5.7093,0,0,1,1.4433.5448A1.1965,1.1965,0,0,1,85.5859,153.3852Z"/>
      <path class="b" d="M92.6369,153.7081a2.15,2.15,0,0,1-.68.8745,1.5853,1.5853,0,0,1-.9118.264,1.42,1.42,0,0,1-.9388-.2591,1.065,1.065,0,0,1-.372-.58,3.3568,3.3568,0,0,1-.07-.7195v-2.5411H88.85V150.25a1.9222,1.9222,0,0,0,.89-.1943,1.5426,1.5426,0,0,0,.5958-.5232,1.7545,1.7545,0,0,0,.2782-.7066h.4422V150.25h1.5267v.4966H91.0562V153.32a2.6218,2.6218,0,0,0,.0618.6763.2826.2826,0,0,0,.3048.208.53.53,0,0,0,.4265-.2022,2.8542,2.8542,0,0,0,.3238-.5044Z"/>
      <path class="b" d="M99.1575,154.669H96.3847v-.4967a.7524.7524,0,0,0,.5124-.1325.5036.5036,0,0,0,.14-.3857v-1.8118a3.0224,3.0224,0,0,0-.0353-.4859.79.79,0,0,0-.186-.3916.5791.5791,0,0,0-.4638-.1747,1.0939,1.0939,0,0,0-.5152.1374,1.025,1.025,0,0,0-.402.3583,1.3863,1.3863,0,0,0-.1918.478,3.2836,3.2836,0,0,0-.04.5525v.9285a3.6843,3.6843,0,0,0,.0295.5526.4093.4093,0,0,0,.1673.2748.794.794,0,0,0,.4559.1v.4967H93.029v-.4967a1.3981,1.3981,0,0,0,.5315-.0755.3424.3424,0,0,0,.21-.2238,2.063,2.063,0,0,0,.0408-.4878v-4.5267a.8136.8136,0,0,0-.13-.5417,1,1,0,0,0-.6527-.1433v-.4859l2.174-.4632v3.6413a3.9581,3.9581,0,0,1,.6611-.5644,1.7036,1.7036,0,0,1,.952-.2286,2.0157,2.0157,0,0,1,.5609.08,1.6984,1.6984,0,0,1,.5045.2376.991.991,0,0,1,.3264.3562,2.0766,2.0766,0,0,1,.2213,1.0247v1.6136a1.1739,1.1739,0,0,0,.1158.62q.1162.1663.6125.1668Z"/>
      <path class="b" d="M104.0428,152.2948h-3.3174c.0034.0687.0132.2139.0294.4367a2.5507,2.5507,0,0,0,.1512.6861,1.2909,1.2909,0,0,0,.4367.59,1.3233,1.3233,0,0,0,.8338.24,2.102,2.102,0,0,0,.6905-.1452,1.4862,1.4862,0,0,0,.7013-.5615l.4206.2857a2.2078,2.2078,0,0,1-2.0229,1.02,3.4082,3.4082,0,0,1-1.13-.1776,2.543,2.543,0,0,1-.8662-.4967,2.1592,2.1592,0,0,1-.5447-.75,2.2923,2.2923,0,0,1-.1889-.9275,2.4074,2.4074,0,0,1,.316-1.2092,2.314,2.314,0,0,1,.9035-.8843,2.7079,2.7079,0,0,1,1.3431-.3288,2.3163,2.3163,0,0,1,1.249.318,1.9632,1.9632,0,0,1,.7528.8254A2.47,2.47,0,0,1,104.0428,152.2948Zm-1.3377-.4957q0-1.2308-.9712-1.2308a.8407.8407,0,0,0-.72.3406,1.6009,1.6009,0,0,0-.2782.89Z"/>
      <path class="b" d="M82.5207,163.1854a2.2828,2.2828,0,0,1-.3563,1.2789,2.3128,2.3128,0,0,1-.9629.8333,3.0591,3.0591,0,0,1-1.33.2885,3.1973,3.1973,0,0,1-1.2867-.264,2.3632,2.3632,0,0,1-.9928-.8038,2.2139,2.2139,0,0,1-.3857-1.3221,2.0955,2.0955,0,0,1,.7984-1.7775,3.05,3.05,0,0,1,1.8992-.6066,2.9079,2.9079,0,0,1,1.4133.3239,2.2077,2.2077,0,0,1,.8981.8677A2.3849,2.3849,0,0,1,82.5207,163.1854Zm-1.49-.0324a3.0706,3.0706,0,0,0-.2424-1.381.965.965,0,0,0-.9442-.4642.9533.9533,0,0,0-1.0492.8284,4.9268,4.9268,0,0,0-.1,1.0983,3.4336,3.4336,0,0,0,.2213,1.3427.9369.9369,0,0,0,.9658.5123.9563.9563,0,0,0,.7469-.2827,1.3711,1.3711,0,0,0,.3293-.7017A5.5833,5.5833,0,0,0,81.0312,163.153Z"/>
      <path class="b" d="M87.6794,161.6641a.6447.6447,0,0,1-.1919.4937.6334.6334,0,0,1-.45.1806.67.67,0,0,1-.54-.3023,1.4292,1.4292,0,0,0-.1782-.1934.2956.2956,0,0,0-.1992-.06.7212.7212,0,0,0-.6557.4564,2.04,2.04,0,0,0-.2345.9462v.9393a1.1729,1.1729,0,0,0,.1158.62q.1163.1663.6124.1668h.2861v.4967h-3.35v-.4967h.2807q.4527,0,.5555-.1727a1.3005,1.3005,0,0,0,.1026-.6144v-1.5753a1.3228,1.3228,0,0,0-.0731-.5182.3809.3809,0,0,0-.2616-.2081,2.585,2.585,0,0,0-.6041-.0511v-.4966l2.1038-.4633a7.1871,7.1871,0,0,1,.1512,1.17,2.2841,2.2841,0,0,1,.3965-.582,2.0668,2.0668,0,0,1,.55-.426,1.3131,1.3131,0,0,1,.6233-.162.97.97,0,0,1,.7013.2484A.8029.8029,0,0,1,87.6794,161.6641Z"/>
      <path class="b" d="M93.9752,165.3437a13.1742,13.1742,0,0,0-2.0882.2424,1.7114,1.7114,0,0,1-.0971-.5663,2.3349,2.3349,0,0,1-1.5159.5663,2.2362,2.2362,0,0,1-1.1788-.3288,2.4305,2.4305,0,0,1-.8632-.898,2.48,2.48,0,0,1-.321-1.2387,2.5436,2.5436,0,0,1,.14-.8254,2.2451,2.2451,0,0,1,.44-.7528,2.0872,2.0872,0,0,1,.742-.5359,2.4838,2.4838,0,0,1,1.0085-.1944,2.2059,2.2059,0,0,1,.712.1021,1.7771,1.7771,0,0,1,.4751.2346,3.2648,3.2648,0,0,1,.3612.316v-1.77a1.6021,1.6021,0,0,0-.0594-.5182.3089.3089,0,0,0-.2238-.1993,2.6524,2.6524,0,0,0-.5369-.0539v-.4967l2.2123-.4632v6.042a2.75,2.75,0,0,0,.0349.5389.3063.3063,0,0,0,.1968.2188,1.8084,1.8084,0,0,0,.5614.0835Zm-2.1853-1.02v-2.1848a2.8738,2.8738,0,0,0-.5394-.5015,1.2341,1.2341,0,0,0-.7444-.2267.9162.9162,0,0,0-.4962.1452,1.1628,1.1628,0,0,0-.3724.372,2.4578,2.4578,0,0,0-.2376,1.2573,2.2406,2.2406,0,0,0,.3377,1.3486,1.01,1.01,0,0,0,.8387.4534,1.34,1.34,0,0,0,.6742-.1776A1.7255,1.7255,0,0,0,91.79,164.3239Z"/>
      <path class="b" d="M99.0937,163.0342H95.7762c.0034.0688.0133.214.0295.4368a2.5466,2.5466,0,0,0,.1511.6861,1.2911,1.2911,0,0,0,.4368.59,1.323,1.323,0,0,0,.8337.24,2.1015,2.1015,0,0,0,.6905-.1452,1.4862,1.4862,0,0,0,.7013-.5615l.4206.2857a2.2078,2.2078,0,0,1-2.0229,1.02,3.4082,3.4082,0,0,1-1.13-.1776,2.5416,2.5416,0,0,1-.8661-.4967,2.16,2.16,0,0,1-.5448-.75,2.2923,2.2923,0,0,1-.1889-.9275,2.4074,2.4074,0,0,1,.316-1.2092,2.3143,2.3143,0,0,1,.9035-.8844,2.7094,2.7094,0,0,1,1.3432-.3288,2.3153,2.3153,0,0,1,1.2489.3181,1.9632,1.9632,0,0,1,.7528.8254A2.47,2.47,0,0,1,99.0937,163.0342Zm-1.3378-.4956q0-1.2308-.9712-1.2308a.84.84,0,0,0-.72.3406,1.6,1.6,0,0,0-.2783.89Z"/>
      <path class="b" d="M104.459,161.6641a.6447.6447,0,0,1-.1919.4937.6334.6334,0,0,1-.45.1806.67.67,0,0,1-.54-.3023,1.4292,1.4292,0,0,0-.1782-.1934.2956.2956,0,0,0-.1992-.06.7212.7212,0,0,0-.6557.4564,2.04,2.04,0,0,0-.2345.9462v.9393a1.1729,1.1729,0,0,0,.1158.62q.1162.1663.6124.1668h.2861v.4967h-3.35v-.4967h.2807q.4527,0,.5555-.1727a1.3005,1.3005,0,0,0,.1026-.6144v-1.5753a1.3228,1.3228,0,0,0-.0731-.5182.3809.3809,0,0,0-.2616-.2081,2.585,2.585,0,0,0-.6041-.0511v-.4966l2.1038-.4633a7.1871,7.1871,0,0,1,.1512,1.17,2.2841,2.2841,0,0,1,.3965-.582,2.0668,2.0668,0,0,1,.55-.426,1.3131,1.3131,0,0,1,.6233-.162.97.97,0,0,1,.7013.2484A.8029.8029,0,0,1,104.459,161.6641Z"/>
      <path class="b" d="M67.2977,175.0085a1.3679,1.3679,0,0,1-.1673.6988,1.0434,1.0434,0,0,1-.45.4269,1.45,1.45,0,0,1-.6394.1374,1.2829,1.2829,0,0,1-.7553-.2129.8215.8215,0,0,1-.3616-.51,2.8927,2.8927,0,0,1-1.8124.7233,1.5363,1.5363,0,0,1-.955-.2836.8929.8929,0,0,1-.3724-.7469,1.2528,1.2528,0,0,1,.2-.693,1.8479,1.8479,0,0,1,.5855-.5535,4.54,4.54,0,0,1,.92-.4289q.5344-.1855,1.3324-.3907v-.3082a.9122.9122,0,0,0-.1806-.6006.8287.8287,0,0,0-.6659-.2189.8588.8588,0,0,0-.5992.1727.9018.9018,0,0,0-.2425.5232.9584.9584,0,0,1-.16.4073.5736.5736,0,0,1-.4829.159.6463.6463,0,0,1-.3989-.13.4476.4476,0,0,1-.1728-.3827,1.0594,1.0594,0,0,1,.5452-.8746,3.0056,3.0056,0,0,1,1.672-.3719,2.492,2.492,0,0,1,1.6322.3994,1.3649,1.3649,0,0,1,.4451,1.0679v1.7048c0,.216.0054.374.0162.4751a.3877.3877,0,0,0,.0889.2287.3149.3149,0,0,0,.4745-.0668.583.583,0,0,0,.1055-.3513Zm-2.4763.0431v-1.3377a3.1907,3.1907,0,0,0-1.3024.634.9247.9247,0,0,0-.2778.6076.5378.5378,0,0,0,.1506.3984.5754.5754,0,0,0,.4265.1512,1.0737,1.0737,0,0,0,.5231-.1237A3.2609,3.2609,0,0,0,64.8214,175.0516Z"/>
      <path class="b" d="M74.9318,172.4036a.6462.6462,0,0,1-.1919.4937.6377.6377,0,0,1-.45.1806.6724.6724,0,0,1-.54-.3023,1.3836,1.3836,0,0,0-.1781-.1944.301.301,0,0,0-.1992-.0589.72.72,0,0,0-.6557.4555,2.0431,2.0431,0,0,0-.2346.9471v.9383a1.1679,1.1679,0,0,0,.1159.62q.1163.1679.6124.1678h.2861v.4957h-3.35v-.4957h.2807q.4527,0,.5555-.1727a1.3066,1.3066,0,0,0,.1026-.6154v-1.5753a1.3315,1.3315,0,0,0-.0731-.5182.38.38,0,0,0-.2616-.2071,2.5307,2.5307,0,0,0-.6041-.0511v-.4966l2.1038-.4642a7.2135,7.2135,0,0,1,.1512,1.1709,2.3069,2.3069,0,0,1,.3965-.583,2.0859,2.0859,0,0,1,.55-.426,1.313,1.313,0,0,1,.6233-.1619.9735.9735,0,0,1,.7012.2483A.8063.8063,0,0,1,74.9318,172.4036Z"/>
      <path class="b" d="M80.8875,175.0085a1.3669,1.3669,0,0,1-.1674.6988,1.0437,1.0437,0,0,1-.45.4269,1.45,1.45,0,0,1-.6394.1374,1.2829,1.2829,0,0,1-.7553-.2129.822.822,0,0,1-.3617-.51,2.8926,2.8926,0,0,1-1.8123.7233,1.5359,1.5359,0,0,1-.955-.2836.893.893,0,0,1-.3725-.7469,1.2536,1.2536,0,0,1,.2-.693,1.849,1.849,0,0,1,.5855-.5535,4.5433,4.5433,0,0,1,.92-.4289q.5345-.1855,1.3323-.3907v-.3082a.9121.9121,0,0,0-.1805-.6006.8291.8291,0,0,0-.666-.2189.8588.8588,0,0,0-.5992.1727.9011.9011,0,0,0-.2424.5232.961.961,0,0,1-.1595.4073.5737.5737,0,0,1-.4829.159.6464.6464,0,0,1-.399-.13.4478.4478,0,0,1-.1727-.3827,1.0592,1.0592,0,0,1,.5452-.8746,3.0052,3.0052,0,0,1,1.672-.3719,2.4922,2.4922,0,0,1,1.6322.3994,1.3649,1.3649,0,0,1,.4451,1.0679v1.7048c0,.216.0054.374.0162.4751a.3877.3877,0,0,0,.0888.2287.315.315,0,0,0,.4746-.0668.5836.5836,0,0,0,.1055-.3513Zm-2.4764.0431v-1.3377a3.1907,3.1907,0,0,0-1.3024.634.9247.9247,0,0,0-.2778.6076.5378.5378,0,0,0,.1507.3984.5751.5751,0,0,0,.4265.1512,1.0742,1.0742,0,0,0,.5231-.1237A3.2657,3.2657,0,0,0,78.4111,175.0516Z"/>
      <path class="b" d="M86.7121,173.9033a2.4757,2.4757,0,0,1-.1889.9678,2.3061,2.3061,0,0,1-.531.78,2.3775,2.3775,0,0,1-.7823.5016,2.5318,2.5318,0,0,1-.9309.1727,2.0636,2.0636,0,0,1-.9923-.2238,2.1217,2.1217,0,0,1-.6856-.5751,7.4823,7.4823,0,0,0-.7174.7989h-.4206v-5.9782a1.0409,1.0409,0,0,0-.0731-.45.3422.3422,0,0,0-.2425-.1835,2.8455,2.8455,0,0,0-.526-.052v-.4849l2.2334-.475v3.49a2.8744,2.8744,0,0,1,.6394-.4505,2.0446,2.0446,0,0,1,.952-.1914,2.2869,2.2869,0,0,1,.9791.2,2.04,2.04,0,0,1,.715.5388,2.3624,2.3624,0,0,1,.4289.7558A2.6179,2.6179,0,0,1,86.7121,173.9033Zm-1.4943-.0432a2.9842,2.9842,0,0,0-.2238-1.1925.8665.8665,0,0,0-.8823-.5182,1.199,1.199,0,0,0-.4663.0952,1.6658,1.6658,0,0,0-.4264.2561,2.355,2.355,0,0,0-.3641.3769v2.1956a1.5162,1.5162,0,0,0,.6448.5369,1.6981,1.6981,0,0,0,.5688.1168.8914.8914,0,0,0,.7125-.3,1.58,1.58,0,0,0,.348-.7145A4.0471,4.0471,0,0,0,85.2178,173.86Z"/>
      <path class="b" d="M92.8023,173.9033a2.4739,2.4739,0,0,1-.189.9678,2.3058,2.3058,0,0,1-.5309.78,2.3775,2.3775,0,0,1-.7823.5016,2.5322,2.5322,0,0,1-.9309.1727,2.0633,2.0633,0,0,1-.9923-.2238,2.1217,2.1217,0,0,1-.6856-.5751,7.4744,7.4744,0,0,0-.7175.7989h-.4205v-5.9782a1.0407,1.0407,0,0,0-.0732-.45.342.342,0,0,0-.2424-.1835,2.8468,2.8468,0,0,0-.5261-.052v-.4849l2.2334-.475v3.49a2.8751,2.8751,0,0,1,.64-.4505,2.0446,2.0446,0,0,1,.952-.1914,2.2864,2.2864,0,0,1,.979.2,2.04,2.04,0,0,1,.7151.5388,2.3624,2.3624,0,0,1,.4289.7558A2.6179,2.6179,0,0,1,92.8023,173.9033ZM91.308,173.86a2.9842,2.9842,0,0,0-.2238-1.1925.8667.8667,0,0,0-.8824-.5182,1.1986,1.1986,0,0,0-.4662.0952,1.6658,1.6658,0,0,0-.4264.2561,2.3512,2.3512,0,0,0-.3642.3769v2.1956a1.5163,1.5163,0,0,0,.6449.5369,1.6975,1.6975,0,0,0,.5687.1168.8916.8916,0,0,0,.7126-.3,1.5787,1.5787,0,0,0,.3479-.7145A4.0472,4.0472,0,0,0,91.308,173.86Z"/>
      <path class="b" d="M96.262,176.147H93.3328v-.4957h.156a.9225.9225,0,0,0,.4559-.0863.3606.3606,0,0,0,.1757-.2434,2.4249,2.4249,0,0,0,.0324-.4584v-1.6018a1.9183,1.9183,0,0,0-.0407-.475.3165.3165,0,0,0-.21-.2052,1.813,1.813,0,0,0-.5688-.07v-.4966l2.2118-.4642v3.3125a1.1892,1.1892,0,0,0,.1133.62q.1134.1679.6041.1678Zm-.6095-6.7056a.785.785,0,0,1-1.57,0,.785.785,0,1,1,1.57,0Z"/>
      <path class="b" d="M100.2381,175.1871a2.14,2.14,0,0,1-.68.8735,1.5785,1.5785,0,0,1-.9118.265,1.42,1.42,0,0,1-.9388-.2591,1.0643,1.0643,0,0,1-.372-.58,3.3645,3.3645,0,0,1-.07-.72v-2.5411H96.451v-.4956a1.9228,1.9228,0,0,0,.89-.1943,1.5507,1.5507,0,0,0,.5958-.5232,1.7657,1.7657,0,0,0,.2782-.7067h.4422v1.4242h1.5267v.4956H98.6574v2.5735a2.6255,2.6255,0,0,0,.0618.6773.2834.2834,0,0,0,.3048.208.5282.5282,0,0,0,.4264-.2031,2.8478,2.8478,0,0,0,.3239-.5035Z"/>
      <path class="b" d="M101.276,169.0371a1.6657,1.6657,0,0,1,1.3206-.4967,1.8414,1.8414,0,0,1,1.3829.51,1.7872,1.7872,0,0,1,.4972,1.3024,1.902,1.902,0,0,1-.7931,1.5969c-.1345.1011-.2262.17-.2753.2081s-.1472.11-.2959.2179a.9487.9487,0,0,0-.3161.3671,2.71,2.71,0,0,0-.1217.847h-.28l-.0093-.4691a3.0376,3.0376,0,0,1,.3464-1.2142,3.6436,3.6436,0,0,0,.346-1.5645,2.2239,2.2239,0,0,0-.1968-1.0354.6674.6674,0,0,0-.633-.3671.5075.5075,0,0,0-.4059.1433.4619.4619,0,0,0-.1212.3043.2961.2961,0,0,0,.0182.1138.6426.6426,0,0,0,.0687.1129l.0643.0913a1.1893,1.1893,0,0,1,.1491.2758.9554.9554,0,0,1,.0432.3131.6843.6843,0,0,1-.1742.4907.5577.5577,0,0,1-.4171.1835.5709.5709,0,0,1-.4446-.2188.944.944,0,0,1-.188-.6341A1.6019,1.6019,0,0,1,101.276,169.0371Zm.7086,5.672a.7136.7136,0,0,1,1.1209,0,1.05,1.05,0,0,1,0,1.3221.7121.7121,0,0,1-1.1209,0,1.0592,1.0592,0,0,1,0-1.3221Z"/>
    </g>
    <path class="b" d="M92.5453,91.1688a3.41,3.41,0,0,0-2.111-1.46,9.4874,9.4874,0,0,0-1.9439.0433,15.158,15.158,0,0,1-4.208-.6172c-2.9812-.8356-7.1062-3.4863-6.9048-7.0252-.012-.0951-.0235-.1905-.0283-.2827-.0291-.0038-.0518-.01-.0788-.0133a3.8431,3.8431,0,0,0-1.2947,2.366,6.8417,6.8417,0,0,0,1.2154,4.9146c1.7741,2.6215,5.1511,4.3016,9.6005,4.944,2.0567.3,4.205.4582,5.3975-.5388A1.6613,1.6613,0,0,0,92.5453,91.1688Zm9.4638-5.6289a3.2421,3.2421,0,0,1-2.44,1.33c-1.8541.0454-3.8717-2.0493-5.1635-3.1715-.31-.27-.9581-1.1054-.4136-1.5791a.6141.6141,0,0,1,.1048-.0633,7.2964,7.2964,0,0,0,1.4086.5512c.9054.2706,2.3591.3345,2.7219-.7632.3863-1.1663-.5671-2.7681-1.0712-3.7857a18.3069,18.3069,0,0,0-2.2519-3.5166c-.3684-.4493-3.5434-4.2834-3.98-4.0911a33.015,33.015,0,0,1-5.0091,1.8412,12.0957,12.0957,0,0,1-5.9558.0922,8.4741,8.4741,0,0,1-4.2457-2.59A4.1725,4.1725,0,0,1,74.6,66.016a1.28,1.28,0,0,1,.4673-.7662,13.0449,13.0449,0,0,0,1.0535.8651,10.9625,10.9625,0,0,0,8.99,2.3376c.813-.1678,1.6056-.5409,2.3989-.7859a10.5382,10.5382,0,0,0-2.0691-1.6506,24.0794,24.0794,0,0,1-2.22-1.7084A3.5115,3.5115,0,0,1,82.1474,61.9a2.0761,2.0761,0,0,1,.8206-1.8074.6862.6862,0,0,1,.4965-.0262c.3177.0687,1.1345,1.5821,1.4219,1.8939A13.82,13.82,0,0,0,86.61,63.5084c1.3067,1.0167,2.723,1.8866,3.9676,2.9822.4128-.2044.7906-.4266,1.1708-.6622,1.2955-.8094,3.08-3.3835,4.8092-2.7581A1.47,1.47,0,0,1,97.7,64.65a3.81,3.81,0,0,1-1.5558,2.67,14.1253,14.1253,0,0,1-2.4666,1.74,39.4377,39.4377,0,0,1,7.1609,7.8891,11.8779,11.8779,0,0,1,1.9625,5.6072A4.4234,4.4234,0,0,1,102.0091,85.54Z"/>
    <path class="b" d="M87.9836,133.6863a6.8972,6.8972,0,0,0-1.537-.1467,13.1592,13.1592,0,0,1-3.7574-.8145,8.37,8.37,0,0,1-1.0818-.52c-2.3971-.8727-4.75-3.1129-4.8958-5.5427a.6536.6536,0,0,0-.2883-.0147c-1.095.2261-1.1919,2.1995-1.02,3.2053.6427,3.56,3.654,5.8171,8.0148,7.2364a9.8589,9.8589,0,0,0,4.9891.5394,1.8394,1.8394,0,0,0,1.5612-1.8939A2.5742,2.5742,0,0,0,87.9836,133.6863Zm11.9658-16.525a4.6954,4.6954,0,0,1-2.347,1.9657,18.0019,18.0019,0,0,1-2.98,1.2979c.5361.9894,1.09,1.9563,1.7092,2.9516a16.55,16.55,0,0,1,1.7461,2.8832,4.3929,4.3929,0,0,1-.2244,3.7348,3.75,3.75,0,0,1-1.1778,1.176c-2.1907,1.3739-4.8816-1.3963-5.9611-2.9451a.9019.9019,0,0,1,.2733-.4958c.7714.6219,2.261,1.1836,3.0148.2673.8348-1.0117.0253-2.3932-.4514-3.3484-.146-.2921-1.514-3.3485-1.5894-3.3337-2.9621.603-6.3474,1.6035-10.109,1.1441a6.3576,6.3576,0,0,1-5.2-3.392c-.3392-.6372-1.1684-2.2955-.2706-2.7254a7.4635,7.4635,0,0,0,3.2065,1.7644,10.3773,10.3773,0,0,0,2.1727.65,8.2194,8.2194,0,0,0,.851.2108c2.9425.5577,5.5439-.1978,7.8921-.7561a38.838,38.838,0,0,0-1.7432-3.5764,11.1639,11.1639,0,0,1-7.0028-.5765,6.8918,6.8918,0,0,1-3.36-2.8209c-.2921-.5358-.66-1.5853.0256-1.8926.3636.2885.7809.5241,1.007.6731a12.0237,12.0237,0,0,0,7.5841,1.6318c-.0762.0094-2.3809-3.2542-2.6777-3.6011a27.3954,27.3954,0,0,1-2.9587-3.8425.8533.8533,0,0,1,.1243-1.2379,2.0316,2.0316,0,0,1,1.3975-.7279,1.9243,1.9243,0,0,1,1.2.5035,18.335,18.335,0,0,1,2.494,3.0322,15.2778,15.2778,0,0,1,1.875,2.8962c.2515.5183.7585,2.0258,1.4708,2.0712.32.0229.949-.639,1.2326-.7956a4.184,4.184,0,0,1,1.5485-.5477,1.6411,1.6411,0,0,1,1.7723,2.3191c-.5115,1.1142-2.11,1.6984-3.2,2.1848.5565,1.1872,1.166,2.3214,1.742,3.4863,1.643-.3982,2.9659-1.6719,4.5356-2.22a1.9249,1.9249,0,0,1,.4129-.1566C99.0363,114.9034,100.4394,115.9305,99.9494,117.1613Zm5.3292-9.731c-1.7422-.0624-2.4018-1.9692-3.57-2.9062a7.0865,7.0865,0,0,0-1.53-.9139c-.1829-.0831-1.7028-.5047-1.7169-.5707a.7011.7011,0,0,1-.0292-.1189c-.0206-.901,1.4661-.88,2.2858-.92a9.1812,9.1812,0,0,1,5.3548,1.2061,3.0471,3.0471,0,0,1,.9809,1.0765A2.1213,2.1213,0,0,1,105.2786,107.43Zm-3.0828,2.99a2.1,2.1,0,0,1-2.66.9859c-1.1636-.4941-1.696-1.9128-2.47-2.8173a5.9214,5.9214,0,0,0-3.4242-1.7325.79.79,0,0,1-.0017-.2014c.1-.6125,1.0561-.6537,1.6818-.7032a8.9627,8.9627,0,0,1,5.8587,1.3309A2.653,2.653,0,0,1,102.1958,110.4207Z"/>
    <path class="b" d="M134.0951,18.2079c-1.4116.0819-2.8721.1687-4.3137.1346a18.2308,18.2308,0,0,1-2.8833-.2524,8.2032,8.2032,0,0,1-1.481-.3825,4.1912,4.1912,0,0,1-.4873-.2847,3.5664,3.5664,0,0,0-.6981-.3863l-.1131.0209v.4947c0,.5143,1.8883,3.6323,6.85,4.0693.3487.0247.7011.0377,1.05.0491.3148.0086.6275.0215.9384.0416l.1752.0111-.1036.1414c-.2939.4042-.7971,1.045-1.3474,1.7131l-.9959,1.6713c-.1233.38-.2467.78-.3421,1.1883l.0076.0215h.1414c1.9825-2.61,5.3489-3.3561,8.3208-4.0156l.3486-.0775c.2574-.0574.5645-.0951.8925-.1345,1.2682-.1555,2.706-.3307,2.706-1.7311,0-1.2078-1.6716-2.5535-4.0687-2.5535a9.9845,9.9845,0,0,0-1.09.0745,10.29,10.29,0,0,1-1.1231.068C135.6845,18.1164,134.8892,18.1617,134.0951,18.2079Z"/>
    <path class="b" d="M133.2715,56.4682l-.1828.0377c-.3552.0274-.8425.065-.8875.3439-.0386.2668.2429.5521.3957.7049l.0772.081c.26.2806.5456.5341.8265.7838a6.6255,6.6255,0,0,1,1.2472,1.3276,9.056,9.056,0,0,1,.9,2.1831c.4325,1.3692.88,2.7843,2.1765,3.1953a3.1455,3.1455,0,0,0,3.3706-.8963,3.5856,3.5856,0,0,0,.9272-2.3714c0-1.7423-.982-3.0746-3.003-4.0714A12.607,12.607,0,0,0,133.2715,56.4682Z"/>
    <path class="b" d="M145.0288,168.513l-.0642-.0212-.0008-.0677c-.01-.4918-.0386-.9912-.0669-1.4847l-.0565-1.1348c-.0775-1.1536-.2574-4.2589-.2574-8.1409v-1.44l.0689-.0206c3.7913-1.1419,5.7135-2.61,5.7135-4.3643,0-1.5435-1.3436-1.8975-2.6418-2.2408-.14-.0453-.3357-.1148-.5674-.2031l-.8442-.5018c0,.0189.0018.04.0018.06l.0038.11a2.6579,2.6579,0,0,0,.5088.5995,3.1421,3.1421,0,0,1,.2818.3033c.7567,1.063.8018,1.8827.1366,2.4351a1.97,1.97,0,0,1-1.1645.42.8767.8767,0,0,1-.896-.58,1.5036,1.5036,0,0,1,.0283-.7915,2.2474,2.2474,0,0,0,.0629-.4334c.0009-.2491.0112-.5336.0227-.8333a9.61,9.61,0,0,0-.1245-2.6271c-.4417-1.5712-2.4-3.1164-3.5381-3.1223a2.339,2.339,0,0,0-2.2708,1.6336l.1348.0306c.5521.3958.9338.6743,1.0044.75a3.62,3.62,0,0,1,.7087,1.2491,9.4279,9.4279,0,0,1,.3392,3.1323v.3056c0,1.9328,0,1.9328-.0058,1.95-.1072.1673-.3711.2333-.84.2333a19.2886,19.2886,0,0,1-2.7457-.3263,18.7,18.7,0,0,1-3.5728-1.0117c-.0943-.0354-.2282-.1013-.3825-.1755-.4638-.2274-1.1667-.5465-1.4078-.4122a.2873.2873,0,0,0-.1434.2037,3.0855,3.0855,0,0,0,.588,1.7408,8.23,8.23,0,0,0,1.35,1.4722,8.9648,8.9648,0,0,0,5.6581,1.8091,10.1393,10.1393,0,0,0,1.4018-.0871l.1075-.0153.0056.6489c.04,3.6382.0792,7.0856.1151,8.751V167.76l-.1092-.0147a15.7747,15.7747,0,0,0-2.0411-.1337c-4.7035,0-8.3877,2.1765-8.3877,4.9579,0,2.6665,3.019,5.0957,6.3357,5.0957a7.5212,7.5212,0,0,0,7.1459-5.7288l.0339-.1249.11.07a9.8112,9.8112,0,0,1,3.1312,3.1489c.7443,1.1836,1.4754,1.4345,1.959,1.4345a2.0465,2.0465,0,0,0,1.7911-2.226C151.6489,172.0987,148.2124,169.6,145.0288,168.513Zm-4.5557,3.8643A4.53,4.53,0,0,1,138.98,173.62a5.6848,5.6848,0,0,1-2.2181.5877c-.1528.0112-.3071.0165-.4617.0165a5.5159,5.5159,0,0,1-3.0773-.8422.5962.5962,0,0,1-.2073-.7949,3.7316,3.7316,0,0,1,2.2066-1.7226,7.2455,7.2455,0,0,1,3.07-.6142,13.4349,13.4349,0,0,1,2.95.3734C141.3661,170.8309,140.4834,172.3643,140.4731,172.3773Z"/>
    <path class="b" d="M154.44,91.6888c.0621-.45-.4089-.8771-.72-1.16-.8968-.8188-1.4425-1.3117-2.2763-2.0419-.09-.081-.19-.1838-.296-.2922a2.3394,2.3394,0,0,0-.8292-.651c-1.1709-.2676-1.8185.6416-2.4062,1.5341l-.1884.2836c-.0342.0488-.0869.1328-.1508.2364-.3789.6077-.737,1.1589-.9631,1.2325a3.6869,3.6869,0,0,1-1.0421.0263c-.1648-.0112-.3221-.0215-.4505-.0215-.5144,0-1.0061.0065-1.4887.012-.9346.0115-1.8315.0236-2.7757-.012l-.0934-.003V90.739c.0021-1.79-.0082-3.3609-.0177-4.9267-.0132-2.0411-.0265-4.0752-.0132-6.5815l.0009-.0869.0877-.0085c.6708-.0622,1.464-.09,2.494-.09.5435,0,1.1015.0077,1.666.015.9251.0115,1.8683.0235,2.7955.0059l.1148-.003c.61-.015,1.63-.0406,1.7264-.43.1357-.537-.6794-1.209-.9856-1.4613l-.0813-.0671a8.9441,8.9441,0,0,0-1.5829-1.1175l-.1375-.1546a1.3515,1.3515,0,0,0-.669-.5406,1.6026,1.6026,0,0,0-1.696.7942,3.8027,3.8027,0,0,0-.26.4805c-.3469.6964-.6369,1.2287-.9516,1.2287l-1.6283.003-.8922-.003-.0009-.096c-.0009-.7652-.0085-1.403-.0162-2.0437-.01-.8313-.02-1.6651-.0168-2.7805a1.89,1.89,0,0,1,.4909-.4043c.4051-.2573.7876-.5014.7387-1.0223-.0539-.5606-.9855-.9195-1.6018-1.158l-.1375-.0536a15.6352,15.6352,0,0,0-1.7075-.5477c-.2261-.063-.4428-.1225-.6463-.1847l.0283-.1884c1.1071-.0038,2.1877-.05,3.3325-.098,1.2014-.0507,2.4416-.1037,3.7266-.1037l.4958.003c.59.0047,1.1946.0179,1.795.0312.6934.015,1.3821.03,2.0352.033.2382.0017.487.02.7358.0386a8.1755,8.1755,0,0,0,1.02.0308c.5833-.0424,1.224-.2175,1.272-.5841.0445-.3787-.3693-.7715-.6716-1.058l-.1281-.1234a21.2759,21.2759,0,0,0-1.7573-1.52l-.5062-.4081c-.0732-.0592-.1619-.1413-.26-.2309a2.727,2.727,0,0,0-.8934-.6415,1.2668,1.2668,0,0,0-1.5847.7246l-.475.7679c-.3524.5739-.6848,1.1165-1.0685,1.6309q-2.53.0624-5.1708.132c-3.0906.0791-6.462.1443-8.9889.0359-.24-.0086-.4844-.0292-.7255-.05-.313-.0262-.6219-.0527-.9161-.0527l-.1769.0029c-.1894.01-.3958.013-.6069.016a5.8793,5.8793,0,0,0-1.5659.1507,2.7861,2.7861,0,0,1,.033.4741c.0036.128.0065.2553-.0011.3722a2.385,2.385,0,0,0,.8689.669,2.5044,2.5044,0,0,0,.9289.047c.1573-.0132.3175-.0264.4815-.0264l.4475.0038c.9594,0,1.9723-.0539,2.9513-.1066,1.2558-.0669,2.5534-.1375,3.7442-.0913l.0907.0027.0026.0907c.0857,2.5543.0989,5.6654.0368,8.3217l-.0017.0924-.0925.0017c-2.0314.05-4.1459.0066-6.0886-.0347-.6333-.0132-1.2476-.0256-1.8347-.035a.61.61,0,0,0-.3722.4025,1.1149,1.1149,0,0,0,.3778.8978c.1434.1545.6719.3383,2.3718.3383,1.272,0,2.8-.1019,3.9158-.1752.6823-.0453,1.2267-.081,1.502-.081.1422,0,.29,0,.29.1213l-.0017,3.1707c-.0039,3.0057-.0086,6.1141.0377,8.337l.0017.096-.0968.002c-1.7876.0347-3.6927.0424-5.5716.0424l-4.8119-.0068c-.0856,0-.1763-.0047-.2685-.0094-.09-.0056-.1828-.01-.2732-.01-.311,0-.4826.0689-.5769.2317a1.1553,1.1553,0,0,0,.2733.8689,2.29,2.29,0,0,0,1.7113.4665c.1487,0,.3024-.0047.4579-.0116,5.9717-.2732,12.4118-.4,20.2654-.4.6286,0,1.3.0171,1.9845.0342.5765.015,1.1625.03,1.7411.0356.1658.0009.373.0115.603.0236.2977.0161.6334.035.9632.035C153.8705,92.2336,154.384,92.0555,154.44,91.6888Z"/>
    <path class="b" d="M153.0772,108.4668l-.0924-.0742a50.4963,50.4963,0,0,0-5.3943-3.8078c-.01.0506-.3042.42-1.2558,1.941l-.132.2085c-.0895.136-.1789.2814-.2714.4334-.5032.82-1.0721,1.749-2.0824,1.785h-.0132c-.2627,0-.8451-.0189-1.5809-.043-1.2938-.0436-3.0661-.1-4.1223-.1a4.12,4.12,0,0,0-.8536.0353l-.053-.0754h-.0968v-.0106c.0038-1.0577-.015-2.0529-.036-3.0611-.015-.8044-.0309-1.6183-.0356-2.4757a2.1582,2.1582,0,0,1,.5594-.4264c.4844-.29,1.033-.6177,1.033-1.1306-.0012-.7173-1.2985-1.1284-2.2455-1.4282-.1931-.0618-.3739-.1183-.5285-.1736a34.1124,34.1124,0,0,0-3.4524-1.07,3.5521,3.5521,0,0,0-.4776.0377,2.3258,2.3258,0,0,1-.2668.03,12.1959,12.1959,0,0,0-.1027,3.4469c.2008,4.323.227,6.52.08,6.5255-1.3925.0324-2.6109.0136-3.9677-.0053-2.1907-.03-4.957-.0112-8.5337-.1319l-.2432-.0094c-.1773-.0094-.3563-.0171-.5239-.0171-.2753,0-.6557.0212-.7829.1943a4.344,4.344,0,0,0,1.6159,1.9387c.0978-.0259.2695-.0566.4429-.0883.1375-.0248.2767-.0507.4146-.0637.3833-.0459.7714-.0812,1.1457-.1095,4.291-.3168,8.8287-.3374,13.2186-.3581,1.16-.0058,2.3073-.0094,3.4371-.0211h.11l-.0132.1095c-.59,4.7606-1.2729,9.3187-3.13,12.7355l-.066.1224-.0912-.106a37.9719,37.9719,0,0,1-5.0286-8.5684l-.1037-.232a2.6185,2.6185,0,0,0-.5888-.9741,1.8514,1.8514,0,0,0-1.4322.04,1.15,1.15,0,0,0-.1923.109,10.34,10.34,0,0,1-4.2015,3.147,3.32,3.32,0,0,0,.9037,2.1878,2.1185,2.1185,0,0,0,1.4416.8745,2.5136,2.5136,0,0,0,.3786-.1131,11.48,11.48,0,0,0,1.0291-.9251c.3816-.4924.7753-.9482,1.1542-1.3816.0451-.053.0884-.1107.132-.1673a1.1961,1.1961,0,0,1,.57-.4846l.0828-.023.4,1.0012a68.2756,68.2756,0,0,0,3.8122,8.4141c.2291.3975-1.43,2.2649-2.8623,3.763a28.76,28.76,0,0,1-5.9758,4.6582c-1.1684.7108-2.1389,1.252-3.0547,1.6984-.2912.1431-2.9568,1.0176-3.4467,1.1778.0595.2544.4239.371.7576.3863l.16.0017a8.5518,8.5518,0,0,0,2.1115-.3633l.3327-.0848a46.334,46.334,0,0,0,6.8377-2.4522,28.0189,28.0189,0,0,0,5.969-3.2754,9.8761,9.8761,0,0,0,.7691-.68,8.4363,8.4363,0,0,1,.8574-.7432l.0789-.0565.0566.0795c.3074.4317.6012.871.8963,1.3114a17.22,17.22,0,0,0,3.0375,3.7254,29.2951,29.2951,0,0,0,4,2.7231l.1885.1118a3.2476,3.2476,0,0,0,1.3551.5707l.017.0942h.0009V138.68a1.5866,1.5866,0,0,0,.3213-.0359,30.5992,30.5992,0,0,1,3.9968-2.9245c.0612-.0359.3036-.1507.6407-.3015.6154-.2791,2.85-1.2662,3.4392-1.4074-.2053-.3339-1.1-.536-1.6018-.649l-.29-.066c-.4146-.1036-.8284-.1991-1.2232-.2921s-.767-.179-1.1024-.265a27.5747,27.5747,0,0,1-8.1606-3.3,13.8828,13.8828,0,0,1-3.1386-2.6476l-.0414-.0471.2865-.5819a56.1267,56.1267,0,0,0,4.0627-9.775,2.4386,2.4386,0,0,1,.5748-.2221c.737-.2114,1.6545-.4734,1.7084-1.1083.0462-.5806-.604-1.0517-1.0789-1.3945-.9743-.7066-2.03-1.3309-3.049-1.9339-.7255-.4293-1.4116-.8345-1.994-1.2225l-.2467-.1661.2976-.0112c4.1685-.1619,8.878.0583,12.1926.2432l.3562.0224c.39.0265.863.0565,1.3239.0565,1.0767,0,1.6669-.1767,1.7525-.5253C154.3322,109.452,153.5163,108.8113,153.0772,108.4668Z"/>
    <path class="b" d="M128.0156,161.2425c.033-.0624.1225-.2509.2329-.4829.2647-.56.4184-.8775.5135-1.0606a4.4609,4.4609,0,0,0-1.4454,1.0971l-.2224.22a10.1525,10.1525,0,0,0-1.8394,2.6984c-.3239.6277-.6095,1.2684-.8686,1.8691-.0471.1095-.1319.2679-.2291.447a3.3592,3.3592,0,0,0-.4981,1.2384l-.1906.0224a8.9771,8.9771,0,0,1-.0638-1.0577c0-2.8054,1.2078-5.87,2.2725-8.5719.2356-.6066.4655-1.146.6784-1.6377a9.182,9.182,0,0,0,1.0309-3.6707,6.4155,6.4155,0,0,0-3.9574-5.9914c-.29-.1371-.5974-.25-.9028-.3633a7.2283,7.2283,0,0,1-1.3924-.626.8951.8951,0,0,0-.0813.2249c-.1016.4653.4723,1.2868.8916,1.8857a6.8144,6.8144,0,0,1,.4493.6919,9.2287,9.2287,0,0,1,1.0639,3.918,16.2189,16.2189,0,0,1-.5474,3.5917l-.1649.7331c-.1979.8727-.4317,1.7638-.6711,2.6724a36.4162,36.4162,0,0,0-1.5714,9.4542c0,3.7748,1.0438,9.7633,3.846,9.7633a1.7742,1.7742,0,0,0,1.6678-1.9652,3.66,3.66,0,0,0-.3053-1.3851c-.7989-1.9468-.31-4.0068.164-5.9984.083-.3522.1658-.7009.24-1.0459.0857-.3958.1658-.7938.2459-1.1908A20.7245,20.7245,0,0,1,128.0156,161.2425Z"/>
    <path class="b" d="M117.5212,92.551c.0942.0595.1846.1169.2676.1746.2524.1735.5371.3654.83.5618l.21.1449c.4788.3333,1.1422.8068,1.6557.7385.4287-.0566.8056-.7444,1.0156-1.37.4637-1.3485.8179-2.8261,1.161-4.2545.146-.6107.2891-1.2031.4325-1.7564.311-1.1768.5783-2.5393.8386-3.8584.1619-.816.323-1.6366.4964-2.4271l.0424-.1735c.096-.3712.35-1.3568.1431-1.6245a.1355.1355,0,0,0-.1186-.0553c-.4108.0724-.7123.8583-.8742,1.28l-.0775.2a34.5512,34.5512,0,0,1-6.3412,10.5012,7.9162,7.9162,0,0,1-.5833.568,1.3869,1.3869,0,0,0-.0254.3863C116.6779,92.0157,117.1255,92.3,117.5212,92.551Z"/>
    <path class="b" d="M153.8387,15.8618a1.8217,1.8217,0,0,0,1.5885-.899,2.3853,2.3853,0,0,0,.111-2.2669,3.0986,3.0986,0,0,0-.9988-1.093,9.5965,9.5965,0,0,0-5.5618-1.2505l-.2291.0105c-.8347.033-2.0955.0837-2.0767.8584l-.0677.1242.0942-.0206c.0454.0027.6484.1864,1.0476.3071.3311.1007.6258.19.7011.2253a7.5339,7.5339,0,0,1,1.6275.9722,7.6381,7.6381,0,0,1,1.13,1.2343c.6822.8631,1.3871,1.7556,2.5611,1.797l.0668.0884.0068-.0009v-.0865Z"/>
    <path class="b" d="M115.256,72.6879a.8976.8976,0,0,0-.0771.2317,8.9187,8.9187,0,0,1,1.55-.1773,3.1943,3.1943,0,0,1,1.0883.1688,6.5436,6.5436,0,0,1,1.6713,1.0526,4.4673,4.4673,0,0,0,2.4442,1.2258,1.9824,1.9824,0,0,0,1.2288-.4609,1.9142,1.9142,0,0,0,.4607-1.3585,2.8666,2.8666,0,0,0-.7982-2.141,3.36,3.36,0,0,0-2.8511-.9225,8.2331,8.2331,0,0,0-3.7492,1.5795l-.1885.1289A2.695,2.695,0,0,0,115.256,72.6879Z"/>
    <path class="b" d="M118.1619,60.4332a4.7223,4.7223,0,0,1,3.32,3.4315c.3533.5919.8009,1.2561,1.52,1.3607a2.3076,2.3076,0,0,0,2.0211-.6934,2.5268,2.5268,0,0,0,.6634-1.9034,2.8512,2.8512,0,0,0-1.0252-1.9242,6.2032,6.2032,0,0,0-3.52-.9166c-.1157,0-.2317.0027-.3448.0074C119.22,59.8555,118.1864,60.1052,118.1619,60.4332Z"/>
    <path class="b" d="M143.21,14.51c-.6278.0471-1.487.1111-1.5735.6481a.597.597,0,0,0,.0017.164l.2373.0218a5.8762,5.8762,0,0,1,3.3376,1.7685,9.8732,9.8732,0,0,1,.7341,1.0308,4.5711,4.5711,0,0,0,1.8232,1.9,2.1652,2.1652,0,0,0,2.67-.9864A2.67,2.67,0,0,0,149.4,15.8785a8.7123,8.7123,0,0,0-5.1588-1.41c-.3062,0-.616.0111-.9269.0338Z"/>
    <path class="b" d="M120.4948,40.765c0,6.4354,10.6888,7.8449,14.8081,7.8449,6.49,0,11.7706-1.8249,11.7706-4.0675,0-1.143-1.2308-1.9118-3.0623-1.9118a11.088,11.088,0,0,0-1.2484.1054,12.1705,12.1705,0,0,0-1.8554.5353,20.1929,20.1929,0,0,1-2.7872.8018,20.808,20.808,0,0,1-4.1082.4034c-3.5861,0-8.1182-.803-10.0837-3.0567a4.1759,4.1759,0,0,1-.9854-3.458,3.542,3.542,0,0,1,.5285-2.0608C122.4508,36.1733,120.4948,38.364,120.4948,40.765Z"/>
    <path class="b" d="M47.2259,30.0215c-2.02,0-2.4451.4731-2.5346.8141a11.37,11.37,0,0,1,1.8353.9272,6.1212,6.1212,0,0,1,1.0723,1.1242,4.82,4.82,0,0,1,1.39,1.8477c.1807.1875.3571.3748.5181.5671a2.45,2.45,0,0,0,1.8121.9478,2.2312,2.2312,0,0,0,2.0991-2.3347C53.4181,31.98,51.2878,30.0215,47.2259,30.0215Zm5.0907-7.5859a7.5959,7.5959,0,0,1-.8987-.0565,14.1443,14.1443,0,0,0-2.3971-.1923,15.4368,15.4368,0,0,0-6.3527,1.2261c-2.8879,1.544-5.4226,8.2339-5.4226,14.3143,0,8.2474,4.7171,9.1379,6.7438,9.1379a8.1386,8.1386,0,0,0,2.5214-.427A4.2893,4.2893,0,0,1,47.9,46.2205c1.5282,0,2.6815.9148,2.6815,2.1274,0,2.54-4.4585,3.0952-6.1772,3.0952-1.714,0-10.2686-.5889-10.2686-12.2452a30.3858,30.3858,0,0,1,.9516-7.4133A27.1511,27.1511,0,0,1,36.1178,28.51c.048-.1225.1093-.3007.1829-.5118.2561-.7491.734-2.1427,1.15-2.3462l-.1366-.2779h0a9.0467,9.0467,0,0,1-1.1148.43c-.341.116-.6849.2329-1.0129.3769-.9222.42-1.8353.8612-2.7455,1.3088l-.3289.162c-2.0278,1-3.7783,1.8646-6.0653,1.8646l-.2108-.0038c-1.212-.027-4.0292-.3709-4.0292-2.9585a.9438.9438,0,0,1,.3327-.801,4.0353,4.0353,0,0,0,2.5988.8227H24.74c2.3971,0,5.3047-1.4425,7.4274-2.4969.5448-.2724,1.0432-.5182,1.4711-.7123l1.6412-.7452A65.94,65.94,0,0,1,45.72,18.56a8.6381,8.6381,0,0,0,.8273-.2686,13.0609,13.0609,0,0,1,3.02-.6145c.4125-.0377.8386-.0592,1.2606-.0592,1.6924,0,4.5332.3654,4.5332,2.8208C55.3611,21.4321,54.4207,22.4356,52.3166,22.4356Zm6.8114,8.14a2.1311,2.1311,0,0,1-2.0558,2.2407c-1.8665,0-2.544-2.1229-3.493-3.3354-.8687-1.111-2.0765-1.2373-3.2543-1.7714.2109-.7568,1.5744-.9329,2.7455-.9329C56.0867,26.7766,59.128,27.9524,59.128,30.5756Z"/>
    <path class="b" d="M59.9687,70.3643c.0009-2.0655-3.1877-3.377-5.3916-3.4948a4.2785,4.2785,0,0,0-.5286-.0008,11.638,11.638,0,0,1-4.2071-.5409,8.5455,8.5455,0,0,1-1.8826-.8463,7.26,7.26,0,0,1-.6661-.5718,7.4806,7.4806,0,0,0-.5906-.5135l-.0133.0009c.1517.8921,1.6489,2.9783,2.4987,2.9783v.0009l.0188-.0026.0133.3109c-1.1646.048-2.3217.1216-3.5364.2064l-.1872.013.0235-.1864c.129-1.0527.2892-2.0892.4909-3.168a8.971,8.971,0,0,0,.1545-1.4331,3.5529,3.5529,0,0,0-3.72-3.8555,2.43,2.43,0,0,0-2.0429.833,13.1849,13.1849,0,0,1,1.245,1.5536,7.1344,7.1344,0,0,1,.5358,2.3443c.0039.0415.2848,4.1685-.1062,4.2127-2.5167.2706-4.9158.5945-7.7914.9932L33.13,69.355c-1.0864.149-2.1821.2988-3.2939.4381a16.4987,16.4987,0,0,1-2.0673.1284,9.8133,9.8133,0,0,1-1.2609-.0783l-.1092-.0017a1.2537,1.2537,0,0,1-.3166-.0295,16.4631,16.4631,0,0,1-2.3508-.7962,1.023,1.023,0,0,0-.555,1.0432c0,2.3462,2.8567,3.98,5.4225,3.98a8.27,8.27,0,0,0,3.1865-.657,39.7751,39.7751,0,0,1,10.2763-2.5779l.1695-.0188.0027.1705c.0321,1.8524.0613,3.5531.0707,4.9591l.002.2026-.1969-.0527a5.7473,5.7473,0,0,0-1.5085-.2026,4.3443,4.3443,0,0,0-4.5389,4.7261,9.6509,9.6509,0,0,0,1.8827,5.5139,3.0654,3.0654,0,0,0,2.5817,1.3945,3.3978,3.3978,0,0,0,.714-.06c.0566-.01.11-.0262.1631-.0394a1.4525,1.4525,0,0,1,.3581-.0622l.1725-.0047-.0132.1705c-.1528,2.0571-1.6471,3.9347-3.034,5.5359A15.0591,15.0591,0,0,1,36.69,94.9811l-.5192.4052a11.3066,11.3066,0,0,1-1.5706.9969,3.3229,3.3229,0,0,0-.73.467c.0133.0024.05.0271.1328.0607a.9382.9382,0,0,0,.3174.043,12.293,12.293,0,0,0,3.1821-.84A13.7078,13.7078,0,0,0,40.88,94.2049a15.8906,15.8906,0,0,0,4.8552-6.1531,13.0039,13.0039,0,0,0,1.1722-5.2388,6.5226,6.5226,0,0,0-1.5894-4.7338l-.0386-.096-.0171-.41c-.0453-.9961-.1036-2.236-.1036-3.6691,0-1.02.032-2.0955.0933-3.1959l.0074-.1426.1425-.0034c.5135-.0142,1.0155-.0142,1.5008-.0142a34.1562,34.1562,0,0,1,9.7512,1.3265,3.1046,3.1046,0,0,0,2.7107-.2806A1.4945,1.4945,0,0,0,59.9687,70.3643ZM41.0457,83.5509c-2.2961,0-2.5234-3.6267-2.5234-3.6626,0-1.1174.5523-1.7855,1.4767-1.7855a2.7176,2.7176,0,0,1,2.397,1.5914,6.1071,6.1071,0,0,1,.1307,1.242C42.5267,83.0986,41.7224,83.5509,41.0457,83.5509Z"/>
    <path class="b" d="M41.54,111.4873a5.7031,5.7031,0,0,0-1.4943.1978l-.2733.066.09-.2638a20.6375,20.6375,0,0,0,1.1419-5.1352c0-2.5871-1.5529-3.5093-3.0057-3.5093a5.07,5.07,0,0,0-3.165,1.4175,4.3593,4.3593,0,0,1,1.8346,2.5064,3.2029,3.2029,0,0,1,.3025,1.6071,19.3816,19.3816,0,0,1-.7332,4.5062l-.0227.0812-.0771.0242c-.4258.1431-.8866.3245-1.371.5129a13.2658,13.2658,0,0,1-4.5162,1.1831,4.1814,4.1814,0,0,1-1.2691-.1831,10.9015,10.9015,0,0,1-2.6648-2.0765,2.96,2.96,0,0,0-.4746,1.9769,4.0007,4.0007,0,0,0,4.2,3.9721,13.9071,13.9071,0,0,0,4.1243-1.1925l.3805-.16-.1838.3716a102.3816,102.3816,0,0,1-8.2151,13.157,6.4409,6.4409,0,0,0-1.5453,3.4427,1.5262,1.5262,0,0,0,1.6233,1.6678c1.0592,0,2.6027-.88,3.6662-2.8515.6107-1.1283,1.29-2.4227,2.0052-3.8119l.197-.3822.0913.4182c.0633.2862.1678.656.3091,1.1472a5.6554,5.6554,0,0,1,.2083,1.4686c.0556,1.1284.1206,2.4081,1.8579,2.9622a5.5061,5.5061,0,0,0,1.9195.3168c5.0221,0,10.36-5.3089,10.36-15.1458C46.84,114.2763,45.0549,111.4873,41.54,111.4873Zm-4.2751,19.2256a2.9355,2.9355,0,0,1-1.3247-.3922,2.362,2.362,0,0,1-.63-.2567,4.2038,4.2038,0,0,1-2.4507-1.7538,1.0239,1.0239,0,0,1-.0527-.6843l-.2043-.0188.1045-.2014c1.3058-2.5764,3.7689-7.5379,5.5844-11.8274,1.8845-1.33,2.8062-1.3945,2.9728-1.3945,1.3418,0,2.0514,1.6189,2.0514,4.6758C43.3147,124.4541,40.7271,130.7129,37.2644,130.7129ZM55.22,125.0537h-.1075c-.457.0152-.9649.03-1.5294.03-1.1127,0-2.0343-.0642-2.0343-.8439a.6177.6177,0,0,1,.0659-.2627c.1208-.0241.4052-.073.7255-.1236.6926-.119,1.1967-.2062,1.3542-.26a13.3913,13.3913,0,0,0,1.8609-.7467c1.613-.8233,2.43-1.8256,2.43-2.9775,0-2.8037-2.4557-4.96-7.5079-6.5839.0887-.3392.4665-.5111,1.13-.5111,6.2431,0,10.7753,3.2943,10.7753,7.83a5.1275,5.1275,0,0,1-1.9684,4.28,2.996,2.996,0,0,1-1.8241.5654,9.1113,9.1113,0,0,1-1.5847-.1908A10.441,10.441,0,0,0,55.22,125.0537Z"/>
    <path class="b" d="M 79.555 11.941 C 79.953 9.391 82.835 8.058 84.112 8.018 C 83.752 6.635 83.668 0.698 85.401 0.001 C 85.401 0.001 86.875 -0.209 86.411 5.457 C 86.411 5.457 86.048 6.826 85.666 7.943 L 86.889 8.248 C 90.2 0.895 93.318 1.763 93.318 1.763 C 95.516 3.23 88.75 9.604 88.75 9.604 C 89.529 11.269 88.745 14.038 88.745 14.038 C 90.603 13.852 92.456 14.423 93.887 15.622 C 95.856 14.285 96.572 16.022 96.572 16.022 C 97.066 17.563 95.251 18.177 95.251 18.177 C 96.861 20.386 96.238 21.319 95.874 21.71 C 95.412 22.091 93.497 20.718 93.497 20.718 C 92.347 20.495 91.43 19.821 90.147 19.75 C 87.553 19.633 84.971 20.162 82.633 21.29 C 81.318 21.941 80.356 22.221 79.837 21.811 C 79.209 19.662 83.218 16.346 83.218 16.346 C 83.761 15.853 82.822 15.701 82.822 15.701 C 80.85 15.631 79.35 13.904 79.555 11.941 Z M 101.447 31.574 C 101.525 33.764 100.996 35.932 99.917 37.838 C 94.804 47.565 80.093 51.974 77.919 52.095 C 77.34 52.127 77.201 51.834 77.187 51.578 C 77.17 51.278 77.154 50.994 79.432 50.009 C 86.671 46.937 96.768 40.096 96.768 31.778 C 96.768 27.54 92.548 25.752 90.399 25.875 C 88.355 26.072 86.387 26.755 84.661 27.869 C 83.412 28.802 81.928 29.372 80.375 29.516 C 77.14 29.697 74.781 27.937 74.685 26.241 C 74.617 25.294 75.229 24.432 76.145 24.185 C 76.614 24.186 77.036 24.473 77.21 24.909 C 77.553 25.366 78.453 25.426 79.143 25.387 C 80.506 25.256 81.849 24.962 83.142 24.512 L 83.25 24.477 C 85.684 23.71 88.194 23.211 90.736 22.991 C 96.931 22.64 101.191 27.079 101.447 31.574 Z" style="stroke-width: 1;"/>
    <path class="b" d="M 9.252 91.144 C 9.252 87.574 10.254 83.914 11.395 83.312 C 11.598 83.197 11.851 83.217 12.033 83.364 C 12.083 83.399 12.142 83.418 12.203 83.418 C 12.303 83.418 12.397 83.368 12.454 83.286 C 12.55 83.148 12.514 82.957 12.374 82.864 C 11.244 82.09 10.089 79.798 9.557 76.808 C 10.46 76.39 10.663 75.195 9.948 74.502 C 10.442 74.169 10.738 73.613 10.738 73.017 C 10.738 72.028 9.936 71.8 8.948 71.8 C 7.959 71.8 7.157 72.028 7.157 73.017 C 7.157 73.613 7.454 74.17 7.949 74.502 C 7.233 75.195 7.436 76.39 8.34 76.808 C 7.808 79.798 6.653 82.09 5.523 82.861 C 5.44 82.917 5.39 83.012 5.39 83.112 C 5.39 83.173 5.408 83.233 5.443 83.283 C 5.5 83.366 5.593 83.416 5.694 83.416 C 5.754 83.415 5.814 83.397 5.864 83.363 C 6.045 83.216 6.298 83.195 6.501 83.309 C 7.643 83.914 8.645 87.574 8.645 91.144 C 8.645 91.378 8.898 91.524 9.101 91.407 C 9.194 91.353 9.252 91.252 9.252 91.144 Z"/>
    <path class="b" d="M 9.129 24.283 C 9.141 24.287 9.154 24.289 9.167 24.29 C 9.815 24.199 10.246 23.571 10.097 22.934 C 9.742 22.124 10.51 23.015 11.21 22.782 C 11.665 22.63 12.13 21.906 11.513 21.921 C 10.197 21.957 9.8 19.49 9.689 17.627 C 9.68 17.442 9.667 17.222 9.658 16.99 C 10.261 15.296 11.67 14.014 13.414 13.573 C 13.373 13.648 13.343 13.728 13.324 13.811 C 13.159 14.541 13.847 15.175 14.561 14.953 C 15.168 14.764 15.433 14.052 15.098 13.512 C 15.179 13.56 15.267 13.595 15.358 13.616 C 16.088 13.783 16.724 13.097 16.504 12.382 C 16.284 11.666 15.371 11.458 14.862 12.006 C 14.776 12.099 14.709 12.208 14.664 12.326 C 14.73 11.583 13.967 11.047 13.29 11.361 C 12.613 11.676 12.531 12.605 13.142 13.034 C 13.179 13.06 13.219 13.084 13.26 13.104 C 12.855 13.204 12.465 13.352 12.096 13.545 C 11.393 13.911 9.588 12.387 9.687 11.085 C 9.735 9.92 10.233 8.818 11.079 8.014 C 11.541 7.665 12.196 7.734 12.575 8.173 C 12.857 8.592 12.871 9.136 12.612 9.57 C 12.48 9.869 12.861 10.102 13.299 9.975 C 14.231 9.575 14.84 8.663 14.853 7.649 C 14.854 6.2 13.562 5.092 12.13 5.314 C 11.329 5.588 10.653 6.14 10.225 6.87 C 10.317 6.32 10.452 5.777 10.628 5.248 C 11.183 3.779 9.817 0 9.167 0 C 9.154 0.003 9.141 0.007 9.129 0.012 C 9.117 0.007 9.104 0.003 9.091 0 C 8.441 0 7.075 3.779 7.63 5.248 C 7.806 5.777 7.941 6.32 8.033 6.87 C 7.605 6.14 6.929 5.588 6.129 5.314 C 4.696 5.092 3.404 6.199 3.404 7.649 C 3.416 8.663 4.025 9.575 4.957 9.975 C 5.397 10.103 5.778 9.869 5.645 9.57 C 5.385 9.136 5.4 8.592 5.683 8.173 C 6.062 7.734 6.718 7.665 7.18 8.016 C 8.026 8.819 8.525 9.92 8.572 11.085 C 8.672 12.387 6.867 13.911 6.163 13.545 C 5.794 13.352 5.403 13.204 4.998 13.104 C 5.664 12.766 5.713 11.834 5.087 11.427 C 4.462 11.019 3.63 11.442 3.59 12.188 C 3.587 12.234 3.588 12.28 3.592 12.326 C 3.327 11.628 2.406 11.478 1.934 12.056 C 1.462 12.635 1.793 13.507 2.53 13.627 C 2.653 13.647 2.778 13.643 2.9 13.616 C 2.991 13.594 3.079 13.559 3.16 13.512 C 2.766 14.148 3.209 14.971 3.956 14.994 C 4.59 15.013 5.072 14.43 4.934 13.811 C 4.915 13.728 4.885 13.648 4.844 13.573 C 6.589 14.013 7.999 15.296 8.602 16.992 C 8.592 17.222 8.58 17.442 8.57 17.627 C 8.459 19.49 8.062 21.957 6.746 21.921 C 6.129 21.906 6.595 22.631 7.049 22.782 C 7.749 23.014 8.518 22.124 8.163 22.933 C 8.013 23.571 8.444 24.199 9.093 24.29 C 9.105 24.289 9.117 24.286 9.129 24.283 Z"/>
    <path class="b" d="M 9.428 94.22 C 9.428 97.789 10.43 101.449 11.571 102.052 C 11.774 102.167 12.027 102.146 12.209 102 C 12.259 101.965 12.318 101.946 12.379 101.947 C 12.479 101.947 12.573 101.996 12.63 102.079 C 12.726 102.217 12.69 102.407 12.55 102.5 C 11.42 103.273 10.265 105.565 9.732 108.555 C 10.636 108.974 10.839 110.169 10.123 110.862 C 10.617 111.194 10.914 111.751 10.913 112.347 C 10.913 113.336 10.112 113.564 9.124 113.564 C 8.135 113.564 7.333 113.336 7.333 112.347 C 7.332 111.751 7.629 111.194 8.124 110.862 C 7.409 110.169 7.612 108.974 8.515 108.555 C 7.984 105.565 6.829 103.273 5.699 102.503 C 5.616 102.446 5.566 102.352 5.566 102.252 C 5.566 102.19 5.584 102.131 5.619 102.08 C 5.676 101.998 5.769 101.948 5.87 101.948 C 5.93 101.948 5.989 101.967 6.04 102.001 C 6.221 102.147 6.474 102.168 6.677 102.054 C 7.819 101.449 8.821 97.789 8.821 94.22 C 8.821 93.987 9.074 93.841 9.276 93.958 C 9.37 94.012 9.428 94.112 9.428 94.22 Z"/>
    <path class="b" d="M 8.818 159.572 C 8.83 159.568 8.843 159.566 8.856 159.565 C 9.505 159.655 9.935 160.284 9.786 160.921 C 9.431 161.731 10.199 160.841 10.899 161.072 C 11.354 161.225 11.819 161.948 11.202 161.934 C 9.886 161.897 9.489 164.365 9.378 166.226 C 9.369 166.413 9.356 166.633 9.347 166.863 C 9.949 168.558 11.358 169.841 13.102 170.282 C 12.755 169.62 13.253 168.831 14 168.86 C 14.743 168.889 15.179 169.71 14.786 170.342 C 14.867 170.294 14.955 170.259 15.046 170.238 C 15.776 170.072 16.412 170.758 16.192 171.473 C 15.971 172.188 15.059 172.396 14.55 171.847 C 14.464 171.755 14.397 171.647 14.353 171.529 C 14.419 172.272 13.655 172.808 12.979 172.493 C 12.302 172.179 12.22 171.25 12.831 170.821 C 12.868 170.795 12.907 170.771 12.948 170.75 C 12.544 170.65 12.154 170.502 11.785 170.31 C 11.081 169.944 9.276 171.467 9.376 172.769 C 9.423 173.934 9.922 175.035 10.768 175.839 C 11.23 176.189 11.885 176.12 12.264 175.682 C 12.546 175.262 12.561 174.718 12.302 174.284 C 12.169 173.986 12.55 173.753 12.989 173.879 C 13.921 174.28 14.529 175.191 14.542 176.206 C 14.542 177.654 13.251 178.762 11.819 178.541 C 11.019 178.266 10.343 177.714 9.914 176.985 C 10.006 177.535 10.141 178.077 10.317 178.607 C 10.872 180.075 9.506 183.853 8.856 183.853 C 8.843 183.85 8.831 183.846 8.818 183.842 C 8.806 183.846 8.793 183.85 8.781 183.853 C 8.131 183.853 6.764 180.075 7.319 178.607 C 7.495 178.077 7.63 177.535 7.722 176.985 C 7.294 177.714 6.618 178.266 5.818 178.541 C 4.386 178.763 3.093 177.655 3.093 176.206 C 3.105 175.191 3.714 174.279 4.646 173.879 C 5.086 173.75 5.467 173.986 5.334 174.284 C 5.074 174.718 5.089 175.263 5.372 175.682 C 5.752 176.12 6.407 176.189 6.869 175.839 C 7.714 175.035 8.214 173.934 8.261 172.769 C 8.361 171.467 6.555 169.944 5.852 170.31 C 5.483 170.502 5.091 170.65 4.687 170.75 C 5.352 171.089 5.401 172.021 4.775 172.427 C 4.149 172.834 3.318 172.41 3.279 171.665 C 3.276 171.62 3.277 171.574 3.281 171.529 C 3.016 172.227 2.094 172.376 1.623 171.797 C 1.151 171.218 1.483 170.346 2.22 170.227 C 2.342 170.207 2.468 170.211 2.589 170.238 C 2.68 170.259 2.768 170.294 2.849 170.342 C 2.455 169.706 2.898 168.883 3.646 168.86 C 4.28 168.841 4.762 169.425 4.623 170.044 C 4.604 170.127 4.573 170.207 4.533 170.282 C 6.278 169.841 7.688 168.559 8.29 166.863 C 8.281 166.633 8.269 166.413 8.259 166.226 C 8.148 164.364 7.751 161.897 6.435 161.934 C 5.818 161.948 6.283 161.225 6.738 161.072 C 7.438 160.841 8.207 161.73 7.851 160.921 C 7.702 160.284 8.133 159.655 8.781 159.564 C 8.794 159.566 8.806 159.568 8.818 159.572 Z"/>
    <path class="b" d="M 170.278 91.129 C 170.278 87.559 171.281 83.899 172.421 83.297 C 172.624 83.181 172.877 83.202 173.059 83.349 C 173.196 83.444 173.385 83.409 173.478 83.271 C 173.575 83.133 173.54 82.942 173.401 82.848 C 172.27 82.075 171.115 79.783 170.583 76.793 C 171.486 76.374 171.688 75.18 170.973 74.487 C 171.467 74.154 171.763 73.597 171.763 73.002 C 171.763 72.013 170.962 71.785 169.973 71.785 C 168.984 71.785 168.183 72.013 168.183 73.002 C 168.183 73.598 168.479 74.155 168.974 74.487 C 168.259 75.18 168.462 76.375 169.366 76.793 C 168.835 79.783 167.679 82.075 166.547 82.845 C 166.465 82.903 166.415 82.997 166.415 83.097 C 166.415 83.158 166.434 83.218 166.47 83.268 C 166.525 83.351 166.618 83.401 166.718 83.4 C 166.78 83.4 166.839 83.382 166.89 83.348 C 167.071 83.201 167.324 83.18 167.527 83.294 C 168.669 83.899 169.671 87.559 169.671 91.129 C 169.676 91.362 169.931 91.504 170.131 91.383 C 170.221 91.329 170.276 91.233 170.278 91.129 Z"/>
    <path class="b" d="M 169.987 24.283 C 169.999 24.287 170.011 24.289 170.024 24.291 C 170.673 24.199 171.103 23.572 170.955 22.934 C 170.599 22.124 171.368 23.015 172.067 22.782 C 172.523 22.631 172.987 21.906 172.37 21.921 C 171.055 21.957 170.658 19.49 170.546 17.627 C 170.537 17.442 170.526 17.222 170.516 16.99 C 171.119 15.296 172.527 14.015 174.27 13.574 C 174.23 13.649 174.201 13.729 174.182 13.811 C 174.025 14.543 174.719 15.17 175.431 14.94 C 175.756 14.834 176.002 14.566 176.079 14.233 C 176.131 13.986 176.087 13.728 175.955 13.512 C 176.037 13.56 176.125 13.595 176.217 13.616 C 176.947 13.783 177.583 13.097 177.362 12.382 C 177.142 11.666 176.23 11.458 175.721 12.007 C 175.635 12.099 175.568 12.208 175.523 12.326 C 175.59 11.582 174.826 11.046 174.149 11.36 C 173.471 11.674 173.388 12.604 173.999 13.034 C 174.037 13.06 174.076 13.084 174.118 13.105 C 173.714 13.204 173.323 13.352 172.955 13.545 C 172.25 13.911 170.445 12.387 170.545 11.085 C 170.592 9.92 171.091 8.818 171.937 8.015 C 172.4 7.665 173.054 7.735 173.434 8.173 C 173.716 8.592 173.731 9.137 173.471 9.57 C 173.339 9.869 173.72 10.102 174.157 9.975 C 175.089 9.576 175.698 8.664 175.71 7.649 C 175.712 6.2 174.419 5.091 172.987 5.314 C 172.187 5.589 171.511 6.141 171.084 6.871 C 171.175 6.32 171.31 5.777 171.487 5.248 C 172.041 3.779 170.675 0 170.024 0 C 170.011 0.003 169.999 0.007 169.987 0.012 C 169.975 0.007 169.962 0.003 169.949 0 C 169.299 0 167.933 3.779 168.489 5.248 C 168.665 5.778 168.8 6.32 168.892 6.871 C 168.463 6.141 167.787 5.589 166.987 5.314 C 165.555 5.091 164.261 6.199 164.262 7.649 C 164.274 8.664 164.883 9.576 165.815 9.975 C 166.254 10.104 166.637 9.869 166.503 9.57 C 166.243 9.137 166.258 8.592 166.541 8.173 C 166.92 7.734 167.575 7.666 168.037 8.017 C 168.883 8.819 169.383 9.92 169.43 11.085 C 169.53 12.387 167.724 13.911 167.023 13.545 C 166.652 13.353 166.26 13.205 165.855 13.105 C 166.521 12.768 166.573 11.836 165.947 11.427 C 165.322 11.019 164.49 11.44 164.448 12.185 C 164.446 12.232 164.446 12.279 164.451 12.326 C 164.186 11.628 163.264 11.478 162.792 12.057 C 162.32 12.635 162.651 13.508 163.388 13.628 C 163.512 13.648 163.637 13.644 163.759 13.616 C 163.85 13.595 163.937 13.56 164.017 13.512 C 163.885 13.728 163.841 13.986 163.893 14.233 C 164.05 14.965 164.94 15.252 165.495 14.751 C 165.757 14.515 165.87 14.155 165.79 13.811 C 165.772 13.728 165.742 13.648 165.702 13.574 C 167.447 14.014 168.856 15.297 169.458 16.992 C 169.448 17.222 169.437 17.442 169.428 17.627 C 169.317 19.49 168.921 21.957 167.604 21.921 C 166.988 21.907 167.453 22.631 167.907 22.782 C 168.608 23.015 169.375 22.124 169.021 22.934 C 168.871 23.571 169.301 24.2 169.95 24.291 C 169.962 24.29 169.975 24.287 169.987 24.283 Z"/>
    <path class="b" d="M 170.27 94.309 C 170.27 97.877 171.273 101.538 172.413 102.141 C 172.617 102.256 172.87 102.235 173.052 102.088 C 173.101 102.053 173.161 102.035 173.221 102.035 C 173.455 102.036 173.6 102.29 173.482 102.492 C 173.46 102.531 173.429 102.563 173.393 102.589 C 172.262 103.361 171.107 105.653 170.576 108.644 C 171.478 109.063 171.68 110.257 170.966 110.95 C 171.46 111.283 171.756 111.84 171.755 112.435 C 171.755 113.424 170.954 113.653 169.965 113.653 C 168.976 113.653 168.175 113.424 168.175 112.435 C 168.175 111.839 168.472 111.282 168.967 110.95 C 168.251 110.257 168.454 109.062 169.359 108.644 C 168.827 105.654 167.672 103.361 166.54 102.591 C 166.457 102.534 166.408 102.44 166.408 102.34 C 166.407 102.279 166.426 102.219 166.462 102.169 C 166.518 102.086 166.611 102.036 166.711 102.037 C 166.772 102.037 166.832 102.055 166.883 102.089 C 167.064 102.235 167.316 102.256 167.519 102.142 C 168.661 101.538 169.664 97.877 169.664 94.309 C 169.66 94.075 169.91 93.925 170.114 94.038 C 170.213 94.092 170.273 94.196 170.271 94.309 L 170.27 94.309 Z"/>
    <path class="b" d="M 169.833 159.708 C 169.846 159.704 169.858 159.701 169.871 159.7 C 170.52 159.791 170.951 160.419 170.802 161.057 C 170.446 161.867 171.215 160.976 171.914 161.207 C 172.37 161.36 172.833 162.084 172.217 162.069 C 170.902 162.033 170.504 164.5 170.393 166.362 C 170.384 166.548 170.372 166.768 170.363 166.998 C 170.965 168.693 172.373 169.976 174.117 170.417 C 174.077 170.342 174.048 170.262 174.028 170.179 C 173.866 169.449 174.555 168.817 175.269 169.041 C 175.6 169.146 175.85 169.419 175.926 169.758 C 175.978 170.005 175.934 170.262 175.801 170.478 C 175.883 170.43 175.971 170.395 176.064 170.374 C 176.793 170.208 177.429 170.894 177.208 171.609 C 176.987 172.324 176.075 172.531 175.566 171.983 C 175.481 171.89 175.414 171.783 175.37 171.665 C 175.436 172.409 174.672 172.945 173.995 172.631 C 173.318 172.316 173.235 171.387 173.846 170.957 C 173.884 170.931 173.923 170.907 173.964 170.886 C 173.56 170.786 173.17 170.638 172.801 170.446 C 172.097 170.08 170.291 171.602 170.391 172.905 C 170.438 174.07 170.938 175.171 171.784 175.974 C 172.246 176.325 172.901 176.256 173.28 175.818 C 173.563 175.398 173.578 174.853 173.318 174.42 C 173.186 174.122 173.567 173.888 174.004 174.015 C 174.936 174.415 175.545 175.327 175.557 176.342 C 175.557 177.791 174.265 178.898 172.833 178.677 C 172.034 178.402 171.358 177.85 170.93 177.12 C 171.022 177.671 171.157 178.213 171.334 178.743 C 171.887 180.211 170.521 183.989 169.871 183.989 C 169.858 183.986 169.846 183.982 169.833 183.977 C 169.821 183.983 169.809 183.986 169.796 183.989 C 169.146 183.989 167.779 180.211 168.336 178.743 C 168.512 178.213 168.646 177.671 168.739 177.12 C 168.309 177.849 167.634 178.401 166.834 178.677 C 165.402 178.899 164.109 177.791 164.109 176.342 C 164.12 175.327 164.729 174.415 165.662 174.015 C 166.101 173.886 166.483 174.122 166.35 174.42 C 166.09 174.853 166.104 175.399 166.387 175.818 C 166.767 176.256 167.421 176.325 167.883 175.974 C 168.73 175.172 169.229 174.07 169.276 172.905 C 169.376 171.602 167.571 170.08 166.87 170.446 C 166.499 170.638 166.107 170.786 165.701 170.886 C 166.366 171.224 166.417 172.155 165.792 172.562 C 165.167 172.97 164.335 172.548 164.295 171.803 C 164.292 171.757 164.293 171.711 164.297 171.665 C 164.032 172.363 163.11 172.513 162.638 171.934 C 162.166 171.355 162.497 170.482 163.235 170.362 C 163.358 170.342 163.484 170.346 163.606 170.374 C 163.697 170.395 163.784 170.43 163.864 170.478 C 163.469 169.844 163.908 169.02 164.655 168.995 C 164.738 168.993 164.821 169 164.902 169.019 C 165.426 169.136 165.755 169.656 165.637 170.18 C 165.618 170.263 165.589 170.343 165.549 170.418 C 167.293 169.977 168.703 168.694 169.304 166.998 C 169.294 166.768 169.284 166.548 169.274 166.362 C 169.164 164.5 168.768 162.033 167.45 162.069 C 166.834 162.084 167.3 161.36 167.754 161.208 C 168.455 160.976 169.222 161.866 168.868 161.057 C 168.717 160.419 169.148 159.791 169.797 159.7 C 169.809 159.701 169.821 159.704 169.833 159.708 Z"/>
    <path class="b" d="M62.82,141.5877c-4.414-4.6845-10.5683-5.93-13.9819-2.7153a4.5216,4.5216,0,0,0-.42,6.5772,4.4076,4.4076,0,0,0,6.4581.0155c1.82-1.7134,1.5471-2.92,1.035-5.097a.4952.4952,0,0,1,.0585-.487c.1829-.1718,1.7356-.3461,3.323,1.3388,3.0012,3.183.3289,6.7293-1.8573,8.7875-1.7293,1.6307-3.7569,2.9384-8.4641,5.0517-6.0047,2.6482-7.0019,3.5056-11.0894,7.1808l-.0036.0008a1.0636,1.0636,0,0,0,1.4557,1.5511c4.9143-4.63,7.6375-5.5624,13.4576-4.9456,4.1455.3878,7.2789.617,10.4193-2.3416C66.6707,153.2482,68.1755,147.2806,62.82,141.5877ZM26.8149,169.8222c-.1122.1206-.2281.2387-.3458.3636-.66.69.0651,2.444,1.6093,3.9216,1.5477,1.4768,3.3364,2.115,3.9958,1.4264.1147-.1225.23-.2431.345-.3623a4.7382,4.7382,0,0,0,1.9415-.414c1.5876.55,3.5729.8505,5.1528-.8053a2.2386,2.2386,0,0,0,.69-1.7267,3.02,3.02,0,0,0-.9358-1.8337c.2195-.2306.4379-.4579.6571-.6887.662-.69-.5906-2.9583-2.802-5.0678-2.207-2.1072-4.5315-3.2567-5.1924-2.5652-.8045.8449-1.5228,1.592-2.5091,2.6254C28.7578,165.3913,26.6858,167.31,26.8149,169.8222Zm8.73,4.245a12.7823,12.7823,0,0,0,1.8746-1.74c.4294-.4487.804-.8422,1.1629-1.2183a2.0037,2.0037,0,0,1,.6244,1.1864,1.2752,1.2752,0,0,1-.41.9686A3.1981,3.1981,0,0,1,35.5449,174.0672Zm-2.8142-11.2364c.3677-.3894,2.1039.6629,3.87,2.351,1.768,1.6882,2.9015,3.3715,2.53,3.7623-.37.3874-2.1061-.6651-3.8719-2.3523C33.4866,164.9036,32.36,163.2162,32.7307,162.8308Z"/>
    <line class="d" x1="169.815" y1="70.837" x2="170.015" y2="24.837" style=""/>
    <line class="d" x1="8.935" y1="70.837" x2="9.135" y2="24.837" style=""/>
    <line class="d" x1="8.915" y1="160" x2="9.115" y2="114" style=""/>
  </g>
  <line class="d" x1="170.1" y1="166" x2="170.299" y2="120" style=""/>
</svg>