<?xml version="1.0" encoding="utf-8"?>
<svg width="424" height="105px" viewBox="0 0 424 75" xmlns="http://www.w3.org/2000/svg">
  <defs>
    <style>
      .a, .c {
        fill: #f19ec2;
      }

      .a, .c, .d, .e, .f, .g, .h, .i {
        fill-rule: evenodd;
      }

      .a {
        opacity: 0.8;
      }

      .b {
        fill: #955e4b;
      }

      .c {
        opacity: 0.5;
      }

      .d {
        fill: #8f82bc;
      }

      .e {
        fill: #89c997;
      }

      .f {
        fill: #ec6d7b;
      }

      .g {
        fill: #88abda;
      }

      .h {
        fill: #facd89;
      }

      .i {
        fill: #7ecef4;
      }
    </style>
  </defs>
  <g transform="matrix(1, 0, 0, 1, 0, 0.000041)">
    <g>
      <g>
        <path class="b" d="M160.1134,70.0428h-3.8576v-.5157a2.1878,2.1878,0,0,0,.7287-.0925.5182.5182,0,0,0,.3226-.2776,1.4473,1.4473,0,0,0,.0754-.5274V63.8525a.9557.9557,0,0,0-.2047-.6953,1.4082,1.4082,0,0,0-.922-.2017v-.5162h3.8576v.5162a2.128,2.128,0,0,0-.7292.0954.5274.5274,0,0,0-.3222.2772,1.421,1.421,0,0,0-.0759.5244V68.63a1.4382,1.4382,0,0,0,.073.51.5316.5316,0,0,0,.3114.2859,2.0219,2.0219,0,0,0,.7429.1013Z"/>
        <path class="b" d="M165.4737,68.7084a1.2365,1.2365,0,0,1-.289.8242,1.7747,1.7747,0,0,1-.7908.5185,3.4751,3.4751,0,0,1-1.1575.1767,4.6585,4.6585,0,0,1-.8916-.0871,2.8963,2.8963,0,0,1-.785-.26l-.2189.3139h-.4372l-.0559-1.4578h.4706a1.3544,1.3544,0,0,0,.5666.6758,2.2885,2.2885,0,0,0,1.2838.3,3.7345,3.7345,0,0,0,.46-.0309,1.1629,1.1629,0,0,0,.474-.1709.4724.4724,0,0,0,.2272-.4318.3847.3847,0,0,0-.2331-.3674,5.1388,5.1388,0,0,0-.8716-.277q-.7741-.197-1.2672-.3732a2.2907,2.2907,0,0,1-.8354-.5073,1.134,1.134,0,0,1-.3422-.8524,1.1881,1.1881,0,0,1,.6086-1.0484,2.9318,2.9318,0,0,1,1.5949-.3868,3.8736,3.8736,0,0,1,.987.1008,3.9362,3.9362,0,0,1,.6225.2185l.1346-.286h.4485V66.6h-.46a.856.856,0,0,0-.2806-.4207,1.5013,1.5013,0,0,0-.58-.2942,3.0519,3.0519,0,0,0-.8383-.1038,3.6856,3.6856,0,0,0-.7819.0841c-.26.0559-.39.1891-.39.3982a.3051.3051,0,0,0,.0754.213.6961.6961,0,0,0,.261.1572,6.1708,6.1708,0,0,0,.65.19q.4657.1176.5553.14a5.96,5.96,0,0,1,1.5.5666A1.2428,1.2428,0,0,1,165.4737,68.7084Z"/>
        <path class="b" d="M172.8018,69.0449a2.2234,2.2234,0,0,1-.7065.9082,1.6437,1.6437,0,0,1-.9475.2747,1.4757,1.4757,0,0,1-.9759-.2692,1.1041,1.1041,0,0,1-.3868-.6028,3.5207,3.5207,0,0,1-.073-.7483V65.9663h-.8466v-.5155a1.9993,1.9993,0,0,0,.9255-.2023,1.6133,1.6133,0,0,0,.6193-.5435,1.8289,1.8289,0,0,0,.2889-.735h.46v1.4808h1.5865v.5155H171.159v2.6745a2.7363,2.7363,0,0,0,.0642.7037.294.294,0,0,0,.3168.2159.55.55,0,0,0,.4431-.21,2.9165,2.9165,0,0,0,.3364-.5243Z"/>
        <path class="b" d="M179.4068,70.0428h-2.8821v-.5157a.7843.7843,0,0,0,.5328-.1375.5261.5261,0,0,0,.1459-.4011V67.1048a3.127,3.127,0,0,0-.0368-.5048.8142.8142,0,0,0-.1933-.4064.6027.6027,0,0,0-.4824-.1821,1.1408,1.1408,0,0,0-.5352.1429,1.0646,1.0646,0,0,0-.4177.3726,1.44,1.44,0,0,0-.1992.4965,3.3727,3.3727,0,0,0-.0421.5744v.9646a3.8121,3.8121,0,0,0,.0308.5748.4274.4274,0,0,0,.1738.286.8286.8286,0,0,0,.4741.1038v.5157h-2.9385v-.5157a1.4415,1.4415,0,0,0,.5524-.0788.3572.3572,0,0,0,.2188-.2325,2.1491,2.1491,0,0,0,.0421-.5074V64.0038a.85.85,0,0,0-.1347-.5636,1.0458,1.0458,0,0,0-.6786-.1484V62.787l2.26-.4818V66.09a4.1248,4.1248,0,0,1,.687-.5862,1.7671,1.7671,0,0,1,.99-.2379,2.1006,2.1006,0,0,1,.5831.0837,1.77,1.77,0,0,1,.5245.2468,1.0412,1.0412,0,0,1,.3388.37,2.1646,2.1646,0,0,1,.23,1.0655v1.6766a1.2163,1.2163,0,0,0,.12.645q.12.1733.6365.1737Z"/>
        <path class="b" d="M185.059,67.5759H181.61q.0059.1063.0309.4538a2.6734,2.6734,0,0,0,.1571.712,1.3394,1.3394,0,0,0,.4544.6141,1.3784,1.3784,0,0,0,.8662.25,2.1913,2.1913,0,0,0,.7179-.1513,1.5411,1.5411,0,0,0,.7286-.5832l.4372.2972a2.2953,2.2953,0,0,1-2.1026,1.06,3.5472,3.5472,0,0,1-1.1747-.185,2.6429,2.6429,0,0,1-.9-.5157,2.2371,2.2371,0,0,1-.5661-.7795,2.3738,2.3738,0,0,1-.1963-.9646,2.5,2.5,0,0,1,.3281-1.256,2.4035,2.4035,0,0,1,.9391-.92,2.8131,2.8131,0,0,1,1.396-.3417,2.4065,2.4065,0,0,1,1.2981.3305,2.0428,2.0428,0,0,1,.7825.8579A2.5678,2.5678,0,0,1,185.059,67.5759Zm-1.3907-.5161q0-1.2787-1.0091-1.2785a.8744.8744,0,0,0-.7488.3535,1.6628,1.6628,0,0,0-.2889.925Z"/>
        <path class="b" d="M194.3218,67.7326a2.341,2.341,0,0,1-1.371,2.1951,3.1712,3.1712,0,0,1-1.3818.3,3.31,3.31,0,0,1-1.3373-.2747,2.4456,2.4456,0,0,1-1.0317-.8353,2.3014,2.3014,0,0,1-.401-1.374,2.1777,2.1777,0,0,1,.83-1.8475,3.1655,3.1655,0,0,1,1.9734-.6306,3.0263,3.0263,0,0,1,1.4694.3363,2.3019,2.3019,0,0,1,.9333.9025A2.4774,2.4774,0,0,1,194.3218,67.7326Zm-1.5473-.0338a3.1929,3.1929,0,0,0-.2526-1.4352,1.0026,1.0026,0,0,0-.9814-.4823,1.1246,1.1246,0,0,0-.7256.21,1.138,1.138,0,0,0-.3648.65,5.1333,5.1333,0,0,0-.1038,1.1409,3.57,3.57,0,0,0,.23,1.3965.9729.9729,0,0,0,1.0038.5323.9939.9939,0,0,0,.7766-.2944,1.4268,1.4268,0,0,0,.3418-.7285A5.8209,5.8209,0,0,0,192.7745,67.6988Z"/>
        <path class="b" d="M199.8559,66.1515a.6716.6716,0,0,1-.1988.5131.6593.6593,0,0,1-.4681.1875.6968.6968,0,0,1-.5607-.3139,1.5266,1.5266,0,0,0-.1851-.2016.3134.3134,0,0,0-.2076-.0618.7491.7491,0,0,0-.6811.4735,2.1281,2.1281,0,0,0-.2439.9843v.9758a1.21,1.21,0,0,0,.1206.645q.12.1733.636.1737h.2972v.5157h-3.4819v-.5157h.2918q.4709,0,.5774-.18a1.3519,1.3519,0,0,0,.1067-.639V67.071a1.3752,1.3752,0,0,0-.076-.5381.3935.3935,0,0,0-.2717-.216,2.6336,2.6336,0,0,0-.6282-.0533v-.5161l2.1868-.4818a7.5077,7.5077,0,0,1,.1572,1.2168,2.3842,2.3842,0,0,1,.4118-.6057,2.17,2.17,0,0,1,.5719-.4432,1.3686,1.3686,0,0,1,.6478-.1679,1.01,1.01,0,0,1,.7291.2575A.8387.8387,0,0,1,199.8559,66.1515Z"/>
        <path class="b" d="M206.4,69.9757a13.6391,13.6391,0,0,0-2.17.2521,1.7621,1.7621,0,0,1-.1009-.5885,2.4308,2.4308,0,0,1-1.5757.5885,2.3165,2.3165,0,0,1-1.2252-.3423,2.5152,2.5152,0,0,1-.897-.9332,2.5782,2.5782,0,0,1-.3334-1.2868,2.6263,2.6263,0,0,1,.1459-.8579,2.3191,2.3191,0,0,1,.4568-.7825,2.1619,2.1619,0,0,1,.7707-.5577,2.5851,2.5851,0,0,1,1.0489-.2017,2.2783,2.2783,0,0,1,.74.1063,1.84,1.84,0,0,1,.4935.2437,3.4689,3.4689,0,0,1,.3756.3282V64.1047a1.6642,1.6642,0,0,0-.0618-.5381.3238.3238,0,0,0-.2325-.2077,2.7634,2.7634,0,0,0-.5577-.0558V62.787l2.2985-.4818v6.28a2.86,2.86,0,0,0,.0367.5606.3181.3181,0,0,0,.2046.2272,1.897,1.897,0,0,0,.5832.0867Zm-2.271-1.06v-2.27a2.9822,2.9822,0,0,0-.5607-.5214,1.2823,1.2823,0,0,0-.7737-.2356.9542.9542,0,0,0-.516.1513,1.1985,1.1985,0,0,0-.3869.3868,2.5521,2.5521,0,0,0-.2468,1.3065,2.3345,2.3345,0,0,0,.3506,1.4018,1.0521,1.0521,0,0,0,.8722.4711,1.3934,1.3934,0,0,0,.7006-.1851A1.8,1.8,0,0,0,204.1287,68.9155Z"/>
        <path class="b" d="M212.0067,67.5759h-3.4486q.006.1063.0308.4538a2.6778,2.6778,0,0,0,.1573.712,1.3373,1.3373,0,0,0,.4544.6141,1.378,1.378,0,0,0,.8662.25,2.1917,2.1917,0,0,0,.7178-.1513,1.54,1.54,0,0,0,.7286-.5832l.4373.2972a2.2956,2.2956,0,0,1-2.1026,1.06,3.5468,3.5468,0,0,1-1.1747-.185,2.6438,2.6438,0,0,1-.9-.5157,2.238,2.238,0,0,1-.566-.7795,2.3738,2.3738,0,0,1-.1963-.9646,2.501,2.501,0,0,1,.328-1.256,2.4041,2.4041,0,0,1,.9393-.92,2.8126,2.8126,0,0,1,1.396-.3417,2.4066,2.4066,0,0,1,1.298.3305,2.0428,2.0428,0,0,1,.7825.8579A2.5691,2.5691,0,0,1,212.0067,67.5759Zm-1.3906-.5161q0-1.2787-1.0091-1.2785a.8742.8742,0,0,0-.7487.3535,1.66,1.66,0,0,0-.2889.925Z"/>
        <path class="b" d="M217.4679,66.1515a.6716.6716,0,0,1-.1988.5131.6593.6593,0,0,1-.4681.1875.6968.6968,0,0,1-.5607-.3139,1.5266,1.5266,0,0,0-.1851-.2016.3134.3134,0,0,0-.2076-.0618.7491.7491,0,0,0-.6811.4735,2.1281,2.1281,0,0,0-.2439.9843v.9758a1.21,1.21,0,0,0,.1206.645q.12.1733.636.1737h.2972v.5157h-3.4819v-.5157h.2918q.4708,0,.5774-.18a1.3519,1.3519,0,0,0,.1067-.639V67.071a1.3752,1.3752,0,0,0-.076-.5381.3935.3935,0,0,0-.2717-.216,2.6336,2.6336,0,0,0-.6282-.0533v-.5161l2.1868-.4818a7.5077,7.5077,0,0,1,.1572,1.2168,2.3842,2.3842,0,0,1,.4118-.6057,2.17,2.17,0,0,1,.5719-.4432,1.3686,1.3686,0,0,1,.6478-.1679,1.01,1.01,0,0,1,.7291.2575A.8387.8387,0,0,1,217.4679,66.1515Z"/>
        <path class="b" d="M226.53,68.86a1.4293,1.4293,0,0,1-.1739.7261,1.08,1.08,0,0,1-.4681.4426,1.5008,1.5008,0,0,1-.6645.1431,1.3287,1.3287,0,0,1-.7854-.2214.853.853,0,0,1-.3756-.53,3.0047,3.0047,0,0,1-1.8837.7512,1.593,1.593,0,0,1-.9926-.2944.9284.9284,0,0,1-.3867-.7766,1.3046,1.3046,0,0,1,.207-.72,1.93,1.93,0,0,1,.6087-.5749,4.6714,4.6714,0,0,1,.9558-.4456q.5553-.1938,1.3853-.4069v-.3192a.9523.9523,0,0,0-.188-.6253.8647.8647,0,0,0-.6925-.2272.8882.8882,0,0,0-.6223.18.9364.9364,0,0,0-.2526.5435.9978.9978,0,0,1-.1651.4235.5975.5975,0,0,1-.5019.1656.675.675,0,0,1-.4152-.1347.4662.4662,0,0,1-.1792-.3981,1.1,1.1,0,0,1,.5665-.9083,3.1146,3.1146,0,0,1,1.7378-.3868,2.588,2.588,0,0,1,1.6962.4147,1.4177,1.4177,0,0,1,.4627,1.11v1.7721q0,.3364.0166.4936a.4047.4047,0,0,0,.0926.238.328.328,0,0,0,.4936-.07.6045.6045,0,0,0,.1092-.3643Zm-2.5737.0445v-1.39a3.3216,3.3216,0,0,0-1.3544.6585.9629.9629,0,0,0-.2889.6307.5612.5612,0,0,0,.1571.4153.5987.5987,0,0,0,.4432.1566,1.112,1.112,0,0,0,.544-.1287A3.4212,3.4212,0,0,0,223.9559,68.9043Z"/>
        <path class="b" d="M234.4635,66.1515a.6713.6713,0,0,1-.1989.5131.6593.6593,0,0,1-.4681.1875.6965.6965,0,0,1-.5606-.3139,1.5406,1.5406,0,0,0-.1851-.2016.3138.3138,0,0,0-.2076-.0618.7489.7489,0,0,0-.6811.4735,2.1268,2.1268,0,0,0-.2439.9843v.9758a1.2116,1.2116,0,0,0,.12.645q.1206.1733.6361.1737h.2973v.5157H229.49v-.5157h.2918q.4708,0,.5773-.18a1.3517,1.3517,0,0,0,.1068-.639V67.071a1.3775,1.3775,0,0,0-.0759-.5381.3937.3937,0,0,0-.2718-.216,2.6336,2.6336,0,0,0-.6282-.0533v-.5161l2.1868-.4818a7.5077,7.5077,0,0,1,.1572,1.2168,2.3842,2.3842,0,0,1,.4118-.6057,2.17,2.17,0,0,1,.5719-.4432,1.3681,1.3681,0,0,1,.6479-.1679,1.01,1.01,0,0,1,.729.2575A.8388.8388,0,0,1,234.4635,66.1515Z"/>
        <path class="b" d="M240.6542,68.86a1.43,1.43,0,0,1-.1738.7261,1.08,1.08,0,0,1-.4681.4426,1.5008,1.5008,0,0,1-.6645.1431,1.3285,1.3285,0,0,1-.7854-.2214.853.853,0,0,1-.3756-.53,3.0051,3.0051,0,0,1-1.8837.7512,1.5926,1.5926,0,0,1-.9926-.2944.9285.9285,0,0,1-.3868-.7766,1.3038,1.3038,0,0,1,.2071-.72,1.9294,1.9294,0,0,1,.6086-.5749,4.67,4.67,0,0,1,.9559-.4456q.5553-.1938,1.3852-.4069v-.3192a.9523.9523,0,0,0-.188-.6253.8646.8646,0,0,0-.6924-.2272.888.888,0,0,0-.6223.18.9358.9358,0,0,0-.2527.5435.9978.9978,0,0,1-.165.4235.5976.5976,0,0,1-.5019.1656.6755.6755,0,0,1-.4153-.1347.4664.4664,0,0,1-.1792-.3981,1.1,1.1,0,0,1,.5666-.9083,3.1143,3.1143,0,0,1,1.7378-.3868,2.5882,2.5882,0,0,1,1.6962.4147,1.4177,1.4177,0,0,1,.4627,1.11v1.7721q0,.3364.0166.4936a.4041.4041,0,0,0,.0926.238.328.328,0,0,0,.4936-.07.6052.6052,0,0,0,.1092-.3643Zm-2.5737.0445v-1.39a3.3216,3.3216,0,0,0-1.3544.6585.9629.9629,0,0,0-.2889.6307.5613.5613,0,0,0,.1572.4153.5985.5985,0,0,0,.4432.1566,1.1123,1.1123,0,0,0,.544-.1287A3.4207,3.4207,0,0,0,238.0805,68.9043Z"/>
        <path class="b" d="M246.8219,67.71a2.5707,2.5707,0,0,1-.1959,1.0068,2.4072,2.4072,0,0,1-.5523.81,2.4664,2.4664,0,0,1-.8128.521,2.6181,2.6181,0,0,1-.9676.18,2.1506,2.1506,0,0,1-1.0317-.2325,2.2111,2.2111,0,0,1-.7119-.5974,7.8444,7.8444,0,0,0-.7458.83h-.4372V64.015a1.0858,1.0858,0,0,0-.0759-.4681.36.36,0,0,0-.2523-.19,2.9229,2.9229,0,0,0-.5464-.0534v-.5048l2.321-.4931v3.6273a3.0218,3.0218,0,0,1,.6645-.4681,2.1268,2.1268,0,0,1,.99-.1987,2.3818,2.3818,0,0,1,1.0169.207,2.1344,2.1344,0,0,1,.7443.5607,2.43,2.43,0,0,1,.4447.7854A2.6975,2.6975,0,0,1,246.8219,67.71Zm-1.5532-.0445a3.1073,3.1073,0,0,0-.2321-1.2394.9.9,0,0,0-.9171-.5381,1.2651,1.2651,0,0,0-.4848.098,1.7412,1.7412,0,0,0-.4431.2663,2.4556,2.4556,0,0,0-.3785.3927v2.2819a1.579,1.579,0,0,0,.67.5581,1.7719,1.7719,0,0,0,.5916.1205.9259.9259,0,0,0,.74-.3114,1.6343,1.6343,0,0,0,.362-.7428A4.222,4.222,0,0,0,245.2687,67.6655Z"/>
        <path class="b" d="M253.4382,67.71a2.5906,2.5906,0,0,1-.1959,1.0068,2.4072,2.4072,0,0,1-.5523.81,2.4706,2.4706,0,0,1-.8138.521,2.6133,2.6133,0,0,1-.9666.18,2.1513,2.1513,0,0,1-1.0322-.2325,2.2072,2.2072,0,0,1-.712-.5974,7.78,7.78,0,0,0-.7452.83h-.4378V64.015a1.093,1.093,0,0,0-.0755-.4681.3622.3622,0,0,0-.2526-.19,2.9179,2.9179,0,0,0-.5464-.0534v-.5048l2.3209-.4931v3.6273a3.0181,3.0181,0,0,1,.665-.4681,2.1223,2.1223,0,0,1,.9891-.1987,2.3858,2.3858,0,0,1,1.0175.207,2.1315,2.1315,0,0,1,.7433.5607,2.45,2.45,0,0,1,.4456.7854A2.7236,2.7236,0,0,1,253.4382,67.71Zm-1.5533-.0445a3.09,3.09,0,0,0-.233-1.2394.9.9,0,0,0-.9166-.5381,1.2651,1.2651,0,0,0-.4848.098,1.7384,1.7384,0,0,0-.4426.2663,2.3913,2.3913,0,0,0-.3791.3927v2.2819a1.5811,1.5811,0,0,0,.67.5581,1.7737,1.7737,0,0,0,.5915.1205.9265.9265,0,0,0,.74-.3114,1.63,1.63,0,0,0,.3615-.7428A4.2223,4.2223,0,0,0,251.8849,67.6655Z"/>
        <path class="b" d="M257.2066,70.0428h-3.0448v-.5157h.1627a.9488.9488,0,0,0,.4729-.09.371.371,0,0,0,.1822-.2522,2.5066,2.5066,0,0,0,.0343-.4765V67.0431a1.9829,1.9829,0,0,0-.0421-.4935.3286.3286,0,0,0-.2184-.213,1.9049,1.9049,0,0,0-.5916-.073v-.5161l2.2985-.4818v3.4427a1.2426,1.2426,0,0,0,.1175.645q.1176.1733.6288.1737Zm-.6337-6.97a.8052.8052,0,1,1-.236-.5832A.7941.7941,0,0,1,256.5729,63.073Z"/>
        <path class="b" d="M261.5684,69.0449a2.2311,2.2311,0,0,1-.706.9082,1.6455,1.6455,0,0,1-.948.2747,1.4716,1.4716,0,0,1-.9755-.2692,1.0989,1.0989,0,0,1-.3867-.6028,3.4869,3.4869,0,0,1-.0735-.7483V65.9663h-.8461v-.5155a1.9951,1.9951,0,0,0,.9245-.2023,1.6185,1.6185,0,0,0,.62-.5435,1.8232,1.8232,0,0,0,.2889-.735h.4593v1.4808h1.5875v.5155h-1.5875v2.6745a2.7084,2.7084,0,0,0,.0647.7037.2941.2941,0,0,0,.3173.2159.5488.5488,0,0,0,.4426-.21,2.9725,2.9725,0,0,0,.3369-.5243Z"/>
        <path class="b" d="M262.8181,62.6523a2.2417,2.2417,0,0,1,1.6148-.5155,2.4893,2.4893,0,0,1,1.69.53,1.7156,1.7156,0,0,1,.6081,1.3544,1.8158,1.8158,0,0,1-.1233.6894,2.1481,2.1481,0,0,1-.8462.97c-.1644.1048-.277.1767-.3368.2159s-.18.1152-.3614.2273a1.0481,1.0481,0,0,0-.3868.3809,2.4357,2.4357,0,0,0-.1488.88h-.3419l-.0107-.4877a2.8,2.8,0,0,1,.4231-1.2618,3.32,3.32,0,0,0,.423-1.6257,2.0167,2.0167,0,0,0-.2409-1.0768.8476.8476,0,0,0-.7737-.3814.6855.6855,0,0,0-.4965.1489.4451.4451,0,0,0-.1488.3167.2686.2686,0,0,0,.0224.1176.6478.6478,0,0,0,.0843.118l.0783.095a1.1669,1.1669,0,0,1,.1822.286.8442.8442,0,0,1,.0539.3256.6516.6516,0,0,1-.2135.51.7707.7707,0,0,1-1.0538-.0368.8829.8829,0,0,1-.23-.6585A1.5431,1.5431,0,0,1,262.8181,62.6523Zm.8666,5.896a.9731.9731,0,1,1-.284.687A.934.934,0,0,1,263.6847,68.5483Z"/>
      </g>
      <path class="b" d="M223.3763,49.2283a3.5361,3.5361,0,0,0-2.1936-1.516,9.848,9.848,0,0,0-2.02.0431,15.7234,15.7234,0,0,1-4.3737-.64c-3.0985-.8687-7.386-3.6245-7.1764-7.3029-.0127-.0978-.0254-.1958-.03-.2927-.0293-.004-.0528-.0108-.0812-.0137a3.99,3.99,0,0,0-1.3456,2.46,7.1151,7.1151,0,0,0,1.2633,5.1081c1.8441,2.7235,5.3539,4.4706,9.9782,5.1385,2.1379.3114,4.3707.4739,5.6106-.5612A1.7255,1.7255,0,0,0,223.3763,49.2283Zm9.8378-5.85a3.37,3.37,0,0,1-2.5364,1.3828c-1.9274.0471-4.0246-2.13-5.3672-3.2963-.3222-.2811-.9959-1.1488-.43-1.6423a.6824.6824,0,0,1,.1087-.0646,7.7519,7.7519,0,0,0,1.4641.5738c.9411.2791,2.4527.3458,2.83-.7942.4015-1.2124-.5895-2.8772-1.1135-3.9349a19.0415,19.0415,0,0,0-2.3411-3.6548c-.3829-.4681-3.6831-4.451-4.1375-4.2522a34.3131,34.3131,0,0,1-5.206,1.9127,12.56,12.56,0,0,1-6.19.0968,8.8229,8.8229,0,0,1-4.4138-2.692,4.34,4.34,0,0,1-1.1556-3.9271,1.338,1.338,0,0,1,.4858-.7972,13.5159,13.5159,0,0,0,1.0939.9,11.3949,11.3949,0,0,0,9.3445,2.43c.8452-.1743,1.6688-.5621,2.4934-.8168a10.942,10.942,0,0,0-2.1515-1.7157,25.1557,25.1557,0,0,1-2.3063-1.7746,3.6551,3.6551,0,0,1-1.1154-2.504,2.1557,2.1557,0,0,1,.8529-1.8774.7043.7043,0,0,1,.5151-.0275c.331.0715,1.18,1.6444,1.4788,1.9685a14.3833,14.3833,0,0,0,1.7912,1.6081c1.3582,1.0567,2.83,1.9615,4.1239,3.1.4289-.2134.8216-.4435,1.2172-.6884,1.3466-.8412,3.2-3.5167,4.9985-2.8665a1.5269,1.5269,0,0,1,1.1884,1.6413,3.96,3.96,0,0,1-1.6174,2.7754,14.6588,14.6588,0,0,1-2.5639,1.8069,41.0544,41.0544,0,0,1,7.4434,8.2,12.3571,12.3571,0,0,1,2.0408,5.8288A4.5918,4.5918,0,0,1,233.2141,43.3778Z"/>
      <path class="b" d="M256.3263,48.7367a7.2953,7.2953,0,0,0-1.5962-.1528,13.5807,13.5807,0,0,1-3.9055-.8461,8.7019,8.7019,0,0,1-1.1243-.54c-2.4914-.9059-4.9377-3.2367-5.0895-5.7613a.6937.6937,0,0,0-.2986-.0147c-1.138.234-1.2389,2.2847-1.0606,3.3316.6679,3.7008,3.7987,6.0473,8.331,7.5222a10.2828,10.2828,0,0,0,5.1865.5591,1.9122,1.9122,0,0,0,1.6216-1.9674A2.68,2.68,0,0,0,256.3263,48.7367Zm12.4393-17.1743a4.884,4.884,0,0,1-2.44,2.0429,18.605,18.605,0,0,1-3.0965,1.3495c.5582,1.0293,1.134,2.034,1.7764,3.0682a17.0661,17.0661,0,0,1,1.8157,2.9966,4.5645,4.5645,0,0,1-.233,3.8811,3.9429,3.9429,0,0,1-1.2242,1.2242c-2.2779,1.4249-5.0748-1.4533-6.1971-3.0623a.9221.9221,0,0,1,.284-.5152c.8011.6453,2.35,1.2291,3.1338.2781.8677-1.0518.0255-2.4894-.47-3.48-.1508-.3035-1.5727-3.4824-1.6511-3.4657-3.079.6276-6.5967,1.6668-10.5081,1.19a6.6093,6.6093,0,0,1-5.4038-3.5255c-.3525-.6639-1.2144-2.3856-.281-2.8321a7.7873,7.7873,0,0,0,3.3325,1.8342,10.8774,10.8774,0,0,0,2.2584.6747,8.3388,8.3388,0,0,0,.8853.2194c3.0573.5787,5.76-.2077,8.2007-.7864a39.9569,39.9569,0,0,0-1.8117-3.7184,11.5857,11.5857,0,0,1-7.2763-.5984,7.151,7.151,0,0,1-3.4923-2.9312c-.3035-.5571-.6855-1.6471.0255-1.9664.378.2978.8109.5435,1.0479.6993a12.48,12.48,0,0,0,7.8815,1.6941c-.0783.0118-2.4737-3.3806-2.7832-3.7419a28.4122,28.4122,0,0,1-3.075-3.9936.885.885,0,0,1,.1292-1.2859,2.1165,2.1165,0,0,1,1.4533-.758,2.0067,2.0067,0,0,1,1.2457.5239,19.0136,19.0136,0,0,1,2.5932,3.1515,15.9607,15.9607,0,0,1,1.9489,3.0114c.26.5386.7874,2.1046,1.5277,2.1525.333.0226.9871-.665,1.281-.8275a4.4006,4.4006,0,0,1,1.61-.5709,1.7079,1.7079,0,0,1,1.843,2.412c-.5327,1.1585-2.1917,1.7647-3.3258,2.2691.5778,1.2349,1.21,2.415,1.81,3.6234,1.708-.4123,3.0829-1.7373,4.7145-2.3063a1.8921,1.8921,0,0,1,.4289-.1615C267.8157,29.216,269.2749,30.2845,268.7656,31.5624Zm5.5371-10.1144c-1.81-.0636-2.4953-2.0457-3.71-3.0211a7.4212,7.4212,0,0,0-1.59-.9489c-.19-.0863-1.7707-.524-1.7843-.5935a.56.56,0,0,1-.0294-.1235c-.0236-.9362,1.5238-.9136,2.3738-.9557a9.526,9.526,0,0,1,5.5664,1.2545,3.166,3.166,0,0,1,1.02,1.1183A2.2057,2.2057,0,0,1,274.3027,21.448ZM271.1,24.5565a2.1831,2.1831,0,0,1-2.7656,1.0242c-1.2085-.5131-1.7629-1.988-2.5658-2.9261a6.1515,6.1515,0,0,0-3.5589-1.802.8265.8265,0,0,1-.0039-.2095c.1038-.6375,1.0988-.68,1.7491-.7306a9.3129,9.3129,0,0,1,6.0893,1.3828A2.7621,2.7621,0,0,1,271.1,24.5565Z"/>
      <g>
        <path class="b" d="M31.1236,22.4974a2.7717,2.7717,0,0,0-1.0812-3.3027,9.0573,9.0573,0,0,0-5.3651-1.4655c-.3163,0-.6366.0112-.9583.0347l-.1092.0083c-.6522.0489-1.5449.1165-1.6349.6748a.6247.6247,0,0,0,.0024.1763l.2478.0166a6.0824,6.0824,0,0,1,3.4662,1.8382,10.2619,10.2619,0,0,1,.7649,1.0723,4.7485,4.7485,0,0,0,1.894,1.9724A2.2474,2.2474,0,0,0,31.1236,22.4974Z"/>
        <path class="b" d="M34.657,19.177a1.8939,1.8939,0,0,0,1.651-.9338,2.481,2.481,0,0,0,.1167-2.3567A3.24,3.24,0,0,0,35.3856,14.75a9.9124,9.9124,0,0,0-5.78-1.2976l-.23.0094c-.8716.0338-2.1883.0842-2.1687.8907l-.07.1306.0979-.0219c.0471.0034.6708.1928,1.0832.3182.3467.1053.6546.2.7345.2355a7.8109,7.8109,0,0,1,1.6917,1.0107,7.9494,7.9494,0,0,1,1.1737,1.2829c.7095.897,1.4436,1.8245,2.6618,1.867l.0695.0921.0074-.0005v-.09Z"/>
        <path class="b" d="M110.3448,55.06a1.6716,1.6716,0,0,0,.3374-.0357,31.8273,31.8273,0,0,1,4.1552-3.04c.0651-.0377.3154-.1566.6644-.3133.03-.0137,2.8831-1.2981,3.5751-1.4627-.2135-.349-1.1473-.5576-1.67-.6746l-.2957-.0676c-.43-.1082-.86-.2086-1.27-.3041s-.7987-.187-1.1477-.2762a28.678,28.678,0,0,1-8.4805-3.4295,14.4346,14.4346,0,0,1-3.263-2.7509l-.0436-.05.2958-.5988A58.4352,58.4352,0,0,0,107.4274,31.89a2.4884,2.4884,0,0,1,.5954-.23c.7669-.2189,1.7211-.4917,1.7775-1.1517.0479-.6052-.63-1.0944-1.1247-1.4513-1.01-.7336-2.1056-1.3814-3.1651-2.0081-.7542-.4456-1.4666-.8667-2.0714-1.2716l-.2565-.1719.3085-.0118c1.0616-.04,2.1515-.0578,3.2542-.0578,3.4472,0,7.0257.1773,9.4171.311l.3707.0229c.405.0265.8971.0588,1.3764.0588,1.1183,0,1.731-.1831,1.821-.5449.1792-.7017-.67-1.3682-1.1266-1.7256l-.0945-.0749a52.0691,52.0691,0,0,0-5.6057-3.9579c-.0475.0715-.5058.74-1.2926,1.9953-.0784.1254-.1333.2121-.1518.2395-.0921.14-.1862.2923-.2826.45-.5215.8516-1.113,1.8171-2.1628,1.8534-.3031-.0132-.9014-.02-1.6883-.0455-1.3387-.0441-3.1716-.1043-4.261-.1043a4.2887,4.2887,0,0,0-.8795.0372l-.0549-.0784h-.1v-.01c.0034-1.092-.0172-2.1212-.0377-3.1627-.0167-.8427-.0333-1.6933-.0382-2.5908a2.23,2.23,0,0,1,.5831-.4441c.5029-.3,1.0723-.6409,1.0723-1.1737-.0019-.7482-1.3524-1.1757-2.3386-1.4876-.1992-.0632-.3853-.1225-.5445-.1787a35.907,35.907,0,0,0-3.5887-1.1115,2.5556,2.5556,0,0,0-.4965.0392,2.4948,2.4948,0,0,1-.2762.0318,13.3144,13.3144,0,0,0-.1067,3.5818c.003.0661.2615,6.6334.1538,6.7509-1.6272.117-2.78.047-4.1851.026-.9764-.0148-2.0194-.03-3.2328-.03-1.6182,0-3.5182-.0362-5.6466-.1068l-.25-.0112c-.1856-.0089-.3726-.0177-.5489-.0177-.285,0-.68.0211-.8119.2013a4.4985,4.4985,0,0,0,1.68,2.0154c.1008-.0259.2776-.0582.4573-.09.1444-.0265.29-.0525.4339-.0671.398-.0455.8015-.0847,1.1893-.1136,4.4721-.33,9.2012-.3511,13.7746-.3722,1.1933-.0059,2.3753-.0112,3.5378-.022l.1145-.001-.0142.1136c-.6126,4.949-1.3221,9.6849-3.2523,13.2379l-.069.1273-.0951-.11a39.3334,39.3334,0,0,1-5.2265-8.9054l-.1088-.2424a2.6877,2.6877,0,0,0-.6115-1.01,1.913,1.913,0,0,0-1.4881.0372,1.37,1.37,0,0,0-.1978.116,10.7415,10.7415,0,0,1-4.3687,3.27,3.4664,3.4664,0,0,0,.9386,2.2755,2.2035,2.2035,0,0,0,1.4989.9083,1.7757,1.7757,0,0,0,.3927-.1175,12.318,12.318,0,0,0,1.0709-.9617c.3976-.5122.8049-.9837,1.1986-1.4362.0461-.0539.0907-.1121.1352-.17a1.2274,1.2274,0,0,1,.5949-.5063l.0862-.024.425,1.0606a70.3725,70.3725,0,0,0,3.955,8.7233c.1871.327-.8113,1.64-2.9668,3.9021a29.8917,29.8917,0,0,1-6.22,4.8515c-1.2236.7433-2.2322,1.3044-3.1749,1.7657-.3036.1484-3.0745,1.0592-3.5833,1.2256.0607.262.44.3844.7868.3991l.1646.0034a8.9072,8.9072,0,0,0,2.2064-.3809l.3364-.0867a47.8759,47.8759,0,0,0,7.1073-2.5487A29.0729,29.0729,0,0,0,98.6494,47.74a9.9489,9.9489,0,0,0,.8034-.7095,8.65,8.65,0,0,1,.8868-.7677l.0813-.0588.0588.0817c.32.4481.6263.9054.9318,1.3633a17.9047,17.9047,0,0,0,3.1568,3.8721,30.3947,30.3947,0,0,0,4.1582,2.83l.1948.116a3.3781,3.3781,0,0,0,1.4093.593l.0142.0985h0Z"/>
        <path class="b" d="M24.4437,47.0013a11.93,11.93,0,0,0-1.2985.1067,12.5267,12.5267,0,0,0-1.9274.5583,21.3106,21.3106,0,0,1-2.8968.8324,21.6209,21.6209,0,0,1-4.2713.4191c-3.7273,0-8.4377-.8343-10.48-3.1768a4.342,4.342,0,0,1-1.0248-3.5941,3.694,3.694,0,0,1,.55-2.1437C2.0389,40.2808,0,42.5612,0,45.06c0,6.69,11.1108,8.1548,15.3919,8.1548,6.745,0,12.2326-1.8964,12.2326-4.2277C27.6245,47.8,26.3464,47.0013,24.4437,47.0013Z"/>
        <path class="b" d="M153.3969,43.5154l-.066-.0224-.002-.07c-.0137-.542-.0451-1.0939-.0755-1.6335l-.0538-1.09c-.08-1.1835-.2674-4.3809-.2674-8.46V30.7432l.0715-.0215c3.94-1.188,5.9376-2.7146,5.9376-4.5387,0-1.6065-1.396-1.9732-2.7465-2.3278-.1424-.046-.3467-.1195-.5875-.212l-.878-.5215c.0005.0265.0015.0524.0025.0783l.0029.1019a2.8149,2.8149,0,0,0,.5308.6224,3.2965,3.2965,0,0,1,.2913.3114c.7854,1.1076.8335,1.96.1425,2.533a2.0418,2.0418,0,0,1-1.21.4363.9126.9126,0,0,1-.9323-.6033,1.574,1.574,0,0,1,.0284-.8226,2.3556,2.3556,0,0,0,.0651-.45c.0015-.2581.0127-.55.0245-.8589a10.03,10.03,0,0,0-.1283-2.7377c-.46-1.6349-2.4943-3.2405-3.6779-3.2459a2.4572,2.4572,0,0,0-2.3484,1.6369l.1157.0828c.5812.4157.9831.7085,1.0561.7893a3.7257,3.7257,0,0,1,.7375,1.2971,9.8159,9.8159,0,0,1,.3525,3.2567l0,.3188a10.7673,10.7673,0,0,1-.0318,2.0659c-.2.3035-1.448.2639-3.7239-.1416a19.611,19.611,0,0,1-3.69-1.0444c-.0984-.0387-.2351-.1053-.3927-.1821-.4848-.2381-1.2217-.5705-1.47-.4329a.3047.3047,0,0,0-.1483.2155,3.1857,3.1857,0,0,0,.612,1.8068,8.3814,8.3814,0,0,0,1.4039,1.53,9.3121,9.3121,0,0,0,5.8793,1.88,10.8111,10.8111,0,0,0,1.4572-.0882l.1121-.0146.0074.6723c.0391,3.7816.08,7.3635.12,9.0968V42.731l-.1137-.0147a16.3739,16.3739,0,0,0-2.12-.1395c-4.8913,0-8.7223,2.2647-8.7223,5.1551,0,2.7715,3.1392,5.2952,6.5859,5.2952a7.8159,7.8159,0,0,0,7.4271-5.9524l.0363-.13.114.072a10.2006,10.2006,0,0,1,3.2543,3.2734c.7741,1.23,1.534,1.489,2.0349,1.489a2.1265,2.1265,0,0,0,1.8618-2.3126C160.2752,47.2422,156.705,44.6456,153.3969,43.5154ZM148.66,47.53a4.66,4.66,0,0,1-1.5532,1.2908,5.8772,5.8772,0,0,1-2.3053.6131c-.1592.0107-.3192.0161-.4789.0161a5.7328,5.7328,0,0,1-3.1974-.8745.62.62,0,0,1-.2155-.8256,3.8644,3.8644,0,0,1,2.2926-1.7912,7.5179,7.5179,0,0,1,3.1916-.639,14.02,14.02,0,0,1,3.0648.3883C149.5893,45.9251,148.67,47.5165,148.66,47.53Z"/>
        <path class="b" d="M135.7124,35.9591c.0324-.0618.12-.2454.2273-.4735.284-.5979.448-.9373.5489-1.1306a4.6313,4.6313,0,0,0-1.5013,1.1394l-.2321.2281a10.55,10.55,0,0,0-1.9111,2.8048c-.311.5989-.5862,1.21-.9035,1.9425-.0494.1151-.1376.28-.2374.4652a3.4585,3.4585,0,0,0-.5171,1.2829v.0029l-.1988.0235a9.3318,9.3318,0,0,1-.0666-1.0988c0-2.9149,1.255-6.0992,2.3616-8.9084.2444-.6311.4833-1.1917.7037-1.7039a9.5119,9.5119,0,0,0,1.0723-3.8145,6.6635,6.6635,0,0,0-4.1127-6.226c-.3025-.1425-.6208-.26-.94-.3775a7.5743,7.5743,0,0,1-1.4465-.6508.8977.8977,0,0,0-.0832.2317c-.1067.4862.49,1.3382.925,1.9606a7.0771,7.0771,0,0,1,.4681.7212,9.5972,9.5972,0,0,1,1.1061,4.0716,16.8211,16.8211,0,0,1-.5709,3.7321l-.1709.7629c-.209.9186-.4558,1.8572-.7075,2.8155a37.7912,37.7912,0,0,0-1.6213,9.7877c0,3.9233,1.085,10.1473,3.9975,10.1473a1.8435,1.8435,0,0,0,1.732-2.0434,3.8237,3.8237,0,0,0-.3164-1.4376c-.8309-2.0247-.3226-4.165.169-6.2349.0871-.3657.1734-.7281.2507-1.086.0891-.4133.1734-.828.2571-1.2432A21.4359,21.4359,0,0,1,135.7124,35.9591Z"/>
        <path class="b" d="M14.1349,21.6151c-1.466.0846-2.9825.1713-4.4809.141a18.932,18.932,0,0,1-2.9976-.263,8.5663,8.5663,0,0,1-1.539-.3981,4.0215,4.0215,0,0,1-.5132-.2987,3.6633,3.6633,0,0,0-.7183-.3975l-.118.02v.5142c0,.5342,1.9625,3.7757,7.1186,4.2311.3281.0235.6586.0353.9858.0465l.1057.0034c.3281.01.6522.0226.9749.0436l.1816.0113-.1067.1474c-.2952.4068-.8054,1.0556-1.3994,1.78l-1.0356,1.7378c-.1293.3941-.2581.81-.3555,1.2329l.0078.0245h.1454c2.0605-2.7132,5.5581-3.4888,8.6459-4.1733l.3653-.0814c.2674-.06.5876-.0988.9278-.14,1.3187-.1606,2.8126-.3427,2.8126-1.7985,0-1.2554-1.7367-2.6545-4.2295-2.6545a10.5008,10.5008,0,0,0-1.119.0759,11.237,11.237,0,0,1-1.18.073C15.789,21.52,14.962,21.5675,14.1349,21.6151Z"/>
        <path class="b" d="M39.4252,52.652c.0985.0622.193.1224.2782.1816.2443.17.519.3535.801.5436l.2919.1992a3.075,3.075,0,0,0,1.7089.761c.4465-.06.8388-.7746,1.0562-1.4234.4843-1.4093.8539-2.9517,1.2118-4.4427.15-.6283.2964-1.2374.4447-1.8073.3232-1.2257.6033-2.6471.874-4.0216.1665-.8447.3335-1.6928.5122-2.51l.0436-.1758c.0911-.3495.3672-1.4141.1513-1.6932a.144.144,0,0,0-.1244-.0573c-.425.0749-.7379.8877-.9054,1.3245l-.0842.2135a35.8977,35.8977,0,0,1-6.59,10.9145,8.3523,8.3523,0,0,1-.6066.59,1.4286,1.4286,0,0,0-.026.402C38.5492,52.0967,39.015,52.392,39.4252,52.652Z"/>
        <path class="b" d="M37.0724,32.007a.9828.9828,0,0,0-.0817.2415,9.2193,9.2193,0,0,1,1.6153-.1846,3.33,3.33,0,0,1,1.1278.1742A6.8462,6.8462,0,0,1,41.47,33.333a4.6365,4.6365,0,0,0,2.5393,1.2746,2.06,2.06,0,0,0,1.2785-.48,1.9625,1.9625,0,0,0,.4779-1.4107,2.9809,2.9809,0,0,0-.8285-2.2256,3.4987,3.4987,0,0,0-2.9634-.9587,8.5436,8.5436,0,0,0-3.8967,1.6409l-.1987.1365A2.7511,2.7511,0,0,0,37.0724,32.007Z"/>
        <path class="b" d="M49.1205,52.6167c.1567,0,.3167-.0044.4784-.0122,6.2034-.283,12.8976-.4153,21.0665-.4153.6488,0,1.3427.0177,2.0512.0358.6028.0157,1.2163.0313,1.821.0362.1709.001.3869.0128.6258.0255.3089.0166.6571.0353.9989.0353,1.042,0,1.5772-.1851,1.636-.5661.0636-.4661-.4246-.91-.7472-1.2041-.9344-.852-1.5014-1.3646-2.37-2.1231-.0926-.0833-.1944-.1886-.3027-.3a2.4238,2.4238,0,0,0-.8647-.68c-1.2109-.2791-1.89.6659-2.5006,1.5924l-.1974.2957c-.0323.0484-.0842.1317-.1484.2356-.4754.7648-.7927,1.2216-1.0076,1.2931a3.8144,3.8144,0,0,1-1.0822.0275c-.1718-.0114-.3349-.0221-.4686-.0221-.5342,0-1.0459.0058-1.5468.0118-.9745.0112-1.9073.0215-2.8865-.0118l-.097-.0034v-.097c.0019-1.8607-.0083-3.4922-.0187-5.1194-.0131-2.1231-.0263-4.2385-.0131-6.8429l0-.091.0907-.0085c.6977-.064,1.5213-.0939,2.5921-.0939.5656,0,1.1469.0078,1.7354.0156.96.0133,1.94.0275,2.9037.0059l.12-.0029c.6322-.0157,1.6909-.0416,1.7942-.447.14-.5607-.7115-1.259-1.0317-1.5219L71.6731,36.6a9.4333,9.4333,0,0,0-1.6453-1.1639l-.1424-.16a1.41,1.41,0,0,0-.6958-.5616,1.6777,1.6777,0,0,0-1.7633.825,4.07,4.07,0,0,0-.2713.5009c-.36.7238-.661,1.2771-.9876,1.2771l-1.6923.0024-.9279-.0034,0-.099c-.002-.7745-.01-1.4244-.0171-2.0726-.01-.8815-.0206-1.76-.0177-2.9444a1.9611,1.9611,0,0,1,.51-.4181c.4216-.2669.82-.52.7688-1.063-.0554-.5818-1.0244-.9559-1.6654-1.2036l-.142-.0549a16.2807,16.2807,0,0,0-1.7706-.568c-.2374-.066-.4642-.1287-.6767-.1939l.0289-.1964c1.1547-.0029,2.2823-.0509,3.4761-.1013,1.2477-.0529,2.5369-.1078,3.8718-.1078l.5058.0026c.5954.0063,1.205.02,1.8117.0323.7389.0161,1.4729.0317,2.1682.0348.2478.0019.5063.021.7658.04a8.2106,8.2106,0,0,0,1.06.0328c.6067-.0431,1.2732-.2253,1.3221-.6071.0466-.3928-.3829-.8012-.6963-1.0993L74.7149,26.6a22.3841,22.3841,0,0,0-1.8113-1.5669l-.54-.4353c-.0768-.0627-.1694-.148-.2713-.2415a2.8261,2.8261,0,0,0-.9288-.6664,1.3141,1.3141,0,0,0-1.6462.7516l-.4873.7874c-.3687.6018-.7168,1.17-1.1173,1.7079q-2.6258.0641-5.3677.1366c-3.2145.0838-6.7205.1519-9.3485.0372-.2527-.0092-.5088-.0308-.7624-.0523-.3222-.0275-.6414-.0544-.9461-.0544l-.1845.0039c-.1969.01-.4109.0128-.6312.0157a6.1554,6.1554,0,0,0-1.6256.1562,2.9336,2.9336,0,0,1,.0346.4931c.0036.1332.007.2664-.0014.3873a2.4355,2.4355,0,0,0,.903.6944,2.5835,2.5835,0,0,0,.97.05c.1641-.0137.3315-.0274.5029-.0274l.46.0039c.9994,0,2.0551-.0563,3.0756-.1107,1.3019-.07,2.6495-.1405,3.8815-.0965l.0935.0035.0034.0935c.09,2.6564.1038,5.89.0382,8.6508l-.0025.0955-.0954.0024c-2.1105.0494-4.3036.0039-6.323-.0367-.6591-.0137-1.3-.027-1.9121-.0362a.6311.6311,0,0,0-.3873.42,1.1551,1.1551,0,0,0,.3932.9318c.1494.16.6983.3511,2.4684.3511,1.3206,0,2.9086-.1048,4.0675-.1811.7086-.0471,1.2746-.0843,1.56-.0843.1484,0,.3022,0,.3022.1263l-.0021,3.41c-.0049,3.0814-.0093,6.2681.0377,8.5494l.0021.1-.1.002c-1.8784.0357-3.8825.044-5.8569.044L48.2248,51.01c-.0885,0-.1826-.0054-.278-.0108s-.1905-.01-.284-.01c-.3237,0-.503.072-.6.2409a1.1989,1.1989,0,0,0,.283.9025A2.3752,2.3752,0,0,0,49.1205,52.6167Z"/>
        <path class="b" d="M54.684,15.5472c-.04.2762.2526.5714.41.7306l.0823.0851c.2717.2938.57.5588.8632.82a6.9372,6.9372,0,0,1,1.2922,1.3745,9.376,9.376,0,0,1,.9338,2.2686c.45,1.423.9151,2.8944,2.2637,3.3218a3.5444,3.5444,0,0,0,1.0792.1744h.0005a3.2457,3.2457,0,0,0,2.4228-1.1062,3.7247,3.7247,0,0,0,.9632-2.4645c0-1.8111-1.02-3.1954-3.1206-4.2315a13.116,13.116,0,0,0-6.0777-1.37l-.1894.0391C55.2367,15.2172,54.73,15.2563,54.684,15.5472Z"/>
        <path class="b" d="M40.0912,19.2706a4.9081,4.9081,0,0,1,3.4516,3.5666c.3672.6156.8329,1.3055,1.5811,1.4146a2.3829,2.3829,0,0,0,2.0991-.7207,2.6249,2.6249,0,0,0,.6905-1.9783,2.9641,2.9641,0,0,0-1.0679-2,6.4222,6.4222,0,0,0-3.6505-.9519c-.1228,0-.2448.0029-.3652.0083C41.2169,18.6673,40.1167,18.9331,40.0912,19.2706Z"/>
      </g>
      <path class="b" d="M304.6654,30.8955c-2.1016,0-2.5423.4916-2.6344.8451a11.9177,11.9177,0,0,1,1.9058.9638,6.3424,6.3424,0,0,1,1.1144,1.17,5.0012,5.0012,0,0,1,1.4455,1.9195c.188.194.37.39.5387.59a2.5416,2.5416,0,0,0,1.8822.9842A2.3184,2.3184,0,0,0,311.1,34.942C311.1,32.9315,308.8863,30.8955,304.6654,30.8955Zm5.29-7.8854a7.8649,7.8649,0,0,1-.9344-.0588,14.7981,14.7981,0,0,0-2.4914-.1988,16.0677,16.0677,0,0,0-6.6024,1.2741c-3.0027,1.6051-5.637,8.5572-5.637,14.8778,0,8.5719,4.9024,9.4974,7.01,9.4974a8.4291,8.4291,0,0,0,2.6207-.4447,4.4624,4.4624,0,0,1,1.4435-.2252c1.5884,0,2.7871.951,2.7871,2.2113,0,2.6392-4.6341,3.2171-6.42,3.2171-1.7825,0-10.6726-.6131-10.6726-12.7272a31.62,31.62,0,0,1,.989-7.7053,27.8545,27.8545,0,0,1,1.0715-3.4031c.0489-.1273.1136-.3134.19-.5327.2663-.7776.7618-2.226,1.1947-2.4376l-.1411-.2889v.001a9.673,9.673,0,0,1-1.1594.4457c-.3545.12-.711.2408-1.0518.3927-.96.4357-1.9077.8941-2.8537,1.3582l-.3408.1695c-2.11,1.039-3.9291,1.937-6.3049,1.937l-.2194-.0029c-1.2593-.0294-4.1875-.3859-4.1875-3.0751a.981.981,0,0,1,.3447-.8324,4.2037,4.2037,0,0,0,2.701.855h.0019c2.4914,0,5.5136-1.5,7.7209-2.5962.5641-.2811,1.0832-.5386,1.5278-.7394l1.706-.7746a68.74,68.74,0,0,1,10.8508-4.2218,8.3727,8.3727,0,0,0,.8617-.2792,13.5919,13.5919,0,0,1,3.1378-.6375c.4289-.0392.8716-.0627,1.31-.0627,1.7589,0,4.7106.381,4.7106,2.9331C313.1189,21.9681,312.1414,23.01,309.9557,23.01Zm7.0785,8.4613A2.2157,2.2157,0,0,1,314.8973,33.8c-1.9391,0-2.6442-2.2064-3.6293-3.4667-.903-1.1556-2.1585-1.2858-3.3826-1.8421.2194-.7854,1.6355-.9676,2.8537-.9676C313.8729,27.5237,317.0342,28.7439,317.0342,31.4714Z"/>
      <path class="b" d="M359.0468,26.6659c.0019-2.1457-3.3141-3.509-5.6037-3.6313a4.4838,4.4838,0,0,0-.55-.002,12.083,12.083,0,0,1-4.3717-.5611,8.9354,8.9354,0,0,1-1.9567-.8815,7.2155,7.2155,0,0,1-.6934-.5933,7.7411,7.7411,0,0,0-.613-.5338l-.0137.002c.1586.9274,1.7138,3.0946,2.5972,3.0946v.001l.0195-.001.0138.3212c-1.2106.0509-2.4131.1273-3.676.2155l-.1938.0136.0254-.1928c.1332-1.0949.3-2.1722.51-3.2935a9.3436,9.3436,0,0,0,.16-1.4915,3.6933,3.6933,0,0,0-3.8672-4.0064,2.5235,2.5235,0,0,0-2.1232.8667,13.9674,13.9674,0,0,1,1.2946,1.6139,7.4244,7.4244,0,0,1,.5563,2.4376c.0039.042.2957,4.3314-.1116,4.3775-2.6149.2811-5.1082.62-8.0971,1.0322l-1.2006.1645c-1.1281.1538-2.268.3094-3.4237.4554a17.193,17.193,0,0,1-2.1486.1322,10.0037,10.0037,0,0,1-1.31-.0813l-.1136-.002a1.3629,1.3629,0,0,1-.329-.03,17.1972,17.1972,0,0,1-2.4425-.8266,1.061,1.061,0,0,0-.5777,1.0841c0,2.4375,2.9692,4.1366,5.6349,4.1366a8.6164,8.6164,0,0,0,3.314-.6825,41.3084,41.3084,0,0,1,10.6784-2.6794l.1763-.0206.0039.1773c.0333,1.9263.0627,3.693.0725,5.1541l.004.2115-.2057-.0548a5.9708,5.9708,0,0,0-1.5669-.2106A4.5151,4.5151,0,0,0,334.2,37.2934a10.0263,10.0263,0,0,0,1.9567,5.73,3.1876,3.1876,0,0,0,2.6834,1.45,3.4854,3.4854,0,0,0,.7422-.0636c.0588-.0108.1137-.0265.1705-.04a1.4889,1.4889,0,0,1,.3721-.0656l.1783-.0049-.0138.1772c-.1586,2.1389-1.7118,4.0906-3.1533,5.7535a15.5647,15.5647,0,0,1-2.2839,2.0223l-.5405.4211a11.65,11.65,0,0,1-1.6316,1.0352,3.4948,3.4948,0,0,0-.76.4867c.0137.001.0529.0274.1391.0616a.9234.9234,0,0,0,.329.0461,12.783,12.783,0,0,0,3.3081-.8736,14.1967,14.1967,0,0,0,3.51-1.9841,16.5161,16.5161,0,0,0,5.0479-6.3949,13.55,13.55,0,0,0,1.2178-5.4449,6.7912,6.7912,0,0,0-1.6506-4.9211l-.0412-.1-.0176-.426c-.047-1.0352-.1077-2.3239-.1077-3.8135,0-1.06.0333-2.178.096-3.3218l.01-.1478.1469-.0039c.5347-.0148,1.0562-.0148,1.5586-.0148a35.4916,35.4916,0,0,1,10.1359,1.38,3.2333,3.2333,0,0,0,2.8185-.2928A1.5541,1.5541,0,0,0,359.0468,26.6659ZM339.38,40.3733c-2.3876,0-2.6246-3.77-2.6246-3.8085,0-1.1615.5758-1.8558,1.5355-1.8558a2.8226,2.8226,0,0,1,2.4914,1.655,6.3256,6.3256,0,0,1,.1371,1.29C340.92,39.9013,340.0813,40.3733,339.38,40.3733Z"/>
      <path class="b" d="M379.3244,27.2877a5.9712,5.9712,0,0,0-1.5531.2066l-.284.07.0921-.2762a21.3648,21.3648,0,0,0,1.1888-5.3353c0-2.69-1.614-3.6479-3.124-3.6479a5.2611,5.2611,0,0,0-3.2905,1.4728,4.5339,4.5339,0,0,1,1.9077,2.606,3.33,3.33,0,0,1,.3134,1.6707,20.1221,20.1221,0,0,1-.7619,4.6831l-.0235.0822-.08.0275c-.4427.1478-.9225.335-1.4239.5327a13.8234,13.8234,0,0,1-4.6949,1.23,4.3079,4.3079,0,0,1-1.3181-.191,11.3733,11.3733,0,0,1-2.77-2.1584,3.0723,3.0723,0,0,0-.4935,2.0545,4.1584,4.1584,0,0,0,4.3638,4.13,14.4373,14.4373,0,0,0,4.2874-1.2417l.3956-.1655-.19.3849a106.5511,106.5511,0,0,1-8.54,13.6751,6.704,6.704,0,0,0-1.6061,3.5794,1.5875,1.5875,0,0,0,1.6883,1.7343c1.1008,0,2.7029-.9156,3.81-2.9634.6346-1.1751,1.3417-2.52,2.084-3.9632l.2057-.3986.094.4368c.0666.2967.1743.6816.3212,1.1918a5.9018,5.9018,0,0,1,.2174,1.5248c.0568,1.1751.1254,2.5051,1.9313,3.0809a5.7477,5.7477,0,0,0,1.9938.3291c5.22,0,10.7685-5.5175,10.7685-15.7425C384.834,30.1865,382.9773,27.2877,379.3244,27.2877Zm-4.4421,19.9829a3.0222,3.0222,0,0,1-1.3769-.4083,2.3822,2.3822,0,0,1-.6562-.2664,4.3515,4.3515,0,0,1-2.5462-1.8215,1.0729,1.0729,0,0,1-.0568-.712l-.2116-.02.11-.2106c1.3555-2.6774,3.9173-7.8335,5.8035-12.29,1.9586-1.3828,2.9164-1.45,3.0887-1.45,1.3966,0,2.1329,1.68,2.1329,4.8594C381.1694,40.766,378.48,47.2706,374.8823,47.2706Zm18.6618-5.8827-.1136.001c-.474.0166-1.0009.0314-1.5885.0314-1.1555,0-2.1133-.0666-2.1133-.8775a.6372.6372,0,0,1,.0666-.2713c.1272-.0265.4231-.0764.756-.1312.7188-.1235,1.2437-.2135,1.4063-.2684a14.3527,14.3527,0,0,0,1.9351-.7766c1.6766-.8559,2.5247-1.8979,2.5247-3.0956,0-2.9135-2.5521-5.1542-7.8031-6.8434.092-.3516.4856-.53,1.1751-.53,6.4889,0,11.1975,3.4236,11.1975,8.1391a5.3209,5.3209,0,0,1-2.0448,4.4461,3.0958,3.0958,0,0,1-1.8959.5875,9.4944,9.4944,0,0,1-1.6473-.1968A10.6973,10.6973,0,0,0,393.5441,41.3879Z"/>
      <path class="b" d="M173.3956,12.41c.4132-2.651,3.4089-4.0367,4.7359-4.0779-.3741-1.4367-.4612-7.6063,1.34-8.3311,0,0,1.5326-.2183,1.05,5.6713,0,0-.3771,1.422-.7747,2.5814l1.2722.3173C184.4588.9315,187.7,1.8334,187.7,1.8334c2.2848,1.5228-4.7477,8.1469-4.7477,8.1469.81,1.7315-.0049,4.6086-.0049,4.6086a7.2048,7.2048,0,0,1,5.3441,1.6463c2.0468-1.3906,2.7911.4181,2.7911.4181.5131,1.6-1.3731,2.2387-1.3731,2.2387,1.6737,2.2946,1.0254,3.2641.6474,3.6725-.48.3947-2.4708-1.0322-2.4708-1.0322-1.1958-.2321-2.1487-.9333-3.4825-1.0058a16.2574,16.2574,0,0,0-7.81,1.6c-1.3661.6777-2.3659.9666-2.9055.5415-.6523-2.2337,3.5138-5.6809,3.5138-5.6809.5659-.5122-.4114-.67-.4114-.67A3.5413,3.5413,0,0,1,173.3956,12.41ZM196.15,32.815a12.3383,12.3383,0,0,1-1.59,6.5105c-5.3147,10.1085-20.6058,14.6917-22.864,14.8189-.6023.0343-.7472-.2732-.762-.5376-.0176-.3124-.0343-.6072,2.3338-1.6315,7.524-3.1926,18.0183-10.3034,18.0183-18.9468,0-4.4069-4.3853-6.2627-6.6192-6.1364a13.363,13.363,0,0,0-5.9639,2.0722,8.8065,8.8065,0,0,1-4.455,1.7118c-3.3619.19-5.8142-1.6413-5.9141-3.404a2.06,2.06,0,0,1,1.517-2.1369,1.1938,1.1938,0,0,1,1.1066.7521c.3565.4769,1.2927.5386,2.01.4985a17.9,17.9,0,0,0,4.1562-.9108l.1126-.0363a36.4042,36.4042,0,0,1,7.78-1.5443C191.4561,23.5291,195.8836,28.1436,196.15,32.815Z"/>
      <path class="b" d="M147.2266,66.3777c-3.71,0-7.5144-1.042-8.14-2.227a.5942.5942,0,0,1,.0538-.6639.3067.3067,0,0,0,.0559-.1763.3154.3154,0,0,0-.5758-.1773c-.8041,1.1752-3.1858,2.3758-6.2941,2.9291a1.4735,1.4735,0,0,0-2.3965-.4073,1.8586,1.8586,0,0,0-1.5433-.8207c-1.0283,0-1.2643.8334-1.2643,1.8607s.236,1.8607,1.2643,1.8607a1.8569,1.8569,0,0,0,1.5433-.8217,1.4735,1.4735,0,0,0,2.3965-.4073c3.1083.5523,5.49,1.7529,6.2911,2.9281a.3159.3159,0,0,0,.2615.1381.309.309,0,0,0,.1782-.0559.3151.3151,0,0,0,.0822-.4377.5937.5937,0,0,1-.0557-.6621c.6286-1.1868,4.4333-2.2278,8.143-2.2278a.3159.3159,0,1,0,0-.6317Z"/>
      <path class="b" d="M36.8185,66.6744c.001-.0127.007-.0265.007-.0392a1.1585,1.1585,0,0,0-1.41-.9665c-.8422.37.0832-.429-.1576-1.1557-.1577-.4739-.9118-.9567-.8952-.3162.0372,1.369-2.5276,1.78-4.4627,1.8959-.1919.01-.4211.0226-.662.0323a5.6007,5.6007,0,0,1-3.5519-3.9035.947.947,0,0,0,.2467.094,1.01,1.01,0,0,0,.44-1.9714,1.0186,1.0186,0,0,0-.7491.1283.968.968,0,0,0,.1077-.27,1.0107,1.0107,0,1,0-1.3407.72,1.0075,1.0075,0,1,0,.8089,1.46,5.38,5.38,0,0,0,.4574,1.21c.38.7315-1.2027,2.6079-2.5561,2.504a4.6694,4.6694,0,0,1-3.1916-1.4474,1.143,1.143,0,0,1,.1646-1.5542,1.3523,1.3523,0,0,1,1.4523-.0392c.31.1381.5533-.26.421-.7149a2.6657,2.6657,0,0,0-2.4188-1.6139,2.4537,2.4537,0,0,0-2.4258,2.83A3.6741,3.6741,0,0,0,18.72,65.5354a11.0088,11.0088,0,0,1-1.6865-.4191C15.5067,64.54,11.58,65.96,11.58,66.6352c0,.0127.0107.0275.0127.0392a.3039.3039,0,0,0-.0118.04c0,.6748,3.9272,2.0948,5.4528,1.518a11.1918,11.1918,0,0,1,1.6865-.4192,3.6785,3.6785,0,0,0-1.6169,1.98,2.4538,2.4538,0,0,0,2.4258,2.8322,2.666,2.666,0,0,0,2.4189-1.6139c.1312-.4564-.1117-.853-.4221-.7149a1.3547,1.3547,0,0,1-1.4523-.04,1.1443,1.1443,0,0,1-.1636-1.5552,4.657,4.657,0,0,1,3.1916-1.4474c1.3534-.1038,2.936,1.7725,2.556,2.5031A5.426,5.426,0,0,0,25.199,70.97a1.0079,1.0079,0,1,0-.8089,1.46,1.0085,1.0085,0,1,0,1.3417.72.994.994,0,0,0-.1087-.2692A1.0081,1.0081,0,0,0,27.138,71.8a1.008,1.008,0,0,0-1.2045-.7638.9825.9825,0,0,0-.2458.093,5.5929,5.5929,0,0,1,3.5509-3.9045c.24.01.47.0215.6621.0323,1.9351.1156,4.4989.5268,4.4617,1.895-.0156.6414.7375.1586.8952-.3154.2418-.7266-.6837-1.5257.1576-1.1555a1.1585,1.1585,0,0,0,1.41-.9667A.294.294,0,0,0,36.8185,66.6744Z"/>
      <path class="b" d="M126.6154,67.5392a.8224.8224,0,1,1,.8221-.8227.8265.8265,0,0,1-.8221.8227Zm-2.5272,0a.8225.8225,0,0,1,0-1.6448.8224.8224,0,0,1,0,1.6448Zm-2.5172,0a.8224.8224,0,1,1,.8226-.8227.8263.8263,0,0,1-.8226.8227Zm-2.5271,0a.8224.8224,0,1,1,.8226-.8227.8264.8264,0,0,1-.8226.8227Zm-2.5273,0a.8224.8224,0,1,1,.8228-.8227.8263.8263,0,0,1-.8228.8227Zm-2.5271,0a.8225.8225,0,0,1,0-1.6448.8224.8224,0,1,1,0,1.6448Zm-2.5167,0a.8224.8224,0,1,1,.8221-.8227.826.826,0,0,1-.8221.8227Zm-2.5272,0a.8224.8224,0,1,1,.8222-.8227.8259.8259,0,0,1-.8222.8227Zm-2.5271,0a.8224.8224,0,1,1,.8221-.8227.8259.8259,0,0,1-.8221.8227Zm-2.5271,0a.8224.8224,0,1,1,.8221-.8227.8259.8259,0,0,1-.8221.8227Zm-2.5169,0a.8224.8224,0,1,1,0-1.6448.8225.8225,0,0,1,0,1.6448Zm-2.5271,0a.8224.8224,0,1,1,.8221-.8227.8263.8263,0,0,1-.8221.8227Zm-2.5271,0a.8224.8224,0,1,1,.8221-.8227.8263.8263,0,0,1-.8221.8227Zm-2.5271,0a.8224.8224,0,1,1,.8221-.8227.8176.8176,0,0,1-.8221.8227Zm-2.5174,0a.8224.8224,0,0,1,0-1.6448.8225.8225,0,0,1,0,1.6448Zm-2.5271,0a.8224.8224,0,1,1,.8226-.8227.8262.8262,0,0,1-.8226.8227Zm-2.5271,0a.8224.8224,0,1,1,.8226-.8227.8262.8262,0,0,1-.8226.8227Zm-2.5271,0a.8224.8224,0,1,1,.8226-.8227.8179.8179,0,0,1-.8226.8227Zm-2.5169,0A.8224.8224,0,1,1,82,66.7165a.8264.8264,0,0,1-.8221.8227Zm-2.5271,0a.8224.8224,0,1,1,.8221-.8227.8259.8259,0,0,1-.8221.8227Zm-2.5271,0a.8224.8224,0,1,1,.8221-.8227.826.826,0,0,1-.8221.8227Zm-2.5272,0a.8224.8224,0,1,1,.8222-.8227.8175.8175,0,0,1-.8222.8227Zm-2.5173,0a.8224.8224,0,1,1,.8227-.8227.8263.8263,0,0,1-.8227.8227Zm-2.5266,0a.8224.8224,0,1,1,.8221-.8227.8265.8265,0,0,1-.8221.8227Zm-2.5272,0a.8224.8224,0,1,1,.8222-.8227.8264.8264,0,0,1-.8222.8227Zm-2.5271,0a.8224.8224,0,1,1,.8221-.8227.8175.8175,0,0,1-.8221.8227Zm-2.5172,0a.8224.8224,0,1,1,.8221-.8227.8264.8264,0,0,1-.8221.8227Zm-2.5272,0a.8224.8224,0,1,1,.8227-.8227.8263.8263,0,0,1-.8227.8227Zm-2.5271,0a.8225.8225,0,0,1,0-1.6448.8224.8224,0,1,1,0,1.6448Zm-2.5168,0a.8225.8225,0,1,1,.8123-.8227.82.82,0,0,1-.8123.8227Zm-2.5272,0a.8224.8224,0,1,1,.8222-.8227.8263.8263,0,0,1-.8222.8227Zm-2.5271,0a.8224.8224,0,1,1,.8221-.8227.8263.8263,0,0,1-.8221.8227Zm-2.5271,0a.8225.8225,0,0,1,0-1.6448.8224.8224,0,0,1,0,1.6448Zm-2.5174,0a.8225.8225,0,1,1,.8124-.8227.82.82,0,0,1-.8124.8227Zm-2.5271,0a.8224.8224,0,1,1,.8226-.8227.8262.8262,0,0,1-.8226.8227Zm-2.5271,0a.8224.8224,0,1,1,.8226-.8227.8262.8262,0,0,1-.8226.8227Z"/>
      <path class="b" d="M274.0855,66.3777c3.71,0,7.5133-1.042,8.14-2.227a.596.596,0,0,0-.0549-.6639.3055.3055,0,0,1-.0548-.1763.3089.3089,0,0,1,.1372-.26.3136.3136,0,0,1,.4387.0823c.803,1.1752,3.1847,2.3758,6.293,2.9291a1.4744,1.4744,0,0,1,2.3974-.4073,1.859,1.859,0,0,1,1.5434-.8207c1.0283,0,1.2633.8334,1.2633,1.8607s-.235,1.8607-1.2633,1.8607a1.8574,1.8574,0,0,1-1.5434-.8217,1.4744,1.4744,0,0,1-2.3974-.4073c-3.1083.5523-5.49,1.7529-6.2911,2.9281a.3142.3142,0,0,1-.26.1381.3068.3068,0,0,1-.1782-.0559.3172.3172,0,0,1-.1391-.26.3333.3333,0,0,1,.0568-.1773.5866.5866,0,0,0,.0549-.6621c-.6288-1.1868-4.4325-2.2278-8.1421-2.2278a.3159.3159,0,1,1,0-.6317Z"/>
      <path class="b" d="M384.4935,66.6744c0-.0127-.0078-.0265-.0078-.0392a1.1589,1.1589,0,0,1,1.41-.9665c.8442.37-.0823-.429.1586-1.1557.1568-.4739.9128-.9567.8951-.3162-.0372,1.369,2.5267,1.78,4.4618,1.8959.1919.01.4211.0226.6639.0323a5.6055,5.6055,0,0,0,3.551-3.9035.9608.9608,0,0,1-.2467.094,1.01,1.01,0,0,1-.4407-1.9714,1.02,1.02,0,0,1,.75.1283.968.968,0,0,1-.1077-.27,1.0107,1.0107,0,1,1,1.34.72,1.0076,1.0076,0,1,1-.809,1.46,5.1915,5.1915,0,0,1-.4564,1.21c-.38.7315,1.2027,2.6079,2.5561,2.504a4.6736,4.6736,0,0,0,3.1926-1.4474,1.1433,1.1433,0,0,0-.1666-1.5542,1.35,1.35,0,0,0-1.4513-.0392c-.3115.1381-.5523-.26-.4211-.7149a2.665,2.665,0,0,1,2.4189-1.6139,2.4518,2.4518,0,0,1,2.4248,2.83,3.6661,3.6661,0,0,1-1.6178,1.9791,10.9423,10.9423,0,0,0,1.6863-.4191c1.5277-.5768,5.4549.8432,5.4549,1.5189a.1443.1443,0,0,1-.0138.0392.1632.1632,0,0,1,.0138.04c0,.6748-3.9272,2.0948-5.4549,1.518a11.0592,11.0592,0,0,0-1.6863-.4192,3.6722,3.6722,0,0,1,1.6178,1.98,2.4536,2.4536,0,0,1-2.4248,2.8322,2.665,2.665,0,0,1-2.4189-1.6139c-.1332-.4564.11-.853.4211-.7149a1.3528,1.3528,0,0,0,1.4513-.04,1.1425,1.1425,0,0,0,.1646-1.5552,4.66,4.66,0,0,0-3.1906-1.4474c-1.3534-.1038-2.9361,1.7725-2.558,2.5031a5.33,5.33,0,0,1,.4583,1.2124,1.0083,1.0083,0,1,1,.809,1.46,1.0083,1.0083,0,1,1-1.34.72.961.961,0,0,1,.1077-.2692,1.0073,1.0073,0,0,1-1.514-1.08,1.0056,1.0056,0,0,1,1.2026-.7638.9624.9624,0,0,1,.2468.093,5.5949,5.5949,0,0,0-3.551-3.9045c-.2409.01-.47.0215-.662.0323-1.9351.1156-4.499.5268-4.4618,1.895.0157.6414-.7383.1586-.8951-.3154-.2409-.7266.6836-1.5257-.1586-1.1555a1.1589,1.1589,0,0,1-1.41-.9667A.3174.3174,0,0,1,384.4935,66.6744Z"/>
      <path class="b" d="M383.0559,67.5392a.8224.8224,0,1,1,0-1.6448.8225.8225,0,0,1,0,1.6448Zm-2.5266,0a.8224.8224,0,1,1,.8216-.8227.8264.8264,0,0,1-.8216.8227Zm-2.5277,0a.8224.8224,0,1,1,.8227-.8227.8264.8264,0,0,1-.8227.8227Zm-2.5266,0a.8224.8224,0,1,1,.8217-.8227.818.818,0,0,1-.8217.8227Zm-2.5178,0a.8224.8224,0,0,1,0-1.6448.8225.8225,0,0,1,0,1.6448Zm-2.5267,0a.8224.8224,0,1,1,.8227-.8227.8263.8263,0,0,1-.8227.8227Zm-2.5276,0a.8224.8224,0,1,1,.8226-.8227.8261.8261,0,0,1-.8226.8227Zm-2.5168,0a.8225.8225,0,1,1,.8128-.8227.8192.8192,0,0,1-.8128.8227Zm-2.5267,0a.8224.8224,0,1,1,0-1.6448.8225.8225,0,0,1,0,1.6448Zm-2.5276,0a.8224.8224,0,1,1,.8226-.8227.8255.8255,0,0,1-.8226.8227Zm-2.5266,0a.8224.8224,0,1,1,.8216-.8227.8264.8264,0,0,1-.8216.8227Zm-2.5168,0a.8225.8225,0,1,1,.8118-.8227.82.82,0,0,1-.8118.8227Zm-2.5277,0a.8224.8224,0,1,1,.8227-.8227.8264.8264,0,0,1-.8227.8227Zm-2.5266,0a.8224.8224,0,1,1,.8217-.8227.8264.8264,0,0,1-.8217.8227Zm-2.5276,0a.8224.8224,0,1,1,.8227-.8227.8264.8264,0,0,1-.8227.8227Zm-2.5168,0a.8224.8224,0,1,1,0-1.6448.8225.8225,0,0,1,0,1.6448Zm-2.5271,0a.8224.8224,0,1,1,.8221-.8227.8263.8263,0,0,1-.8221.8227Zm-2.5271,0a.8224.8224,0,1,1,.8221-.8227.8259.8259,0,0,1-.8221.8227Zm-2.5271,0a.8224.8224,0,1,1,.8221-.8227.826.826,0,0,1-.8221.8227Zm-2.5174,0a.8224.8224,0,1,1,.8226-.8227.8262.8262,0,0,1-.8226.8227Zm-2.5271,0a.8224.8224,0,1,1,.8226-.8227.8262.8262,0,0,1-.8226.8227Zm-2.5266,0a.8224.8224,0,1,1,.8221-.8227.8264.8264,0,0,1-.8221.8227Zm-2.5272,0a.8225.8225,0,0,1,0-1.6448.8224.8224,0,0,1,0,1.6448Zm-2.5173,0a.8225.8225,0,1,1,.8123-.8227.82.82,0,0,1-.8123.8227Zm-2.5271,0a.8224.8224,0,1,1,.8221-.8227.8263.8263,0,0,1-.8221.8227Zm-2.5272,0a.8224.8224,0,1,1,.8227-.8227.8262.8262,0,0,1-.8227.8227Zm-2.5271,0a.8224.8224,0,1,1,.8226-.8227.8178.8178,0,0,1-.8226.8227Zm-2.5168,0a.8225.8225,0,1,1,.8123-.8227.82.82,0,0,1-.8123.8227Zm-2.5272,0a.8224.8224,0,1,1,.8222-.8227.8263.8263,0,0,1-.8222.8227Zm-2.5271,0a.8224.8224,0,1,1,.8221-.8227.8263.8263,0,0,1-.8221.8227Zm-2.5271,0a.8224.8224,0,1,1,.8221-.8227.8176.8176,0,0,1-.8221.8227Zm-2.5174,0a.8224.8224,0,1,1,.8228-.8227.8263.8263,0,0,1-.8228.8227Zm-2.5271,0a.8224.8224,0,1,1,.8226-.8227.8263.8263,0,0,1-.8226.8227Zm-2.5271,0a.8224.8224,0,1,1,.8226-.8227.8263.8263,0,0,1-.8226.8227Zm-2.5168,0a.8225.8225,0,1,1,.8123-.8227.82.82,0,0,1-.8123.8227Zm-2.5271,0a.8224.8224,0,1,1,.8221-.8227.8259.8259,0,0,1-.8221.8227Z"/>
      <path class="b" d="M415.0094,15.0042c-5.1989,0-9.3412,2.9294-9.3412,6.7163a3.65,3.65,0,0,0,3.6361,3.8885,3.5585,3.5585,0,0,0,3.5871-3.7877c0-2.02-.8614-2.5249-2.4257-3.4332-.1-.0507-.2523-.1523-.2523-.3038,0-.2015.7568-1.2112,2.6257-1.2112,3.5346,0,4.1407,3.5346,4.1407,5.9588,0,1.918-.3522,3.8377-1.7166,7.7761-1.7673,4.9983-1.8165,6.06-1.9181,10.5v.0039a.8576.8576,0,1,0,1.7151,0c0-5.4535.96-7.5755,4.5468-10.6556,2.5241-2.2212,4.393-3.9385,4.393-7.4233C424,19.1956,421.3236,15.0042,415.0094,15.0042Zm3.85,33.1473V45.2181c0-.7718-1.999-1.3977-4.466-1.3977s-4.4643.6259-4.4643,1.3977v.7662a2.4557,2.4557,0,0,0-1.5691.5521,1.8088,1.8088,0,0,0-.5616,1.3954,3.6905,3.6905,0,0,0,2.5638,3.3458,3.82,3.82,0,0,0,.9027,1.3224v.4062c0,.771,1.4008,1.3961,3.1285,1.3961s3.1286-.6251,3.1286-1.3961V52.6C418.9994,51.2055,418.86,48.9313,418.86,48.1515Zm-10.2567-.22a1.0242,1.0242,0,0,1,.3-.7988,1.6321,1.6321,0,0,1,1.0265-.3443v1.3628a10.4994,10.4994,0,0,0,.1252,2.0608A2.58,2.58,0,0,1,408.6031,47.9318Zm5.7907-1.9277c-1.9735,0-3.5759-.3529-3.5759-.786,0-.4356,1.6024-.787,3.5759-.787,1.9752,0,3.576.3514,3.576.787C417.97,45.6512,416.369,46.0041,414.3938,46.0041Z"/>
    </g>
  </g>
</svg>